<?xml version="1.0" encoding="UTF-8"?>
<svg version="1.1" xmlns="http://www.w3.org/2000/svg" width="901" height="901">
<path d="M0 0 C0.65321228 0.10654907 1.30642456 0.21309814 1.97943115 0.32287598 C51.2587191 8.40590601 100.01212471 24.94349006 142.52099609 51.46240234 C145.90776638 53.56304044 149.34010755 55.58469257 152.77441406 57.60644531 C155.79778802 59.49953642 158.54734513 61.66205673 161.328125 63.890625 C164.1074922 66.08486226 166.93460538 68.20240253 169.77636719 70.31469727 C179.69569955 77.68957548 189.28928694 85.31875269 198.41796875 93.6640625 C200.49966799 95.54735471 202.60736027 97.38375234 204.734375 99.21484375 C209.3716583 103.26453166 213.72157731 107.5744861 218.0625 111.9375 C219.2081543 113.07735352 219.2081543 113.07735352 220.37695312 114.24023438 C225.12504521 118.9964498 229.65080934 123.87730632 234 129 C234.54309814 129.63639404 235.08619629 130.27278809 235.64575195 130.9284668 C244.07915994 140.87790861 251.96959753 151.13936493 259.46069336 161.81542969 C260.51272778 163.30846759 261.57663944 164.79318841 262.65063477 166.27050781 C267.22014756 172.62370271 271.18718289 179.25462149 275.03442383 186.05810547 C276.05916664 187.86910902 277.09244032 189.675032 278.12695312 191.48046875 C302.27361106 233.80454272 317.65697676 280.94414932 324.578125 329.11181641 C324.85382962 330.99930814 325.14486446 332.88464104 325.453125 334.76708984 C331.05567759 369.08876168 329.8111287 405.78769356 324 440 C323.89109436 440.65083557 323.78218872 441.30167114 323.66998291 441.972229 C317.74639305 477.26484162 307.79868248 510.94736054 293.07666016 543.57324219 C292.14013704 545.68413556 291.24764904 547.80277643 290.38671875 549.9453125 C286.84182387 558.71268632 282.31868042 566.61569214 277.40917969 574.66699219 C275.92715768 577.1205962 274.48051173 579.59267472 273.0390625 582.0703125 C267.2576328 591.95869235 261.17339439 601.07468751 254 610 C252.47166301 612.03605571 250.95072868 614.07769061 249.4375 616.125 C242.81775168 624.96294468 235.80079613 633.33992317 228.3203125 641.4609375 C226.41584658 643.54494903 224.57384698 645.65871086 222.75 647.8125 C214.89461222 656.84339711 206.16927005 665.31577181 197 673 C195.67935547 674.15435547 195.67935547 674.15435547 194.33203125 675.33203125 C185.42420504 683.07720979 176.02892472 690.14910375 166.52270508 697.14038086 C164.80416609 698.40720671 163.09332252 699.68452327 161.3894043 700.97094727 C154.56773628 706.06173508 147.47209302 710.3839611 140.0625 714.5625 C137.86572977 715.81352882 135.66911444 717.06482966 133.47265625 718.31640625 C132.3964502 718.92500488 131.32024414 719.53360352 130.21142578 720.16064453 C128.08281857 721.37981184 125.96624559 722.62025265 123.86279297 723.88232422 C118.52230799 727.08661521 113.33001286 729.85051875 107.49804688 732.03808594 C104.81334382 733.07187504 102.22046673 734.23798371 99.609375 735.4453125 C41.54379889 762.11441753 -19.7186015 769.27877268 -83 769 C-83 752.83 -83 736.66 -83 720 C-76.008125 719.731875 -69.01625 719.46375 -61.8125 719.1875 C-43.78062014 718.4316233 -25.89619338 717.43390513 -8 715 C-6.54207031 714.80349854 -6.54207031 714.80349854 -5.0546875 714.60302734 C27.03892879 710.08303064 57.78673666 699.84118582 87 686 C85.00829252 682.32877193 83.00715023 678.66280439 81 675 C80.65678711 674.37270996 80.31357422 673.74541992 79.95996094 673.09912109 C74.30868159 662.78894523 68.47016449 652.59777191 62.52758789 642.45288086 C57.49817638 633.86685554 52.523219 625.2504096 47.56933594 616.62060547 C44.48156564 611.25392116 41.36093686 605.91190651 38.1640625 600.609375 C37.55763916 599.6002002 36.95121582 598.59102539 36.32641602 597.55126953 C35.17829381 595.64657849 34.02289135 593.74625075 32.85913086 591.85107422 C32.35003174 591.00561035 31.84093262 590.16014648 31.31640625 589.2890625 C30.64266968 588.18618896 30.64266968 588.18618896 29.95532227 587.06103516 C29 585 29 585 29 581 C30.04414062 580.42894531 31.08828125 579.85789062 32.1640625 579.26953125 C42.18103096 573.76002563 52.06006966 568.06391686 61.82470703 562.11645508 C62.71657715 561.58044678 63.60844727 561.04443848 64.52734375 560.4921875 C65.71444946 559.77071533 65.71444946 559.77071533 66.92553711 559.03466797 C69 558 69 558 72 558 C72.32049316 558.57105469 72.64098633 559.14210938 72.97119141 559.73046875 C79.73332626 571.76692528 86.57642234 583.74993062 93.55517578 595.66210938 C97.74443543 602.82264662 101.87891402 610.01309427 105.98608398 617.22088623 C111.56861686 627.016531 117.16438156 636.80449936 122.8125 646.5625 C123.39322266 647.57376953 123.97394531 648.58503906 124.57226562 649.62695312 C125.11173828 650.55572266 125.65121094 651.48449219 126.20703125 652.44140625 C126.6760083 653.25295166 127.14498535 654.06449707 127.62817383 654.90063477 C128.92349922 656.88292754 130.25995697 658.40482701 132 660 C144.82267446 650.49159271 157.19261143 640.76281707 169 630 C170.7081916 628.47900748 172.41652449 626.95817362 174.125 625.4375 C181.23837267 619.02544576 187.78678949 612.28188271 194 605 C194.78890625 604.10023438 195.5778125 603.20046875 196.390625 602.2734375 C242.45141316 549.36333356 271.1674053 480.76839874 276.76049805 410.85107422 C277 409 277 409 278 407 C238.4 407 198.8 407 158 407 C157.67 396.11 157.34 385.22 157 374 C155.47689845 349.63037527 151.10837067 327.31978742 142.76855469 304.37402344 C141.97833725 301.93308495 141.45436943 299.52315271 141 297 C133.09464461 300.84381706 125.43491929 304.95537268 117.875 309.4375 C115.76597714 310.67768236 113.65658939 311.91724438 111.546875 313.15625 C110.46857422 313.79046875 109.39027344 314.4246875 108.27929688 315.078125 C102.91005293 318.22484093 97.51793359 321.33161349 92.125 324.4375 C91.05459473 325.05431641 89.98418945 325.67113281 88.88134766 326.30664062 C86.69931168 327.56396337 84.51718226 328.82112397 82.33496094 330.078125 C77.76533274 332.71151542 73.19791116 335.34871732 68.63085938 337.98657227 C66.40661562 339.27007399 64.18138123 340.55186078 61.95507812 341.83178711 C57.41682754 344.44142118 52.88462168 347.05554805 48.3984375 349.75390625 C47.41762207 350.33700562 47.41762207 350.33700562 46.41699219 350.93188477 C44.78576875 351.90417394 43.16198634 352.88891969 41.5390625 353.875 C39 355 39 355 37.02148438 354.86230469 C34.16225252 353.64264202 33.55144759 352.05799167 32.1171875 349.328125 C31.33359863 347.875271 31.33359863 347.875271 30.53417969 346.39306641 C29.98665039 345.35585449 29.43912109 344.31864258 28.875 343.25 C14.79490548 317.49189567 -4.34811427 299.08598897 -32.86889648 290.52661133 C-57.63750316 283.72685712 -83.66348027 287.2622563 -106.1027832 299.49267578 C-111.8907392 302.78826567 -117.09581458 306.47631173 -122 311 C-123.27617188 312.17369141 -123.27617188 312.17369141 -124.578125 313.37109375 C-133.81961172 322.23904733 -140.0929022 332.57398627 -146.4375 343.625 C-147.07365234 344.72457031 -147.70980469 345.82414062 -148.36523438 346.95703125 C-149.91421253 349.63571528 -151.45904002 352.3166981 -153 355 C-156.82861144 354.41216589 -159.63820103 353.29559857 -162.9921875 351.375 C-163.93827881 350.83705811 -164.88437012 350.29911621 -165.85913086 349.74487305 C-167.35198608 348.88116089 -167.35198608 348.88116089 -168.875 348 C-169.89408447 347.41710205 -170.91316895 346.8342041 -171.96313477 346.23364258 C-180.04078782 341.59754499 -188.05397313 336.85799747 -196 332 C-195.43466041 328.4916028 -194.57568479 325.85972014 -192.76953125 322.8046875 C-192.30369629 322.01602295 -191.83786133 321.2273584 -191.35791016 320.41479492 C-190.59293213 319.15759644 -190.59293213 319.15759644 -189.8125 317.875 C-189.27931152 316.99626221 -188.74612305 316.11752441 -188.19677734 315.2121582 C-172.58421787 289.90225848 -154.0433458 268.72863377 -128 254 C-127.06027344 253.46761719 -126.12054688 252.93523437 -125.15234375 252.38671875 C-119.35000811 249.29799262 -113.39431969 246.93499826 -107.1875 244.8125 C-106.50147705 244.57450684 -105.8154541 244.33651367 -105.10864258 244.09130859 C-97.77667639 241.69077727 -90.72701032 240.54540206 -83 239 C-83 215.24 -83 191.48 -83 167 C-85.97 167.66 -88.94 168.32 -92 169 C-94.12557101 169.36381867 -96.25115474 169.72756998 -98.37719727 170.08862305 C-137.08112545 176.98031902 -174.07735878 195.19540593 -202.84375 221.99609375 C-204.84701924 223.85782767 -206.90573297 225.6173116 -209 227.375 C-247.28540176 260.99890574 -269.6003556 315.05358123 -274 365 C-274.3511362 370.60077096 -274.38977564 376.20244628 -274.375 381.8125 C-274.37478851 382.56402344 -274.37457703 383.31554687 -274.37435913 384.08984375 C-274.30400182 409.39980114 -269.7642388 433.77205187 -260.96728516 457.48486328 C-259.67067333 460.98079137 -258.6794357 464.33842214 -258 468 C-247.15273819 462.15485906 -236.33069412 456.28905589 -225.73828125 449.99145508 C-219.37764261 446.21039236 -212.97442163 442.5058615 -206.5625 438.8125 C-205.46566895 438.18045654 -204.36883789 437.54841309 -203.23876953 436.8972168 C-200.97815459 435.5948312 -198.71741065 434.29266948 -196.45654297 432.99072266 C-191.80207413 430.31007999 -187.14868344 427.62757119 -182.49584961 424.9440918 C-180.32367658 423.69132046 -178.15132686 422.4388554 -175.97875977 421.18676758 C-168.97281219 417.14671813 -161.98213819 413.08105435 -155 409 C-152.17317652 411.6472769 -150.17050778 414.12225406 -148.3359375 417.52734375 C-147.85874268 418.39584961 -147.38154785 419.26435547 -146.88989258 420.15917969 C-146.38997803 421.07602539 -145.89006348 421.99287109 -145.375 422.9375 C-140.53311989 431.59700209 -135.49043562 439.48191207 -129 447 C-128.3090625 447.80308594 -127.618125 448.60617187 -126.90625 449.43359375 C-111.16642 466.37740328 -87.78270927 476.24359012 -64.8984375 477.37890625 C-52.45989472 477.73369849 -40.82978132 476.96423523 -29 473 C-28.34322266 472.78037598 -27.68644531 472.56075195 -27.00976562 472.33447266 C4.69028129 461.36675319 20.63712698 436.90550848 36 409 C39.63632623 410.37448867 42.97064121 412.00434858 46.359375 413.90625 C47.38345459 414.47980225 48.40753418 415.05335449 49.46264648 415.64428711 C50.54747314 416.25667236 51.6322998 416.86905762 52.75 417.5 C53.87672119 418.13365479 55.00344238 418.76730957 56.16430664 419.42016602 C62.95517743 423.25000564 69.70984746 427.13335601 76.4152832 431.1105957 C82.72724525 434.85304663 89.07941601 438.52403479 95.4375 442.1875 C97.09833618 443.14450806 97.09833618 443.14450806 98.79272461 444.12084961 C101.06337068 445.42889477 103.33412358 446.73675448 105.60498047 448.04443359 C112.1519012 451.81552773 118.69531065 455.59271076 125.23901367 459.36938477 C130.70421293 462.52319079 136.17091028 465.67434329 141.640625 468.8203125 C148.09968275 472.53665846 154.55261703 476.26343722 161 480 C162.07588379 480.62310059 163.15176758 481.24620117 164.26025391 481.88818359 C167.36471984 483.69000416 170.46440003 485.49976027 173.5625 487.3125 C174.50319336 487.85793457 175.44388672 488.40336914 176.41308594 488.96533203 C177.69554199 489.71919189 177.69554199 489.71919189 179.00390625 490.48828125 C179.75486572 490.92696533 180.5058252 491.36564941 181.27954102 491.81762695 C183 493 183 493 184 495 C182.77172852 497.59106445 182.77172852 497.59106445 180.87890625 500.86328125 C180.37253883 501.74502266 180.37253883 501.74502266 179.85594177 502.64457703 C178.76558747 504.53830424 177.66401841 506.42524946 176.5625 508.3125 C175.85412341 509.54191792 175.1464336 510.77173183 174.43945312 512.00195312 C169.77312994 520.09338894 164.93657085 528.07071106 160 536 C156.19439766 535.41933397 153.473423 534.33578266 150.17578125 532.3671875 C148.77706787 531.54069702 148.77706787 531.54069702 147.35009766 530.69750977 C146.34769043 530.09608154 145.3452832 529.49465332 144.3125 528.875 C142.13974019 527.58913841 139.96654843 526.30400648 137.79296875 525.01953125 C136.10953369 524.02107178 136.10953369 524.02107178 134.39208984 523.00244141 C128.99305788 519.81524836 123.55944522 516.68880011 118.125 513.5625 C115.94267151 512.3047514 113.76038005 511.04693852 111.578125 509.7890625 C109.3854595 508.52596731 107.19275111 507.26294656 105 506 C101.71258563 504.10656638 98.42530055 502.21291239 95.13867188 500.31811523 C92.97940801 499.0738895 90.81926438 497.83118917 88.65820312 496.59008789 C83.13296042 493.41122149 77.63570875 490.19360517 72.171875 486.91015625 C71.07246582 486.254104 69.97305664 485.59805176 68.84033203 484.92211914 C66.74133157 483.66734081 64.64823373 482.40262015 62.56201172 481.12670898 C61.62631348 480.56927002 60.69061523 480.01183105 59.7265625 479.4375 C58.49800537 478.69306641 58.49800537 478.69306641 57.24462891 477.93359375 C55.06616369 476.8175264 55.06616369 476.8175264 52.82348633 477.22900391 C50.15515001 478.35721466 48.8935428 480.14682124 47.0625 482.375 C28.35295669 503.80537558 -0.95696712 520.1042791 -29 525 C-30.65 525 -32.3 525 -34 525 C-34 565.59 -34 606.18 -34 648 C-50.17 648 -66.34 648 -83 648 C-83 607.41 -83 566.82 -83 525 C-86.3 524.67 -89.6 524.34 -93 524 C-96.90201937 523.11444645 -100.64937681 521.84747989 -104.4375 520.5625 C-105.48083496 520.20978027 -106.52416992 519.85706055 -107.59912109 519.49365234 C-131.32242776 511.17584206 -153.25622239 496.79217756 -169 477 C-172.97510033 477.58913553 -175.80697025 478.82045195 -179.26171875 480.8515625 C-180.28458984 481.44775391 -181.30746094 482.04394531 -182.36132812 482.65820312 C-183.45896484 483.30724609 -184.55660156 483.95628906 -185.6875 484.625 C-186.84916922 485.30478918 -188.01128693 485.98381248 -189.17382812 486.66210938 C-191.58817446 488.07158303 -194.00055922 489.48432987 -196.41162109 490.89941406 C-201.92318667 494.1305557 -207.4630484 497.3126337 -213 500.5 C-215.16156933 501.74720349 -217.32302725 502.99460007 -219.484375 504.2421875 C-223.86797794 506.77139196 -228.25359311 509.29706075 -232.640625 511.8203125 C-234.28297119 512.76583984 -234.28297119 512.76583984 -235.95849609 513.73046875 C-238.13253205 514.98180527 -240.30732309 516.23183095 -242.48291016 517.48046875 C-247.81951615 520.55184975 -253.12352347 523.66496563 -258.3828125 526.8671875 C-259.39311523 527.47868652 -260.40341797 528.09018555 -261.44433594 528.72021484 C-263.35258213 529.87908811 -265.25465972 531.04820047 -267.14941406 532.22900391 C-267.9947168 532.74124512 -268.84001953 533.25348633 -269.7109375 533.78125 C-270.44618652 534.23564453 -271.18143555 534.69003906 -271.93896484 535.15820312 C-274 536 -274 536 -276.05615234 535.96948242 C-278.95590636 534.52324741 -279.82039978 532.51402478 -281.390625 529.70703125 C-282.01404785 528.60842773 -282.6374707 527.50982422 -283.27978516 526.37792969 C-283.93699675 525.18971479 -284.59372615 524.00123309 -285.25 522.8125 C-285.92517457 521.60908554 -286.60144651 520.40628611 -287.27880859 519.20410156 C-288.60307263 516.85138779 -289.92086203 514.4954395 -291.23535156 512.13720703 C-292.65193766 509.61878819 -294.09474271 507.12684488 -295.5859375 504.65234375 C-299.48682232 498.1433961 -302.41080249 491.79187647 -304.796875 484.5859375 C-305.81242142 481.55908162 -306.93574318 478.60960701 -308.12475586 475.64794922 C-326.53051965 429.08549959 -329.97838069 374.76921326 -319 326 C-318.61448975 324.28466064 -318.61448975 324.28466064 -318.22119141 322.53466797 C-314.08072086 304.76546628 -307.76769164 287.90690029 -301 271 C-300.70061523 270.20102295 -300.40123047 269.4020459 -300.09277344 268.57885742 C-298.78199164 265.4855178 -297.18797122 262.65231636 -295.515625 259.73828125 C-295.00850983 258.85223457 -295.00850983 258.85223457 -294.4911499 257.94828796 C-293.77653814 256.70106629 -293.06038238 255.45472813 -292.34277344 254.20922852 C-291.2642953 252.33731237 -290.19030475 250.46288413 -289.1171875 248.58789062 C-287.73250243 246.17142364 -286.34130272 243.75891849 -284.94335938 241.35009766 C-283.72828098 239.25546126 -282.52008633 237.15679894 -281.32226562 235.05224609 C-278.61387129 230.37497739 -275.97378985 226.71961608 -272 223 C-269.91712293 220.54972556 -267.93505325 218.02003685 -265.9375 215.5 C-259.93340198 208.02044237 -253.62528054 200.93165189 -247 194 C-246.29359375 193.25234375 -245.5871875 192.5046875 -244.859375 191.734375 C-239.63281232 186.3378428 -233.86929933 181.67340992 -228 177 C-226.71191298 175.96785537 -225.42417043 174.93528076 -224.13671875 173.90234375 C-221.0177575 171.40172876 -217.89528156 168.90557653 -214.77001953 166.4128418 C-213.39368068 165.31423864 -212.03523764 164.19320031 -210.68432617 163.06347656 C-207.7943923 160.84194668 -204.8431928 159.0743272 -201.66796875 157.28515625 C-200.77480705 156.77872841 -200.77480705 156.77872841 -199.86360168 156.2620697 C-197.9738833 155.19138746 -196.08093003 154.12660236 -194.1875 153.0625 C-191.70045834 151.65995584 -189.21516693 150.25434689 -186.73046875 148.84765625 C-185.83761673 148.34439316 -185.83761673 148.34439316 -184.92672729 147.83096313 C-181.69301555 145.99893633 -178.53706938 144.09067891 -175.42578125 142.05859375 C-172.23022296 140.13834379 -170.53526926 139.66577386 -167 139 C-165.43813429 138.4329298 -163.89109039 137.82376907 -162.359375 137.1796875 C-141.52093866 128.61076904 -120.27007541 122.4977496 -98 119 C-96.45699219 118.73509766 -96.45699219 118.73509766 -94.8828125 118.46484375 C-83.03011646 116.62109103 -71.22140498 116.60252978 -59.25 116.625 C-57.61877197 116.62581573 -57.61877197 116.62581573 -55.95458984 116.62664795 C-39.28382045 116.66498213 -23.34100021 117.45705179 -7 121 C-5.96697754 121.20898926 -4.93395508 121.41797852 -3.86962891 121.63330078 C12.02872269 124.87811035 27.01923497 129.79998298 42 136 C42.86963379 136.35964844 43.73926758 136.71929687 44.63525391 137.08984375 C62.14043227 144.43777947 79.28230499 153.3209919 95 164 C94.32122532 167.53004256 92.88550576 170.24897857 91.12109375 173.3671875 C90.53279785 174.41205322 89.94450195 175.45691895 89.33837891 176.53344727 C88.39744385 178.18751587 88.39744385 178.18751587 87.4375 179.875 C86.48883057 181.55517212 86.48883057 181.55517212 85.52099609 183.26928711 C83.68597977 186.51590865 81.84439428 189.75869873 80 193 C79.28529541 194.25756104 79.28529541 194.25756104 78.55615234 195.54052734 C76.38059804 199.36603818 74.19665513 203.18655212 72 207 C67.88971907 205.74042816 64.32961711 204.21265682 60.61328125 202.05859375 C59.60281738 201.47940186 58.59235352 200.90020996 57.55126953 200.3034668 C56.48247559 199.68769775 55.41368164 199.07192871 54.3125 198.4375 C29.45342903 184.38461737 4.23543023 174.08817744 -24 169 C-27.3 168.34 -30.6 167.68 -34 167 C-33.67 190.76 -33.34 214.52 -33 239 C-26.4 240.65 -19.8 242.3 -13 244 C12.01846245 252.94969388 35.28077485 266.98154553 52 288 C55.23120296 287.34593456 57.71994243 286.18015522 60.578125 284.55078125 C61.47877686 284.03990967 62.37942871 283.52903809 63.30737305 283.00268555 C64.27843994 282.44492432 65.24950684 281.88716309 66.25 281.3125 C67.2706958 280.73089111 68.2913916 280.14928223 69.34301758 279.55004883 C77.48071738 274.90144617 85.57642546 270.18126117 93.66308594 265.44458008 C101.99701328 260.5679325 110.37515093 255.77125634 118.76647949 250.99441528 C128.37593161 245.52331968 137.93697234 239.9756042 147.45117188 234.33984375 C148.37349609 233.79714844 149.29582031 233.25445312 150.24609375 232.6953125 C151.04716553 232.22109863 151.8482373 231.74688477 152.67358398 231.25830078 C155.05978581 229.96766334 157.46380432 228.95736257 160 228 C160.33620361 228.59723877 160.67240723 229.19447754 161.01879883 229.80981445 C162.61553862 232.64469842 164.21399806 235.4786093 165.8125 238.3125 C166.39692871 239.35035645 166.98135742 240.38821289 167.58349609 241.45751953 C170.41679923 246.47736855 173.26812381 251.48251736 176.20703125 256.44140625 C176.70033936 257.27696045 177.19364746 258.11251465 177.7019043 258.97338867 C178.62193391 260.52602743 179.54873751 262.07468086 180.48364258 263.6184082 C182.98232498 267.84448016 184.79212515 271.91268297 186.23974609 276.6015625 C187.07280741 279.2296917 188.03086385 281.78824238 189.015625 284.36328125 C197.77198101 307.54083547 206 332.96507692 206 358 C229.76 358 253.52 358 278 358 C277.67 357.34 277.34 356.68 277 356 C276.77898994 354.33424922 276.60613415 352.66200148 276.45703125 350.98828125 C273.93884057 324.72226521 269.2194154 299.10573365 261 274 C260.68756348 273.02498535 260.37512695 272.0499707 260.05322266 271.04541016 C241.98668607 215.33798489 206.44960237 162.06213855 160 126 C158.87374152 125.07602903 157.75021428 124.14872248 156.62890625 123.21875 C147.19534239 115.43904031 137.30734176 108.56959291 127 102 C126.39816895 101.61279785 125.79633789 101.2255957 125.17626953 100.82666016 C106.61228597 88.96678072 86.52590477 78.95570704 66 71 C65.25975586 70.70577148 64.51951172 70.41154297 63.75683594 70.10839844 C23.82722844 54.28463419 -19.16840425 46.7754058 -62 46.75 C-63.02266968 46.74932526 -64.04533936 46.74865051 -65.09899902 46.74795532 C-146.84235643 46.83343419 -230.09943655 77.08412334 -288.5625 135.4375 C-289.71064381 136.62276624 -290.85640004 137.81034904 -292 139 C-294.5068455 141.52325692 -297.02851425 144.02773659 -299.578125 146.5078125 C-305.86966433 152.67057763 -311.54778745 159.06922133 -317 166 C-317.8714451 167.08149594 -318.7438799 168.16219497 -319.6171875 169.2421875 C-330.96657141 183.36203709 -340.8451631 198.37890934 -350 214 C-350.45375 214.7729541 -350.9075 215.5459082 -351.375 216.34228516 C-373.60194626 254.56852832 -386.96363329 297.30425046 -393 341 C-393.11859375 341.84933105 -393.2371875 342.69866211 -393.359375 343.57373047 C-399.62112206 390.99341913 -393.69105833 440.70325449 -379 486 C-378.73106934 486.84498047 -378.46213867 487.68996094 -378.18505859 488.56054688 C-365.50964902 528.03650135 -344.87954301 565.41196561 -318 597 C-316.77023437 598.50626953 -316.77023437 598.50626953 -315.515625 600.04296875 C-309.21497218 607.68683265 -302.4202644 614.78903775 -295.4375 621.8125 C-294.14440918 623.11936768 -294.14440918 623.11936768 -292.82519531 624.45263672 C-286.85842145 630.39116951 -280.58459045 635.76144125 -274 641 C-272.67540996 642.08389575 -271.35229521 643.16959914 -270.03125 644.2578125 C-268.85456365 645.21403038 -267.67749287 646.16977545 -266.5 647.125 C-265.92636719 647.59808594 -265.35273438 648.07117188 -264.76171875 648.55859375 C-259.46794268 652.83744108 -253.78470944 656.42344651 -248 660 C-247.43623657 659.02281006 -247.43623657 659.02281006 -246.86108398 658.02587891 C-240.97119141 647.81673177 -235.08129883 637.60758464 -229.19140625 627.3984375 C-228.58103516 626.34043945 -227.97066406 625.28244141 -227.34179688 624.19238281 C-226.10489272 622.04845933 -224.86791246 619.90457974 -223.63085938 617.76074219 C-220.49041883 612.31807441 -217.35131366 606.87464455 -214.21484375 601.4296875 C-205.85741101 586.92508777 -197.45075616 572.45041866 -189 558 C-184.67116471 559.31006341 -180.98165828 560.98930203 -177.078125 563.265625 C-175.96953125 563.90886719 -174.8609375 564.55210937 -173.71875 565.21484375 C-172.56245638 565.89315482 -171.40620658 566.57154058 -170.25 567.25 C-168.55617188 568.23419922 -168.55617188 568.23419922 -166.828125 569.23828125 C-164.60270567 570.53386681 -162.38060834 571.83517784 -160.16210938 573.14257812 C-158.10930746 574.34839321 -156.04846403 575.54065942 -153.97851562 576.71679688 C-153.07294922 577.23822266 -152.16738281 577.75964844 -151.234375 578.296875 C-150.43741211 578.74901367 -149.64044922 579.20115234 -148.81933594 579.66699219 C-147 581 -147 581 -146 584 C-147.1171875 586.49829102 -147.1171875 586.49829102 -148.875 589.50390625 C-149.52283447 590.62361816 -150.17066895 591.74333008 -150.83813477 592.89697266 C-151.55861139 594.11890068 -152.27923712 595.3407408 -153 596.5625 C-153.73658242 597.8280395 -154.47216527 599.09416126 -155.20678711 600.36083984 C-156.72249752 602.9712403 -158.24353766 605.5784174 -159.76904297 608.18310547 C-162.44552775 612.75608734 -165.08826268 617.34830839 -167.73046875 621.94116211 C-169.57855338 625.15289874 -171.4311472 628.3619926 -173.28515625 631.5703125 C-177.02651656 638.04510022 -180.76357483 644.52236343 -184.5 651 C-185.74998122 653.1666775 -186.99998121 655.33334417 -188.25 657.5 C-188.86875 658.5725 -189.4875 659.645 -190.125 660.75 C-192 664 -193.875 667.25 -195.75 670.5 C-196.36931396 671.57354736 -196.98862793 672.64709473 -197.62670898 673.75317383 C-198.87076792 675.90940213 -200.11506942 678.06549049 -201.35961914 680.22143555 C-204.24154067 685.21447507 -207.1212475 690.2087388 -209.9919281 695.20825195 C-223.55097112 718.82166049 -223.55097112 718.82166049 -230 729 C-234.1224757 727.74032316 -237.66784424 726.20988803 -241.37890625 724.0234375 C-242.37599609 723.43933105 -243.37308594 722.85522461 -244.40039062 722.25341797 C-245.44388672 721.63354004 -246.48738281 721.01366211 -247.5625 720.375 C-248.64080078 719.73836426 -249.71910156 719.10172852 -250.83007812 718.44580078 C-252.95373921 717.18948287 -255.07570796 715.93029894 -257.19580078 714.66796875 C-259.42576484 713.34156143 -261.66139801 712.02643097 -263.90234375 710.71875 C-272.06010966 705.86318189 -279.56644132 700.25520585 -287.08056641 694.47412109 C-288.86331598 693.10497305 -290.65428069 691.7476384 -292.44921875 690.39453125 C-308.06361861 678.58125021 -322.50296954 665.55457355 -336.375 651.75 C-337.02895752 651.10071533 -337.68291504 650.45143066 -338.35668945 649.7824707 C-342.77286895 645.35166624 -346.92458513 640.74430908 -351 636 C-351.85722656 635.02417969 -352.71445312 634.04835938 -353.59765625 633.04296875 C-361.02137519 624.44274919 -367.74235343 615.39134284 -374.39624023 606.18701172 C-375.89437058 604.14404451 -377.43878608 602.1455316 -378.9921875 600.14453125 C-382.71250331 595.19779156 -385.73811895 589.86305388 -388.8125 584.5 C-389.42923584 583.42830566 -390.04597168 582.35661133 -390.68139648 581.25244141 C-391.90730644 579.12021482 -393.13140207 576.98694387 -394.35351562 574.85253906 C-395.69520506 572.52805814 -397.06032377 570.22364303 -398.453125 567.9296875 C-421.25641559 529.88629248 -433.92554427 484.37082682 -441 441 C-441.21172852 439.71689941 -441.42345703 438.43379883 -441.64160156 437.11181641 C-447.51785659 399.87535726 -447.15493249 361.17151216 -441 324 C-440.89109436 323.33971802 -440.78218872 322.67943604 -440.66998291 321.99914551 C-434.55405782 285.21903787 -423.70764385 250.46968246 -408.16943359 216.58056641 C-407.44979547 214.99255492 -406.74593403 213.3971429 -406.06884766 211.79052734 C-403.28282986 205.19781131 -399.75984226 199.04354353 -396.19189453 192.85253906 C-395.12872349 191.00646541 -394.0736703 189.1559303 -393.01953125 187.3046875 C-389.24622548 180.70639252 -385.35195809 174.23730979 -381 168 C-380.51402344 167.30116699 -380.02804687 166.60233398 -379.52734375 165.88232422 C-372.26038786 155.5330625 -364.63468871 145.53526718 -356.52490234 135.83349609 C-355.13151778 134.15813297 -353.76067026 132.46710975 -352.39453125 130.76953125 C-345.57837336 122.42944601 -338.02732201 114.81557997 -330.4375 107.1875 C-329.90660767 106.65134064 -329.37571533 106.11518127 -328.82873535 105.56277466 C-321.88598554 98.56684372 -314.71854897 92.14784517 -307 86 C-305.89818988 85.0651992 -304.80186205 84.12383575 -303.71484375 83.171875 C-295.60787987 76.10251128 -287.04964318 69.77678583 -278.25390625 63.59130859 C-276.71731814 62.50644277 -275.18894049 61.40987609 -273.66796875 60.30322266 C-267.174494 55.63016537 -260.38934181 51.71096818 -253.375 47.875 C-251.21509903 46.68679672 -249.05622121 45.49673143 -246.8984375 44.3046875 C-245.87717773 43.74104492 -244.85591797 43.17740234 -243.80371094 42.59667969 C-241.42525827 41.24217947 -239.13796795 39.82202084 -236.8515625 38.3203125 C-233.28823343 36.04863259 -229.61210917 34.53193909 -225.66992188 33.03222656 C-222.87130633 31.95024535 -220.13490254 30.76760198 -217.390625 29.5546875 C-182.83346716 14.40804633 -147.28451591 4.60610044 -110 -1 C-108.97342285 -1.16516113 -107.9468457 -1.33032227 -106.88916016 -1.50048828 C-71.9461766 -7.01000485 -34.83868904 -5.74884307 0 0 Z M-111 9 C-112.15097168 9.16628906 -113.30194336 9.33257812 -114.48779297 9.50390625 C-149.41279216 14.75359298 -183.25845944 25.13961641 -215.35839844 39.79443359 C-217.86024256 40.93621791 -220.37069311 42.05683927 -222.8828125 43.17578125 C-247.37152002 54.2514077 -270.03782521 69.24709726 -291 86 C-291.95261719 86.75925781 -292.90523437 87.51851563 -293.88671875 88.30078125 C-299.21079647 92.60014109 -304.367321 97.04683286 -309.41796875 101.6640625 C-311.52109231 103.56673707 -313.64991251 105.42499558 -315.796875 107.27734375 C-320.05782515 110.9983841 -324.07516084 114.92695615 -328.0625 118.9375 C-328.73087891 119.60201172 -329.39925781 120.26652344 -330.08789062 120.95117188 C-334.59681937 125.46886433 -338.8619972 130.14135729 -343 135 C-343.54438721 135.63768311 -344.08877441 136.27536621 -344.6496582 136.93237305 C-358.04103767 152.73679334 -370.09886628 169.38740695 -381 187 C-381.44021484 187.70608398 -381.88042969 188.41216797 -382.33398438 189.13964844 C-417.63505543 246.26554226 -435.57645589 315.09983794 -435.3125 382 C-435.31067719 382.97112732 -435.30885437 383.94225464 -435.30697632 384.94281006 C-435.1392088 438.41966302 -423.44156201 490.87418738 -401.13769531 539.51025391 C-400.09903292 541.78327518 -399.08839989 544.0663189 -398.0859375 546.35546875 C-389.08944386 566.57599937 -377.03754863 585.18316759 -364 603 C-363.48195801 603.71623535 -362.96391602 604.4324707 -362.43017578 605.17041016 C-347.66966718 625.55442124 -330.5840544 645.4581923 -311.45703125 661.87890625 C-309.56148331 663.51528547 -307.689022 665.16902826 -305.82421875 666.83984375 C-284.44907064 685.86125104 -259.78206242 703.4388465 -234 716 C-224.91068056 700.45766641 -215.87818423 684.88391147 -206.89111328 669.28222656 C-203.76319852 663.85340058 -200.63141552 658.42680719 -197.5 653 C-196.24998121 650.83334417 -194.99998122 648.6666775 -193.75 646.5 C-186.25 633.5 -186.25 633.5 -184.37133789 630.24438477 C-183.13269785 628.09692391 -181.8948924 625.94898143 -180.65795898 623.80053711 C-177.72167745 618.70284226 -174.77682582 613.61065771 -171.80252075 608.5350647 C-170.39193333 606.12676124 -168.98606439 603.7157197 -167.58056641 601.30444336 C-166.58175413 599.59544443 -165.5760977 597.8904514 -164.5703125 596.18554688 C-163.97089844 595.15623047 -163.37148438 594.12691406 -162.75390625 593.06640625 C-162.22095947 592.15834229 -161.6880127 591.25027832 -161.13891602 590.31469727 C-159.77925585 587.98131976 -159.77925585 587.98131976 -160 585 C-162.27614005 583.25283999 -162.27614005 583.25283999 -165.25 581.64453125 C-166.87421875 580.71157227 -166.87421875 580.71157227 -168.53125 579.75976562 C-169.6759375 579.11716797 -170.820625 578.47457031 -172 577.8125 C-173.1446875 577.15830078 -174.289375 576.50410156 -175.46875 575.83007812 C-178.30694816 574.20994001 -181.1507057 572.60051782 -184 571 C-186.6908148 574.23266975 -188.93884808 577.42777197 -190.9609375 581.11328125 C-191.50741943 582.10126709 -192.05390137 583.08925293 -192.61694336 584.10717773 C-193.19710205 585.16493408 -193.77726074 586.22269043 -194.375 587.3125 C-199.13847742 595.90924921 -203.96598586 604.45926128 -208.9375 612.9375 C-214.48047507 622.39178893 -219.97000427 631.87520237 -225.43164062 641.37670898 C-228.53182347 646.75924253 -231.65685595 652.12456402 -234.8359375 657.4609375 C-235.44236084 658.47913574 -236.04878418 659.49733398 -236.67358398 660.54638672 C-237.82530969 662.47490956 -238.98090344 664.40112911 -240.14086914 666.32470703 C-240.90451782 667.6025708 -240.90451782 667.6025708 -241.68359375 668.90625 C-242.35733032 670.02483398 -242.35733032 670.02483398 -243.04467773 671.16601562 C-244.15399362 672.95098283 -244.15399362 672.95098283 -244 675 C-253.99990605 669.01304326 -263.40046772 662.68783064 -272.41552734 655.29638672 C-273.89883019 654.0827753 -275.39620858 652.88642474 -276.89453125 651.69140625 C-282.84246905 646.91773943 -288.49580356 641.88871353 -294.078125 636.69921875 C-296.78878029 634.19512409 -299.5427361 631.75073155 -302.3125 629.3125 C-305.85705066 626.12803068 -309.0482686 622.83903383 -312.11328125 619.1953125 C-314.36926427 616.57033847 -316.74887561 614.07920318 -319.125 611.5625 C-325.99583587 604.16387478 -332.02864146 596.13066218 -338 588 C-338.40959961 587.44231934 -338.81919922 586.88463867 -339.24121094 586.31005859 C-392.55882319 512.99256143 -414.6859123 419.59121579 -401.3125 330.0625 C-390.39679071 262.06044068 -360.60569617 198.29907071 -314.1015625 147.3203125 C-312.27717206 145.30602269 -310.50906198 143.25851386 -308.75 141.1875 C-301.13129457 132.47536925 -292.85624665 124.39980905 -283.77734375 117.22265625 C-281.33312639 115.26659482 -278.97460521 113.23945834 -276.6237793 111.1730957 C-218.72864085 60.71967794 -139.32144336 36.80176963 -63.5 36.75 C-62.60326569 36.74932526 -61.70653137 36.74865051 -60.78262329 36.74795532 C27.01029878 36.85204799 114.9723633 69.42700362 179.38671875 129.5703125 C181.65725606 131.68133523 183.96279436 133.72826474 186.3125 135.75 C192.75886227 141.35726966 198.45253187 147.51523863 204 154 C204.79019531 154.90105469 205.58039062 155.80210937 206.39453125 156.73046875 C230.45479947 184.37705336 249.33648371 216.04162323 263 250 C263.53318848 251.32088623 263.53318848 251.32088623 264.07714844 252.66845703 C278.89322384 289.94514628 283.90813826 328.10434806 288 368 C257.97 368 227.94 368 197 368 C196.67 362.72 196.34 357.44 196 352 C195.50670051 348.08902047 194.98058041 344.25182439 194.3125 340.375 C194.13952393 339.36211914 193.96654785 338.34923828 193.78833008 337.30566406 C187.69288903 303.2178173 174.56710107 271.14404065 156 242 C152.19037936 243.424206 148.75596032 245.17908883 145.23046875 247.203125 C143.5453418 248.16798828 143.5453418 248.16798828 141.82617188 249.15234375 C140.61321505 249.85144766 139.40032616 250.55066944 138.1875 251.25 C136.92393897 251.97545351 135.66026552 252.70071126 134.39648438 253.42578125 C125.60438985 258.47567695 116.84371373 263.5788944 108.09375 268.70141602 C99.14066827 273.93615246 90.1436554 279.09311998 81.12304688 284.21044922 C75.75954645 287.25640156 70.41866861 290.3283364 65.14453125 293.52734375 C64.26643799 294.05497314 63.38834473 294.58260254 62.48364258 295.1262207 C60.87501405 296.0969639 59.27397302 297.08043987 57.68237305 298.07885742 C55.5625 299.3515625 55.5625 299.3515625 52 301 C48.14431625 299.60831675 46.44587965 297.29124643 44 294.0625 C35.53179797 283.47724746 25.47623151 275.1957694 14 268 C13.39704102 267.62101562 12.79408203 267.24203125 12.17285156 266.8515625 C-4.15813175 256.76004767 -24.51466753 248 -44 248 C-44 217.97 -44 187.94 -44 157 C-4.85220363 161.51705343 29.64471561 171.05240696 63.19140625 191.515625 C64.11824219 192.00546875 65.04507812 192.4953125 66 193 C69.8688358 191.71038807 70.19502904 190.38920481 72.13671875 186.87109375 C72.71357422 185.83662109 73.29042969 184.80214844 73.88476562 183.73632812 C74.77711914 182.1034082 74.77711914 182.1034082 75.6875 180.4375 C76.29400391 179.34501953 76.90050781 178.25253906 77.52539062 177.12695312 C79.02527302 174.42244078 80.51634906 171.71344045 82 169 C79.74886638 166.53759785 77.48311573 164.99722283 74.5625 163.3984375 C73.67780029 162.91286377 72.79310059 162.42729004 71.8815918 161.92700195 C70.9306665 161.41484131 69.97974121 160.90268066 69 160.375 C68.01104736 159.84156982 67.02209473 159.30813965 66.00317383 158.75854492 C33.60017668 141.42344786 1.40980273 131.56903836 -35 127 C-35.78181641 126.89469971 -36.56363281 126.78939941 -37.36914062 126.6809082 C-95.58273054 119.32461021 -162.49437633 139.25068007 -208.71508789 174.82495117 C-210.4832003 176.20866122 -212.24223983 177.60318049 -214 179 C-215.41152344 180.09441406 -215.41152344 180.09441406 -216.8515625 181.2109375 C-233.393293 194.16777285 -249.23570263 209.15704926 -261.64746094 226.15576172 C-263.12040587 228.16417796 -264.62594944 230.14583054 -266.1328125 232.12890625 C-305.16358492 284.07512612 -321.62487177 352.54651401 -312.83666992 416.6784668 C-307.07414414 455.22735815 -293.66795149 490.14797424 -273 523 C-257.31369135 514.45270632 -241.75929094 505.73549307 -226.34375 496.70703125 C-218.83828932 492.31373263 -211.3046195 487.96965619 -203.76123047 483.6418457 C-198.19847909 480.4452141 -192.6633009 477.21113363 -187.1640625 473.90625 C-186.06578125 473.25076172 -184.9675 472.59527344 -183.8359375 471.91992188 C-181.73861758 470.66586745 -179.64715808 469.4019449 -177.5625 468.12695312 C-176.62664062 467.56943359 -175.69078125 467.01191406 -174.7265625 466.4375 C-173.90752441 465.94121094 -173.08848633 465.44492187 -172.24462891 464.93359375 C-170 464 -170 464 -167.87109375 464.16992188 C-164.55278038 465.64203375 -162.5976597 468.72677651 -160.375 471.5 C-138.6149343 497.66574196 -106.67780391 513.63221961 -73 517 C-73 556.93 -73 596.86 -73 638 C-63.43 638 -53.86 638 -44 638 C-44 598.07 -44 558.14 -44 517 C-39.38 516.34 -34.76 515.68 -30 515 C-18.99961812 512.78099371 -9.06633495 508.84170253 1 504 C2.10085938 503.47664063 3.20171875 502.95328125 4.3359375 502.4140625 C21.9965806 493.47472463 37.99990631 479.72739552 50 464 C53.48616154 464.67686029 56.17749011 466.06987575 59.26171875 467.80859375 C60.289021 468.38536865 61.31632324 468.96214355 62.37475586 469.55639648 C63.46796143 470.17716064 64.56116699 470.7979248 65.6875 471.4375 C66.81873291 472.0756665 67.94996582 472.71383301 69.11547852 473.37133789 C75.92008382 477.22074499 82.69085397 481.1223287 89.41503906 485.11035156 C97.9355069 490.16266892 106.52880768 495.08876881 115.11328125 500.03125 C119.20474884 502.3869612 123.29321559 504.74761658 127.37678528 507.11698914 C129.15059807 508.14617138 130.92495565 509.17440824 132.69946289 510.20239258 C134.92496506 511.49207672 137.14946996 512.78348384 139.37280273 514.0769043 C144.83739328 517.24015754 150.31435266 520.25261885 156 523 C158.34034723 519.0457735 160.6710785 515.08596494 163 511.125 C164.00160156 509.43310547 164.00160156 509.43310547 165.0234375 507.70703125 C165.65507813 506.63066406 166.28671875 505.55429687 166.9375 504.4453125 C167.52402344 503.45031738 168.11054687 502.45532227 168.71484375 501.43017578 C170.15582926 499.16351167 170.15582926 499.16351167 170 497 C169.02281006 496.43623657 169.02281006 496.43623657 168.02587891 495.86108398 C149.18391927 484.99072266 130.34195964 474.12036133 111.5 463.25 C110.42733887 462.63116943 109.35467773 462.01233887 108.24951172 461.37475586 C106.08442929 460.12564482 103.91939018 458.87645871 101.75439453 457.62719727 C96.31384294 454.48797691 90.87252784 451.35009437 85.4296875 448.21484375 C83.80268921 447.27705078 83.80268921 447.27705078 82.14282227 446.3203125 C79.98254002 445.0756284 77.82158102 443.83211805 75.65991211 442.58984375 C70.12683586 439.40470831 64.61694414 436.18534738 59.13671875 432.91015625 C57.4808374 431.92607788 57.4808374 431.92607788 55.79150391 430.92211914 C53.68058178 429.66555708 51.57454372 428.40074399 49.47412109 427.12670898 C48.5352002 426.56927002 47.5962793 426.01183105 46.62890625 425.4375 C45.3924939 424.69306641 45.3924939 424.69306641 44.13110352 423.93359375 C41.8851178 422.66589087 41.8851178 422.66589087 39 424 C37.54320454 426.39522199 36.22677343 428.76719689 34.9375 431.25 C21.38496785 456.23207604 0.11511497 474.60301289 -27.21484375 482.96875 C-55.8401008 490.76758164 -86.05895293 488.39518361 -112.15820312 473.75146484 C-119.16598715 469.60609106 -125.21035561 464.7444128 -131 459 C-131.86625 458.175 -132.7325 457.35 -133.625 456.5 C-134.40875 455.675 -135.1925 454.85 -136 454 C-136.57282715 453.40388916 -137.1456543 452.80777832 -137.73583984 452.19360352 C-143.1092782 446.40636391 -147.10949324 440.28896353 -151 433.4375 C-151.58394531 432.42880859 -152.16789062 431.42011719 -152.76953125 430.38085938 C-154.18906515 427.92576387 -155.59893082 425.46566364 -157 423 C-161.86262912 424.4095658 -165.95515046 426.57057973 -170.25 429.1875 C-171.76618915 430.09498405 -173.28316888 431.00114806 -174.80078125 431.90625 C-176.04335693 432.64875 -176.04335693 432.64875 -177.31103516 433.40625 C-182.32667865 436.3790229 -187.38418227 439.27939472 -192.4375 442.1875 C-194.09604004 443.14305786 -194.09604004 443.14305786 -195.78808594 444.11791992 C-198.06024082 445.42700657 -200.33254009 446.73584262 -202.60498047 448.04443359 C-206.99630963 450.57388466 -211.38593133 453.10628706 -215.77514648 455.6394043 C-217.91616281 456.8746746 -220.05759834 458.10921861 -222.19946289 459.34301758 C-227.28629904 462.27412002 -232.36907872 465.21169173 -237.43914795 468.17169189 C-239.8381957 469.57178169 -242.2393241 470.96828095 -244.640625 472.36450195 C-246.33798226 473.35343237 -248.03230902 474.34755838 -249.7265625 475.34179688 C-251.26570313 476.23608398 -251.26570313 476.23608398 -252.8359375 477.1484375 C-253.73876465 477.67614746 -254.6415918 478.20385742 -255.57177734 478.74755859 C-257.75152454 479.87184003 -259.60402014 480.54033458 -262 481 C-269.66916796 463.93776628 -275.84348737 447.19004305 -279.75 428.875 C-279.94883789 427.94647217 -280.14767578 427.01794434 -280.35253906 426.0612793 C-283.24940022 411.71734457 -284.38826101 397.47904827 -284.3125 382.875 C-284.30926727 381.73880219 -284.30926727 381.73880219 -284.30596924 380.57965088 C-284.10057314 335.27259524 -270.45602714 290.01974116 -244 253 C-242.88044922 251.41445313 -242.88044922 251.41445313 -241.73828125 249.796875 C-222.62487523 223.58028219 -198.99230558 202.17255515 -170.84277344 186.05712891 C-169.09791091 185.05616776 -167.36495811 184.03452863 -165.6328125 183.01171875 C-137.26231392 166.96083576 -105.20711864 159.68392655 -73 157 C-73 187.03 -73 217.06 -73 248 C-76.63 248.33 -80.26 248.66 -84 249 C-87.1393626 249.65446845 -90.16766591 250.34256121 -93.25 251.1875 C-94.471427 251.51850708 -94.471427 251.51850708 -95.7175293 251.85620117 C-134.90215037 262.81594317 -162.08880023 290.47890521 -182 325 C-182.33 325.99 -182.66 326.98 -183 328 C-179.0457735 330.34034723 -175.08596494 332.6710785 -171.125 335 C-169.43310547 336.00160156 -169.43310547 336.00160156 -167.70703125 337.0234375 C-166.63066406 337.65507812 -165.55429687 338.28671875 -164.4453125 338.9375 C-163.45031738 339.52402344 -162.45532227 340.11054688 -161.43017578 340.71484375 C-159.16351167 342.15582926 -159.16351167 342.15582926 -157 342 C-155.80297233 340.35257152 -155.80297233 340.35257152 -154.6796875 338.1953125 C-154.23085205 337.38884277 -153.7820166 336.58237305 -153.31958008 335.75146484 C-152.84286865 334.88473145 -152.36615723 334.01799805 -151.875 333.125 C-147.77763458 325.86535533 -143.5424764 319.25837961 -138 313 C-137.401875 312.26007813 -136.80375 311.52015625 -136.1875 310.7578125 C-123.54800867 295.53775835 -105.8030788 286.23630043 -87 281 C-85.35257812 280.52046875 -85.35257812 280.52046875 -83.671875 280.03125 C-56.63543752 273.36473117 -27.50901626 278.3036319 -3.52734375 291.98046875 C-0.58607983 293.88185355 2.21367843 295.87900847 5 298 C5.94230469 298.69867188 6.88460938 299.39734375 7.85546875 300.1171875 C14.6043059 305.34869988 19.89607896 311.17532844 25 318 C25.60457031 318.80179687 26.20914062 319.60359375 26.83203125 320.4296875 C31.80556093 327.27811437 35.90031354 334.60991584 40 342 C43.63260345 340.63527177 46.90961407 339.0019884 50.26171875 337.05078125 C51.28458984 336.4578125 52.30746094 335.86484375 53.36132812 335.25390625 C54.45896484 334.61324219 55.55660156 333.97257812 56.6875 333.3125 C57.84940348 332.6376662 59.01151671 331.96319344 60.17382812 331.2890625 C62.5872404 329.88892911 64.9997446 328.48724981 67.41162109 327.08447266 C72.93267055 323.87508741 78.46699451 320.68871181 84 317.5 C86.16022696 316.25402884 88.32038294 315.0079346 90.48046875 313.76171875 C91.55216309 313.14345215 92.62385742 312.52518555 93.72802734 311.88818359 C97.044382 309.97438812 100.36014721 308.05957488 103.67578125 306.14453125 C117.09706615 298.39422564 130.53500558 290.67413555 144 283 C163.72675836 318.41849796 165.78860739 357.19493294 168 397 C207.6 397 247.2 397 288 397 C280.35316644 473.46833557 258.481658 544.5224756 208 604 C207.19304688 604.99128906 206.38609375 605.98257813 205.5546875 607.00390625 C199.10187805 614.8467151 192.09658264 622.11684439 184.9375 629.3125 C184.02782471 630.23135986 183.11814941 631.15021973 182.1809082 632.09692383 C176.09343562 638.15703698 169.72131552 643.65802217 163 649 C161.76860843 650.01292627 160.53913092 651.02818888 159.3125 652.046875 C152.32331513 657.77724117 145.13642373 663.12921683 137.6875 668.25 C136.85669922 668.82331055 136.02589844 669.39662109 135.16992188 669.98730469 C134.39583984 670.51227539 133.62175781 671.03724609 132.82421875 671.578125 C132.13416748 672.04637695 131.44411621 672.51462891 130.7331543 672.99707031 C129 674 129 674 127 674 C126.67950684 673.42894531 126.35901367 672.85789062 126.02880859 672.26953125 C119.26667374 660.23307472 112.42357766 648.25006938 105.44482422 636.33789062 C100.91083843 628.58812651 96.44466483 620.80114617 92 613 C86.74996333 603.78793905 81.46587538 594.59726852 76.125 585.4375 C75.53589844 584.42623047 74.94679688 583.41496094 74.33984375 582.37304688 C72.28867339 578.862671 70.2557708 575.3836562 68 572 C62.56344956 573.0747491 58.06014468 576.20323775 53.3125 578.9375 C52.33732422 579.48857422 51.36214844 580.03964844 50.35742188 580.60742188 C49.43123047 581.13787109 48.50503906 581.66832031 47.55078125 582.21484375 C46.70169189 582.70073975 45.85260254 583.18663574 44.9777832 583.68725586 C42.86642769 584.852231 42.86642769 584.852231 42 587 C43.04600259 589.33780945 43.04600259 589.33780945 44.65625 591.96875 C45.25888672 593.00128906 45.86152344 594.03382813 46.48242188 595.09765625 C47.14822266 596.22042969 47.81402344 597.34320312 48.5 598.5 C49.18899937 599.67528434 49.87713795 600.85107369 50.56445312 602.02734375 C51.99535393 604.47463642 53.4299645 606.91969647 54.8671875 609.36328125 C58.11295777 614.88871401 61.30380917 620.44579659 64.5 626 C65.7484535 628.16420352 66.99715242 630.32826547 68.24609375 632.4921875 C70.76069436 636.85065388 73.27354661 641.21012191 75.78515625 645.5703125 C84.14258899 660.07491223 92.54924384 674.54958134 101 689 C59.99612341 721.13848432 -7.43239838 727.21670838 -57.375 728.5625 C-58.90104946 728.6058463 -60.42709122 728.64946469 -61.953125 728.69335938 C-65.63533195 728.79919287 -69.31762868 728.89949393 -73 729 C-73 738.9 -73 748.8 -73 759 C26.33834016 760.10375934 124.49124208 728.58677336 197.16796875 658.921875 C198.26407417 657.80821182 199.35445408 656.68886775 200.4375 655.5625 C202.17065598 653.82934402 204.00188648 652.26793953 205.875 650.6875 C209.78672731 647.30884877 213.17958423 643.60087591 216.58984375 639.72265625 C218.685959 637.35475944 220.82665542 635.03849364 222.99047852 632.73266602 C255.55590601 597.85877407 279.7530283 554.61482774 296 510 C296.30744141 509.16678223 296.61488281 508.33356445 296.93164062 507.47509766 C306.65962938 480.82909796 312.43785539 453.08189083 316 425 C316.13132324 423.96568848 316.26264648 422.93137695 316.39794922 421.86572266 C324.52819657 353.93881734 310.65940061 285.03152497 283 223 C282.63519531 222.17258301 282.27039063 221.34516602 281.89453125 220.49267578 C277.03252952 209.51824372 271.28888681 199.21741326 265 189 C264.40445313 188.02675781 263.80890625 187.05351562 263.1953125 186.05078125 C255.16898759 173.20482105 246.41662454 160.85910953 237 149 C235.89205078 147.60007813 235.89205078 147.60007813 234.76171875 146.171875 C229.91980076 140.1517283 224.81157162 134.4356041 219.55859375 128.77734375 C217.4704719 126.51069545 215.43993504 124.21667109 213.4375 121.875 C207.56602881 115.11859416 201.1619747 108.8221119 194.3515625 103.015625 C192.49160694 101.42137738 190.66005979 99.80640854 188.8359375 98.171875 C173.66319106 84.66366687 157.1389583 72.88198994 140 62 C139.18257324 61.48083008 138.36514648 60.96166016 137.52294922 60.42675781 C94.20664562 33.22487981 44.17577968 16.3923046 -6.3125 9.1875 C-7.41934647 9.02938339 -7.41934647 9.02938339 -8.54855347 8.86807251 C-24.8756872 6.56526203 -40.96230957 5.76009017 -57.4375 5.75 C-58.43143768 5.74932526 -59.42537537 5.74865051 -60.44943237 5.74795532 C-77.48051774 5.76623397 -94.12298261 6.54726796 -111 9 Z " fill="#FFFFFF" transform="translate(509,68)"/>
<path d="M0 0 C3 2 3 2 4 5 C4.15348123 7.18568634 4.27409195 9.37375634 4.375 11.5625 C5.13514947 22.57899455 7.5072215 30.60946998 15.48828125 38.46484375 C19.21059705 41.50365739 23.16671708 42.77911139 27.74609375 44.140625 C28.91712646 44.49157227 30.08815918 44.84251953 31.29467773 45.20410156 C32.18743408 45.46674805 33.08019043 45.72939453 34 46 C33.98428955 44.25928223 33.98428955 44.25928223 33.96826172 42.48339844 C33.93204017 38.17467335 33.90909164 33.86596171 33.89013672 29.55712891 C33.88008407 27.69284806 33.86643995 25.82858297 33.84912109 23.96435547 C33.82484047 21.28348909 33.81350953 18.60283134 33.8046875 15.921875 C33.79436493 15.08944275 33.78404236 14.2570105 33.77340698 13.39935303 C33.77197741 6.01306082 33.77197741 6.01306082 36 3 C38.87470493 1.56264754 40.81894588 1.61827351 44 2 C46.3239928 4.09791838 47.79103564 5.81437284 48.34533691 8.9593811 C48.46281982 11.32311479 48.44966821 13.65361226 48.390625 16.01953125 C48.38496521 16.87810226 48.37930542 17.73667328 48.37347412 18.6212616 C48.35115787 21.3522516 48.30097167 24.08190939 48.25 26.8125 C48.2299288 28.66860079 48.21167911 30.52472223 48.1953125 32.38085938 C48.15130881 36.92108296 48.08231521 41.46031593 48 46 C50.06631812 45.40449532 52.12953211 44.79821388 54.19140625 44.1875 C55.34068604 43.85105469 56.48996582 43.51460938 57.67407227 43.16796875 C65.47395787 40.42887657 69.7500876 36.09069877 73.5 28.8125 C76.87140846 21.51714669 77.19666326 15.55828025 77.42578125 7.53125 C78.07038065 3.56718292 78.79188723 2.33317293 82 0 C85.0625 -0.5 85.0625 -0.5 88 0 C91.05612125 3.08495258 91.43209004 5.48695378 91.4375 9.75 C91.12975738 21.64492121 88.31379039 33.42623059 81 43 C80.52175781 43.63164062 80.04351562 44.26328125 79.55078125 44.9140625 C72.95734473 52.45416371 61.75321232 57.37446461 52 59 C50.68 59 49.36 59 48 59 C48.00666183 59.70299728 48.01332367 60.40599457 48.02018738 61.1302948 C48.08037778 67.76567501 48.12601454 74.40097868 48.15543652 81.03657055 C48.17107139 84.44775761 48.19226914 87.85871849 48.22631836 91.26977539 C48.26524491 95.19414534 48.2797273 99.11842471 48.29296875 103.04296875 C48.30845261 104.26396774 48.32393646 105.48496674 48.33988953 106.7429657 C48.34011612 107.8837709 48.34034271 109.02457611 48.34057617 110.19995117 C48.34723801 111.20144699 48.35389984 112.20294281 48.36076355 113.23478699 C47.9337526 116.50777908 46.97421774 118.37174828 45 121 C42.125 122.125 42.125 122.125 39 122 C36.3959618 120.35407608 35.42279502 119.63660065 34 117 C33.29219082 112.60730992 33.41954893 108.26324315 33.51171875 103.82421875 C33.51879349 102.54392288 33.52586823 101.26362701 33.53315735 99.9445343 C33.55218286 96.55254688 33.60124162 93.16164226 33.65667725 89.77008057 C33.70796801 86.30455166 33.73069211 82.83884653 33.75585938 79.37304688 C33.8109659 72.58156313 33.89462354 65.79087971 34 59 C33.38770035 58.93918747 32.7754007 58.87837494 32.14454651 58.8157196 C31.33831345 58.7317543 30.53208038 58.647789 29.70141602 58.5612793 C28.90349136 58.47984177 28.10556671 58.39840424 27.28346252 58.3144989 C16.22627288 56.79160376 6.58030516 49.62665002 -0.3984375 41.26171875 C-8.26989467 30.14568534 -10.50597967 16.35949704 -9 3 C-6.52035544 -0.57766899 -4.19477606 -0.43695584 0 0 Z " fill="#FFFFFF" transform="translate(411,400)"/>
</svg>
