<?xml version="1.0" encoding="UTF-8"?>
<svg version="1.1" xmlns="http://www.w3.org/2000/svg" width="901" height="901">
<path d="M0 0 C0.75389008 -0.00117828 1.50778015 -0.00235657 2.28451538 -0.00357056 C7.60797245 -0.00262592 12.92796557 0.0653632 18.25 0.1875 C19.48182007 0.21546158 19.48182007 0.21546158 20.73852539 0.24398804 C33.48163904 0.57993454 45.90224424 1.86446473 58.47949219 3.92407227 C61.24680919 4.37448066 64.01730576 4.79858462 66.7890625 5.22070312 C78.84747258 7.11794193 90.40231734 9.96041117 102.07196045 13.52584839 C104.82017385 14.36070918 107.58251996 15.14124231 110.34765625 15.91796875 C149.48430448 27.2646932 185.38236684 45.3708531 219.21533203 67.83959961 C220.91997325 68.96886817 222.63637342 70.08035936 224.35546875 71.1875 C227.98163682 73.69303044 231.35350286 76.44461399 234.75 79.25 C240.64710931 84.08907631 246.59054418 88.85454374 252.64453125 93.49633789 C256.11161262 96.18405873 259.16890044 99.07151365 262.25 102.1875 C264.05648676 103.97216928 265.86382593 105.75597601 267.671875 107.5390625 C269.24429069 109.09668792 270.81571966 110.65530132 272.38671875 112.21435547 C273.45325583 113.2708857 274.52158752 114.32560772 275.59179688 115.37841797 C282.63550249 122.31111339 289.09150707 129.4395143 295.25 137.1875 C296.18463908 138.2894473 297.1259761 139.38580274 298.078125 140.47265625 C318.43443012 163.81674164 333.97356597 190.69338191 348.16625977 218.09521484 C348.89459508 219.50134994 349.6322387 220.90269895 350.37866211 222.29931641 C354.27908264 229.7847467 357.33409076 237.58626203 360.38891602 245.44384766 C361.30413959 247.79105864 362.23464641 250.13181332 363.16601562 252.47265625 C367.01022439 262.25308706 369.91639419 271.9495683 372.25 282.1875 C372.75367033 284.19278156 373.26234821 286.19681582 373.77734375 288.19921875 C379.29246214 310.2099721 383.46713051 332.54932784 385.25 355.1875 C385.36085938 356.46753906 385.47171875 357.74757813 385.5859375 359.06640625 C386.55337099 372.23134576 386.42413761 385.43324021 386.28271484 398.62548828 C386.25507235 401.63521985 386.25873555 404.64261699 386.26953125 407.65234375 C386.14080945 421.52775746 383.93487198 435.1301114 381.8125 448.8125 C381.65538544 449.82941925 381.49827087 450.8463385 381.33639526 451.89407349 C380.88017891 454.81888492 380.41337376 457.74175505 379.94140625 460.6640625 C379.73192856 461.99232811 379.73192856 461.99232811 379.51821899 463.34742737 C378.82165425 467.56012845 377.97832572 471.25796421 376.25 475.1875 C375.75078439 476.93332928 375.2822857 478.68814487 374.83984375 480.44921875 C363.94191507 522.88797873 346.71506624 562.18423224 323.25 599.1875 C322.36308472 600.60772461 322.36308472 600.60772461 321.45825195 602.05664062 C318.24190098 607.18053948 314.96291564 612.08575142 311.1875 616.8125 C310.73487793 617.38097656 310.28225586 617.94945312 309.81591797 618.53515625 C304.22198518 625.52992263 298.52307875 632.44319216 292.79003906 639.32421875 C291.78004014 640.54620857 290.78149323 641.77777448 289.79589844 643.01953125 C288.65610065 644.44365314 287.45840245 645.82110853 286.25 647.1875 C285.59 647.1875 284.93 647.1875 284.25 647.1875 C284.00846191 647.75428467 283.76692383 648.32106934 283.51806641 648.9050293 C281.99816896 651.64078617 280.1800479 653.4996634 277.9609375 655.70703125 C277.10113281 656.56490234 276.24132812 657.42277344 275.35546875 658.30664062 C274.45441406 659.19544922 273.55335938 660.08425781 272.625 661 C271.74714844 661.87720703 270.86929688 662.75441406 269.96484375 663.65820312 C264.88535926 668.70372375 259.69633222 673.54223123 254.25 678.1875 C253.27417969 679.04472656 252.29835938 679.90195312 251.29296875 680.78515625 C227.73971736 701.11634863 201.11488977 718.85405452 173.05078125 732.30859375 C170.08557118 733.73122511 167.25392795 735.32617413 164.3984375 736.95703125 C156.74347854 741.14817836 148.69098024 744.29727619 140.5625 747.4375 C139.72107452 747.76320984 138.87964905 748.08891968 138.01272583 748.42449951 C103.71374396 761.57946953 66.86736463 769.37013078 30.25 772.1875 C29.55181152 772.24389648 28.85362305 772.30029297 28.13427734 772.35839844 C15.2708921 773.35858804 2.39314501 773.37797007 -10.50195312 773.22021484 C-12.54483197 773.19963864 -14.58788985 773.19048232 -16.63085938 773.19775391 C-32.15541513 773.2499419 -47.19268897 771.13500805 -62.5 768.75 C-63.51301178 768.59288544 -64.52602356 768.43577087 -65.56973267 768.27389526 C-68.48032787 767.8179997 -71.38890672 767.35124454 -74.296875 766.87890625 C-75.17605087 766.73925446 -76.05522675 766.59960266 -76.96104431 766.45571899 C-81.15477266 765.75688862 -84.83641854 764.90542864 -88.75 763.1875 C-90.49582928 762.68828439 -92.25064487 762.2197857 -94.01171875 761.77734375 C-123.20275702 754.28132235 -151.09209784 744.11128596 -177.84179688 730.17626953 C-179.79815564 729.16254729 -181.7653285 728.17241414 -183.734375 727.18359375 C-195.91126506 720.98955203 -207.33013253 713.66767489 -218.75 706.1875 C-219.5344751 705.68057617 -220.3189502 705.17365234 -221.12719727 704.65136719 C-226.23490467 701.3150527 -230.9955807 697.70825013 -235.6875 693.8125 C-237.08433398 692.66369588 -238.48146866 691.51525729 -239.87890625 690.3671875 C-240.54422363 689.81901367 -241.20954102 689.27083984 -241.89501953 688.70605469 C-244.28117568 686.75266021 -246.70143765 684.84418886 -249.125 682.9375 C-258.08597768 675.76651418 -266.28434853 667.81653547 -274.3737793 659.6940918 C-275.9427236 658.11975845 -277.51698558 656.55088411 -279.09179688 654.98242188 C-284.52020984 649.55827993 -289.81663934 644.07173695 -294.75 638.1875 C-295.26377197 637.58043213 -295.77754395 636.97336426 -296.30688477 636.34790039 C-324.46908786 602.81343405 -345.46453916 564.45107413 -362.16873169 524.09564209 C-362.76085134 522.66587744 -363.35673438 521.23766511 -363.95651245 519.81109619 C-364.79370708 517.81180876 -365.61241071 515.80595342 -366.42578125 513.796875 C-366.89927002 512.64155273 -367.37275879 511.48623047 -367.8605957 510.29589844 C-369.31981819 505.19603 -369.31981819 505.19603 -367.75 502.1875 C-364.8566608 500.4222558 -361.75181027 499.33994324 -358.5703125 498.19921875 C-357.64660858 497.85115677 -356.72290466 497.50309479 -355.77120972 497.14448547 C-353.81597106 496.41172742 -351.85710247 495.68859425 -349.89501953 494.97436523 C-346.88719931 493.87944086 -343.89038692 492.7580593 -340.89453125 491.63085938 C-338.99537298 490.92291775 -337.09565095 490.21648626 -335.1953125 489.51171875 C-334.29523468 489.17742355 -333.39515686 488.84312836 -332.46780396 488.498703 C-331.63038666 488.19450943 -330.79296936 487.89031586 -329.93017578 487.5769043 C-329.19372833 487.30774704 -328.45728088 487.03858978 -327.69851685 486.76127625 C-325.75 486.1875 -325.75 486.1875 -322.75 486.1875 C-322.2535498 487.44518188 -322.2535498 487.44518188 -321.74707031 488.72827148 C-314.41132167 507.23803642 -306.72481531 525.39790065 -297.75 543.1875 C-297.35361328 543.98140137 -296.95722656 544.77530273 -296.54882812 545.59326172 C-287.44814199 563.73548742 -276.39141097 580.3327458 -263.75 596.1875 C-262.56277344 597.69570312 -262.56277344 597.69570312 -261.3515625 599.234375 C-251.96073153 610.96443824 -241.44859297 621.65962926 -230.75 632.1875 C-226.69567909 628.29026532 -223.14376901 624.13245243 -219.625 619.75 C-219.05515381 619.04480225 -218.48530762 618.33960449 -217.89819336 617.61303711 C-213.88008588 612.62830152 -209.92341017 607.5974809 -205.98583984 602.54907227 C-201.73505876 597.1212577 -197.3406488 591.81602885 -192.94384766 586.50634766 C-188.8410371 581.54096976 -184.82948191 576.51449097 -180.86987305 571.43457031 C-176.25861479 565.52985877 -171.52265147 559.72861126 -166.7890625 553.921875 C-163.07818284 549.368563 -159.40728947 544.78397256 -155.75 540.1875 C-152.98344582 541.47858381 -150.70037933 542.8939804 -148.3515625 544.83984375 C-147.39503784 545.62597046 -147.39503784 545.62597046 -146.41918945 546.42797852 C-145.74460693 546.98799561 -145.07002441 547.5480127 -144.375 548.125 C-142.94479166 549.30043039 -141.51378628 550.47489158 -140.08203125 551.6484375 C-139.36096191 552.23979492 -138.63989258 552.83115234 -137.89697266 553.44042969 C-133.55886176 556.97050946 -129.14530495 560.40437799 -124.73828125 563.84765625 C-122.0612866 565.94376056 -119.40059861 568.05816939 -116.75 570.1875 C-118.04108381 572.95405418 -119.4564804 575.23712067 -121.40234375 577.5859375 C-121.92562256 578.22265381 -122.44890137 578.85937012 -122.98803711 579.51538086 C-123.54885986 580.19093018 -124.10968262 580.86647949 -124.6875 581.5625 C-125.87596555 583.00832144 -127.06345009 584.45494978 -128.25 585.90234375 C-129.13945313 586.98684814 -129.13945313 586.98684814 -130.046875 588.09326172 C-132.46897891 591.07158846 -134.83084057 594.09482027 -137.1875 597.125 C-141.86936867 603.13013665 -146.69989717 609.00412359 -151.55615234 614.86865234 C-155.6589629 619.83403024 -159.67051809 624.86050903 -163.63012695 629.94042969 C-167.1784805 634.48409282 -170.79634276 638.96795071 -174.4375 643.4375 C-174.98647949 644.11208252 -175.53545898 644.78666504 -176.10107422 645.48168945 C-178.49119378 648.41757582 -180.88395179 651.35121885 -183.28125 654.28125 C-183.9928125 655.1578125 -184.704375 656.034375 -185.4375 656.9375 C-186.03949219 657.67484375 -186.64148438 658.4121875 -187.26171875 659.171875 C-188.69153131 661.10831406 -189.75103533 663.00257234 -190.75 665.1875 C-190.04746094 665.43757812 -189.34492188 665.68765625 -188.62109375 665.9453125 C-185.39368553 667.34166055 -182.72811709 669.09472876 -179.8125 671.0625 C-107.23203382 718.69835097 -16.2118145 732.80942679 68.25 716.1875 C75.51220911 714.58905376 82.7099399 712.76526196 89.87353516 710.77246094 C92.64670226 710.08985272 95.42928027 709.62834882 98.25 709.1875 C97.89510498 708.29297119 97.54020996 707.39844238 97.17456055 706.47680664 C88.36420854 684.25873744 79.66127532 662.00051419 71.0378418 639.70922852 C70.65925522 638.73114731 70.28066864 637.7530661 69.89060974 636.74534607 C69.14162345 634.80878081 68.39385062 632.87174574 67.64735413 630.93421936 C65.68235522 625.84313857 63.68515505 620.76743943 61.64355469 615.70654297 C61.22073212 614.65063461 60.79790955 613.59472626 60.36227417 612.50682068 C59.54859103 610.47799763 58.72738663 608.45217059 57.8977356 606.42982483 C57.53557953 605.52348801 57.17342346 604.61715118 56.80029297 603.68334961 C56.47608368 602.88545517 56.15187439 602.08756073 55.81784058 601.26548767 C55.25 599.1875 55.25 599.1875 56.25 596.1875 C58.6640625 594.96411133 58.6640625 594.96411133 61.875 593.76953125 C63.04788574 593.32432129 64.22077148 592.87911133 65.42919922 592.42041016 C66.05276306 592.18896301 66.6763269 591.95751587 67.31878662 591.71905518 C70.55965543 590.51237159 73.7830953 589.26079249 77.0078125 588.01171875 C77.64397491 587.76599121 78.28013733 587.52026367 78.93557739 587.26708984 C100.00156992 579.09963092 120.07952652 567.93707121 137.25 553.1875 C138.21679688 552.35992188 139.18359375 551.53234375 140.1796875 550.6796875 C144.28594139 547.07332539 147.90837886 543.52707134 151.25 539.1875 C150.66009277 538.91220459 150.07018555 538.63690918 149.46240234 538.35327148 C147.3481876 537.23923756 145.68683658 536.05557816 143.8515625 534.53515625 C143.21476563 534.01179687 142.57796875 533.4884375 141.921875 532.94921875 C141.24640625 532.38847656 140.5709375 531.82773437 139.875 531.25 C138.43046525 530.06285508 136.98513907 528.87667258 135.5390625 527.69140625 C134.8162207 527.09859863 134.09337891 526.50579102 133.34863281 525.89501953 C130.3466513 523.45250456 127.30256619 521.06627773 124.25 518.6875 C118.50861793 514.20548082 112.85110731 509.62704759 107.20874023 505.02124023 C102.94688973 501.54856422 98.64865421 498.12928291 94.3125 494.75 C88.22713439 490.0035902 82.26356696 485.11768541 76.32055664 480.19458008 C71.58062894 476.27005329 66.79702047 472.41660374 61.9375 468.640625 C60.25 467.1875 60.25 467.1875 59.25 465.1875 C60.26707031 463.89779297 60.26707031 463.89779297 61.3046875 462.58203125 C63.26546393 460.0947599 65.21799394 457.60121362 67.16796875 455.10546875 C69.05966537 452.68813679 70.97395779 450.29475483 72.92578125 447.92578125 C88.83276636 428.38702247 96.97519672 403.78891708 94.91967773 378.52880859 C92.01136795 352.33261344 79.61278943 328.02387139 58.9921875 311.36328125 C38.10786291 296.02743234 15.21814368 292.14968629 -9.75 288.1875 C-9.14896245 277.64622606 -7.42388577 267.33579864 -5.6875 256.9375 C-5.4025617 255.20970678 -5.11805332 253.48184261 -4.83398438 251.75390625 C-4.14427107 247.56427055 -3.44876663 243.37563485 -2.75 239.1875 C40.60563811 244.38470583 84.0630164 257.72180928 112.0703125 293.26953125 C114.53170234 296.56461765 116.94855941 299.88440548 119.3125 303.25 C119.70719482 303.81058105 120.10188965 304.37116211 120.50854492 304.94873047 C123.25 308.94199994 123.25 308.94199994 123.25 311.1875 C134.81459 306.86350093 146.36610446 302.50555369 157.90698242 298.11865234 C159.77280207 297.40993904 161.63901862 296.70226987 163.50561523 295.99560547 C166.25337481 294.95524041 168.9998547 293.91155866 171.74609375 292.8671875 C172.56814804 292.5566745 173.39020233 292.2461615 174.23716736 291.92623901 C179.66017224 289.85851517 184.96972785 287.59609707 190.25 285.1875 C184.38608392 274.16912928 177.92359838 264.03227702 170.25 254.1875 C169.49847656 253.22199219 168.74695313 252.25648438 167.97265625 251.26171875 C159.91251307 241.1901836 151.28538416 231.33265769 141.25 223.1875 C140.19767136 222.29976988 139.14561339 221.41171885 138.09375 220.5234375 C123.81667605 208.62587588 108.16156828 198.87963853 91.25 191.1875 C90.51845703 190.85266602 89.78691406 190.51783203 89.03320312 190.17285156 C71.11915108 182.06815087 52.59804579 176.61876505 33.25 173.1875 C31.36474609 172.8471875 31.36474609 172.8471875 29.44140625 172.5 C-25.15316591 164.45330769 -82.80103616 179.37413356 -127.19140625 211.77807617 C-133.2813908 216.31739696 -139.09399421 221.05184981 -144.63671875 226.25 C-146.92356159 228.34662486 -149.30974573 230.2729047 -151.75 232.1875 C-146.17420742 237.33552014 -140.37734434 242.11401473 -134.39355469 246.77124023 C-129.84386144 250.31611914 -125.34657341 253.91962253 -120.875 257.5625 C-120.20927979 258.10463135 -119.54355957 258.6467627 -118.85766602 259.20532227 C-116.14027659 261.41996359 -113.4246714 263.63678736 -110.70898438 265.85351562 C-103.20848504 271.97329025 -95.68635583 278.05599739 -88.05395508 284.01074219 C-82.75271163 288.15750604 -77.53698562 292.40685327 -72.34179688 296.68554688 C-68.25611091 300.03219817 -64.07840027 303.16041233 -59.75 306.1875 C-61.03618154 309.88607181 -62.47623917 312.25541498 -65.1875 315.0625 C-82.5335131 334.07700438 -93.59339344 355.36812706 -95.75 381.1875 C-95.8221875 382.00992187 -95.894375 382.83234375 -95.96875 383.6796875 C-97.01952444 408.98583849 -86.3548861 433.63625363 -69.75 452.1875 C-69.21117187 452.80882812 -68.67234375 453.43015625 -68.1171875 454.0703125 C-48.99818009 474.72652653 -22.77104211 479.87753868 3.85253906 483.77026367 C6.25 484.1875 6.25 484.1875 9.25 485.1875 C8.02726389 496.08394052 6.61018346 506.92691888 4.92749023 517.76342773 C4.70197124 519.23061369 4.47670878 520.69783911 4.25167847 522.1651001 C3.64920248 526.08809556 3.04296442 530.0105003 2.43577456 533.93276858 C1.92745773 537.21883641 1.42109847 540.5052047 0.91473538 543.79157406 C-0.27833901 551.53472734 -1.47443829 559.27740895 -2.67260742 567.01977539 C-3.90804522 575.00325377 -5.13877756 582.98744749 -6.36718708 590.97201008 C-7.4254891 597.84999123 -8.48640321 604.72756581 -9.54949421 611.60480839 C-10.18305928 615.70347233 -10.81568459 619.80227549 -11.44589424 623.90145683 C-12.03631354 627.74093027 -12.6299959 631.57988489 -13.22624588 635.41845703 C-13.4447027 636.8284367 -13.66200121 638.23859637 -13.87807655 639.64894295 C-14.17228328 641.56803171 -14.47102967 643.4864229 -14.77003479 645.4047699 C-15.01917051 647.0170505 -15.01917051 647.0170505 -15.27333927 648.66190243 C-15.75 651.1875 -15.75 651.1875 -16.75 653.1875 C-21.49663543 652.51298827 -26.24312843 651.83748509 -30.98950195 651.16113281 C-32.5981888 650.93203091 -34.20691171 650.70318209 -35.81567383 650.47460938 C-45.46993536 649.1027355 -55.11558154 647.69332366 -64.75 646.1875 C-64.23102468 634.90753243 -62.43353584 623.84562796 -60.68113518 612.70545959 C-60.14301403 609.28443772 -59.61100976 605.8625113 -59.08045959 602.44030762 C-57.9550072 595.18850412 -56.82144477 587.93797954 -55.6875 580.6875 C-54.36952413 572.25317712 -53.05488852 563.81834809 -51.74597359 555.38261414 C-51.2218145 552.01355483 -50.69295027 548.64525649 -50.1638031 545.27697754 C-49.84328876 543.21658491 -49.52297064 541.15616175 -49.20288086 539.09570312 C-49.05484009 538.16162628 -48.90679932 537.22754944 -48.75427246 536.26516724 C-48.62109116 535.40200897 -48.48790985 534.53885071 -48.35069275 533.64953613 C-48.23400207 532.90409798 -48.11731138 532.15865982 -47.99708462 531.39063263 C-47.72603445 528.9738109 -47.70892646 526.61747747 -47.75 524.1875 C-49.11318359 523.67703125 -49.11318359 523.67703125 -50.50390625 523.15625 C-81.94761074 511.14347837 -106.62856945 490.56134741 -124.75 462.1875 C-142.5408519 468.87376264 -160.2791889 475.6929812 -178 482.5625 C-179.05245911 482.97018616 -180.10491821 483.37787231 -181.18927002 483.7979126 C-191.84150152 487.92539453 -202.48718978 492.06692631 -213.09765625 496.30078125 C-213.87706573 496.61108276 -214.65647522 496.92138428 -215.45950317 497.24108887 C-219.02835901 498.66226771 -222.59437645 500.08975553 -226.15527344 501.53076172 C-227.9907373 502.26383545 -227.9907373 502.26383545 -229.86328125 503.01171875 C-231.43783081 503.64726685 -231.43783081 503.64726685 -233.04418945 504.2956543 C-235.75 505.1875 -235.75 505.1875 -239.75 505.1875 C-243.09468309 496.85868251 -246.425823 488.52452109 -249.75 480.1875 C-250.1330127 479.22972656 -250.51602539 478.27195312 -250.91064453 477.28515625 C-251.90423057 474.79639453 -252.89091367 472.30503028 -253.875 469.8125 C-254.16963135 469.07725098 -254.4642627 468.34200195 -254.76782227 467.58447266 C-255.92649126 464.63122385 -256.75 462.39067086 -256.75 459.1875 C-254.9083728 458.47339966 -254.9083728 458.47339966 -253.02954102 457.74487305 C-252.20487839 457.42510498 -251.38021576 457.10533691 -250.53056335 456.77587891 C-248.64019517 456.04288091 -246.74982438 455.30988963 -244.85945129 454.5769043 C-239.46890373 452.48672668 -234.07840497 450.39642332 -228.68798828 448.3059082 C-218.28263446 444.27063725 -207.87702345 440.2360389 -197.46965027 436.20597839 C-193.07554612 434.50439496 -188.68167132 432.80221975 -184.28781128 431.1000061 C-182.20225238 430.29223664 -180.11658187 429.48475528 -178.03079224 428.67758179 C-166.57747693 424.24517133 -155.13824627 419.78492767 -143.75 415.1875 C-143.81058594 414.5891333 -143.87117187 413.9907666 -143.93359375 413.37426758 C-147.51635371 377.50188343 -143.10915097 347.87666644 -127.75 315.1875 C-128.33990723 314.91220459 -128.92981445 314.63690918 -129.53759766 314.35327148 C-131.6518124 313.23923756 -133.31316342 312.05557816 -135.1484375 310.53515625 C-135.78515381 310.01187744 -136.42187012 309.48859863 -137.07788086 308.94946289 C-137.75343018 308.38864014 -138.42897949 307.82781738 -139.125 307.25 C-140.57082144 306.06153445 -142.01744978 304.87404991 -143.46484375 303.6875 C-144.54934814 302.79804687 -144.54934814 302.79804687 -145.65576172 301.890625 C-148.63408846 299.46852109 -151.65732027 297.10665943 -154.6875 294.75 C-160.69263665 290.06813133 -166.56662359 285.23760283 -172.43115234 280.38134766 C-177.39935149 276.27620595 -182.42853128 272.26216183 -187.51171875 268.30078125 C-191.97089276 264.81896045 -196.36735771 261.26503856 -200.75 257.6875 C-208.01137347 251.76093132 -215.35845518 245.9505951 -222.75 240.1875 C-221.46119914 236.48780797 -220.00659021 234.07851467 -217.3125 231.25 C-213.78070294 227.40469197 -210.51406574 223.43102987 -207.3125 219.3125 C-206.36984173 218.10542965 -205.4271336 216.89839824 -204.484375 215.69140625 C-204.02482422 215.10246582 -203.56527344 214.51352539 -203.09179688 213.90673828 C-193.16052882 201.18184934 -193.16052882 201.18184934 -186.9453125 196.0390625 C-184.30338653 193.81081888 -181.8237969 191.43694148 -179.3125 189.0625 C-163.9888121 174.84854369 -146.49668083 163.12327985 -128.2109375 153.09765625 C-124.28317361 150.92984977 -120.4822471 148.67566473 -116.75 146.1875 C-115.4751799 145.6065399 -114.18443492 145.05988448 -112.88378906 144.53930664 C-112.1115802 144.22880875 -111.33937134 143.91831085 -110.54376221 143.59840393 C-109.70947693 143.2681572 -108.87519165 142.93791046 -108.015625 142.59765625 C-107.1454071 142.25246445 -106.27518921 141.90727264 -105.37860107 141.55162048 C-103.53008462 140.82080757 -101.68071463 140.09215048 -99.83056641 139.36547852 C-97.04769365 138.26879527 -94.27200027 137.15519034 -91.49609375 136.04101562 C-81.28149846 131.99377181 -71.6317363 128.91339323 -60.75 127.1875 C-58.92798596 126.83018419 -57.10747602 126.46505305 -55.2890625 126.08984375 C-53.65115481 125.76765344 -52.01313707 125.44602202 -50.375 125.125 C-49.18777344 124.88426758 -49.18777344 124.88426758 -47.9765625 124.63867188 C-33.11698828 121.74802033 -18.04729343 120.60322055 -2.9375 120.125 C-1.58040421 120.08005905 -1.58040421 120.08005905 -0.19589233 120.03421021 C21.71081747 119.41757336 42.81949955 122.98369902 64.25 127.1875 C64.25 127.8475 64.25 128.5075 64.25 129.1875 C65.33796875 129.2803125 66.4259375 129.373125 67.546875 129.46875 C73.08849758 130.169359 78.22517274 131.90159845 83.5 133.6875 C84.55340576 134.04279785 85.60681152 134.3980957 86.69213867 134.76416016 C105.8219468 141.36601154 126.05001614 150.01985224 142.4609375 162.03125 C144.24972927 163.28765431 144.24972927 163.28765431 146.51171875 163.97265625 C150.44301636 165.71678401 153.41168843 168.37125852 156.6875 171.125 C158.10984105 172.30179246 159.53303492 173.47755483 160.95703125 174.65234375 C162.02945068 175.53962158 162.02945068 175.53962158 163.12353516 176.44482422 C166.88379829 179.52642677 170.71969983 182.51039043 174.55639648 185.49584961 C185.02906076 193.66564101 185.02906076 193.66564101 188.5 197.8125 C191.21036237 201.00220593 194.01177905 204.07182426 196.875 207.125 C203.51871054 214.40772392 209.37811084 222.27876072 215.25 230.1875 C216.22066406 231.47914063 216.22066406 231.47914063 217.2109375 232.796875 C224.2189897 242.43721997 230.74784452 253.02543429 235.984375 263.734375 C237.00938109 266.31295145 237.00938109 266.31295145 239.25 267.1875 C240.07774353 268.8147583 240.07774353 268.8147583 240.89819336 270.95019531 C241.3639402 272.1484494 241.3639402 272.1484494 241.83909607 273.37091064 C242.1693428 274.24366638 242.49958954 275.11642212 242.83984375 276.015625 C243.18503555 276.91561218 243.53022736 277.81559937 243.88587952 278.74285889 C244.61813204 280.65827826 245.34673764 282.57509511 246.07202148 284.49316406 C247.16874069 287.3879843 248.28169503 290.27616119 249.39648438 293.1640625 C253.05924754 302.73899613 256.34372905 312.0850323 258.25 322.1875 C258.68675928 324.22309563 259.12557765 326.2582505 259.56640625 328.29296875 C259.98375489 330.31990499 260.39912578 332.34724948 260.8125 334.375 C261.02068359 335.35791016 261.22886719 336.34082031 261.44335938 337.35351562 C264.48652959 352.32133403 265.65837743 367.31107658 265.625 382.5625 C265.62578552 383.33988525 265.62657104 384.11727051 265.62738037 384.91821289 C265.60087899 407.19967482 262.77153463 429.21464056 259.25 451.1875 C250.23850797 450.60583337 241.38042715 449.41314688 232.46533203 448.03076172 C230.22627312 447.68382356 227.98628956 447.34341842 225.74609375 447.00390625 C213.88206447 445.18929108 213.88206447 445.18929108 210.25 444.1875 C210.8018166 435.33940625 211.93662803 426.59285145 213.14575195 417.81420898 C217.09171361 388.68806385 215.14181427 360.84412793 209.25 332.1875 C202.54585161 334.78235786 195.84221726 337.37854043 189.13891602 339.97558594 C186.86494186 340.85641514 184.59085602 341.7369561 182.31665039 342.6171875 C179.02199381 343.89244494 175.72773231 345.16871761 172.43359375 346.4453125 C171.36845551 346.85759094 170.30331726 347.26986938 169.2059021 347.69464111 C164.5979733 349.48206711 159.99575695 351.27891273 155.41845703 353.14355469 C154.36719383 353.5713472 154.36719383 353.5713472 153.29469299 354.00778198 C151.50425372 354.74059349 149.71693572 355.48101891 147.92993164 356.22216797 C145.25 357.1875 145.25 357.1875 142.25 357.1875 C142.38277344 357.83332031 142.51554688 358.47914063 142.65234375 359.14453125 C148.45770083 390.12056061 145.05438458 425.80413104 128.80664062 453.36108398 C128.03190689 455.2467932 128.03190689 455.2467932 129.01904297 457.29931641 C130.64056246 459.78658966 132.54056151 461.28777575 134.875 463.125 C135.86113281 463.91003906 136.84726562 464.69507813 137.86328125 465.50390625 C138.40549316 465.93203613 138.94770508 466.36016602 139.50634766 466.80126953 C142.03422461 468.81097065 144.53067904 470.85848934 147.03076172 472.90258789 C153.28645002 478.01342961 159.59348646 483.05136452 165.96020508 488.02294922 C171.12563967 492.06622509 176.2097668 496.20578829 181.29125977 500.35375977 C185.55310734 503.8264334 189.85124892 507.24584376 194.1875 510.625 C200.40682614 515.47329259 206.49761851 520.47024541 212.56616211 525.50561523 C213.24815674 526.07094971 213.93015137 526.63628418 214.6328125 527.21875 C215.23496582 527.71955078 215.83711914 528.22035156 216.45751953 528.73632812 C218.35284685 530.27076364 220.29082465 531.73577965 222.25 533.1875 C220.95891619 535.95405418 219.5435196 538.23712067 217.59765625 540.5859375 C217.07357178 541.22362061 216.5494873 541.86130371 216.00952148 542.51831055 C215.44950439 543.19289307 214.8894873 543.86747559 214.3125 544.5625 C213.13706961 545.99270834 211.96260842 547.42371372 210.7890625 548.85546875 C210.19770508 549.57653809 209.60634766 550.29760742 208.99707031 551.04052734 C205.46699054 555.37863824 202.03312201 559.79219505 198.58984375 564.19921875 C197.81769531 565.18535156 197.04554688 566.17148437 196.25 567.1875 C195.26193359 568.52748047 195.26193359 568.52748047 194.25390625 569.89453125 C192.09511747 572.36472426 190.05346902 573.51628151 187.25 575.1875 C185.21758294 577.15561776 183.25786936 579.13805861 181.3125 581.1875 C174.77379075 587.88740432 167.76465543 593.62440559 160.25 599.1875 C159.67636719 599.61659668 159.10273437 600.04569336 158.51171875 600.48779297 C149.76670416 607.00460548 140.67929805 612.71358676 131.25 618.1875 C129.09618664 619.44372323 126.94255072 620.70025072 124.7890625 621.95703125 C122.94273065 623.03389244 121.09638411 624.11072842 119.25 625.1875 C119.47470978 625.75331787 119.69941956 626.31913574 119.93093872 626.90209961 C122.30180857 632.87281381 124.67052857 638.84437781 127.03808594 644.81640625 C127.91808561 647.03536817 128.79860565 649.25412381 129.6796875 651.47265625 C134.6549746 664.00133377 139.5910122 676.53729943 144.25 689.1875 C147.58541647 689.1875 148.90707434 688.53033312 151.8359375 687.01953125 C152.75608643 686.54523682 153.67623535 686.07094238 154.62426758 685.58227539 C155.61450928 685.06012451 156.60475098 684.53797363 157.625 684 C158.65069092 683.46044678 159.67638184 682.92089355 160.7331543 682.36499023 C182.8271906 670.59044618 203.4473233 656.72318731 222.25 640.1875 C222.98347656 639.55328125 223.71695313 638.9190625 224.47265625 638.265625 C226.41043207 636.58596246 228.33270354 634.89048787 230.25 633.1875 C231.05050781 632.47980469 231.85101562 631.77210938 232.67578125 631.04296875 C240.75307039 623.84817554 248.16608286 616.35274195 255.25 608.1875 C255.77311768 607.59235596 256.29623535 606.99721191 256.83520508 606.3840332 C272.68204321 588.26359535 286.34637388 567.64443494 297.25 546.1875 C297.71567383 545.28451172 298.18134766 544.38152344 298.66113281 543.45117188 C306.99064828 527.18182588 313.57999369 510.55487226 319.25 493.1875 C319.55131836 492.27081543 319.85263672 491.35413086 320.16308594 490.40966797 C325.34280114 474.35499122 328.44756222 457.79501812 331.25 441.1875 C331.52336182 439.60146973 331.52336182 439.60146973 331.80224609 437.98339844 C337.15008563 405.38552281 336.84370416 368.72271686 331.25 336.1875 C331.04600586 334.96836914 330.84201172 333.74923828 330.63183594 332.49316406 C319.81836371 269.26504478 294.02615054 209.42173503 251.25 161.1875 C250.38117187 160.2078125 249.51234375 159.228125 248.6171875 158.21875 C238.22137251 146.70152056 227.45769706 135.7935567 215.25 126.1875 C213.54111141 124.75066013 211.83279321 123.31314165 210.125 121.875 C198.26281325 112.1926168 185.54521036 103.75422744 172.25 96.1875 C171.46592773 95.73407227 170.68185547 95.28064453 169.87402344 94.81347656 C92.76137209 50.39730147 -1.31363623 38.76176295 -87.1796875 61.07421875 C-135.99762484 74.29683822 -184.76063801 98.17466881 -221.75 133.1875 C-223.05673863 134.33989942 -224.36912858 135.4859271 -225.6875 136.625 C-236.30230953 145.81286962 -236.30230953 145.81286962 -245.8984375 156.02734375 C-248.14026547 158.64280971 -250.51005728 161.12034165 -252.875 163.625 C-269.38496178 181.42480254 -282.68378913 202.21374983 -294.75 223.1875 C-295.15460449 223.8892334 -295.55920898 224.5909668 -295.97607422 225.31396484 C-311.16957002 251.9884306 -321.04830611 281.5804858 -328.75 311.1875 C-327.74594746 311.26852211 -327.74594746 311.26852211 -326.72161102 311.35118103 C-320.1014559 311.91491245 -313.5657326 312.73247508 -307.00195312 313.75390625 C-305.485215 313.98580154 -305.485215 313.98580154 -303.93783569 314.22238159 C-300.63511811 314.72825067 -297.33317306 315.23897269 -294.03125 315.75 C-291.72248656 316.10511864 -289.41368879 316.46001419 -287.1048584 316.81469727 C-282.28669352 317.55562824 -277.46889921 318.29891091 -272.65136719 319.04394531 C-266.47028268 319.99970728 -260.28838206 320.95006696 -254.1062088 321.89875793 C-249.34824529 322.62940684 -244.59067992 323.36262085 -239.83323669 324.09664917 C-237.55272191 324.44824431 -235.27209261 324.79909749 -232.99134827 325.14920044 C-229.81479215 325.63726038 -226.63877796 326.12870339 -223.46289062 326.62109375 C-222.51848114 326.76553925 -221.57407166 326.90998474 -220.6010437 327.05880737 C-219.73774445 327.19336334 -218.87444519 327.32791931 -217.98498535 327.46655273 C-217.23510597 327.58232162 -216.48522659 327.69809052 -215.7126236 327.81736755 C-213.75 328.1875 -213.75 328.1875 -210.75 329.1875 C-212.40770674 345.61611604 -215.1542261 361.88779561 -217.75 378.1875 C-250.62088189 373.46702031 -283.44174225 368.42716682 -316.25892437 363.34962189 C-321.93742188 362.47122498 -327.61632518 361.59547343 -333.29531747 360.72028178 C-338.84711437 359.86461352 -344.39868706 359.00750188 -349.95007628 358.14919263 C-353.23364809 357.64152095 -356.51731977 357.13451351 -359.801157 356.62856102 C-363.41955698 356.07081603 -367.03758279 355.51070473 -370.65551758 354.94995117 C-371.72686447 354.78530869 -372.79821136 354.6206662 -373.90202332 354.45103455 C-374.88321136 354.29846191 -375.86439941 354.14588928 -376.87532043 353.98869324 C-378.15047878 353.79159649 -378.15047878 353.79159649 -379.4513979 353.590518 C-381.58495121 353.2164383 -383.65715638 352.74292115 -385.75 352.1875 C-385.1219869 342.10844503 -383.67470021 332.20855646 -382.0625 322.25 C-381.92994812 321.4291391 -381.79739624 320.6082782 -381.66082764 319.76254272 C-379.71289428 307.82880071 -377.3351735 296.27549142 -373.57275391 284.76513672 C-372.65505733 281.89005052 -371.81498595 278.99795293 -370.98046875 276.09765625 C-359.80646964 237.69319538 -342.42739845 201.06251431 -319.73828125 168.11328125 C-317.78104932 165.31266011 -317.78104932 165.31266011 -316.35546875 162.7578125 C-314.11533168 159.17141301 -311.44375339 156.00319801 -308.75 152.75 C-307.58369333 151.32889765 -306.41834668 149.90700693 -305.25390625 148.484375 C-304.66883301 147.76958984 -304.08375977 147.05480469 -303.48095703 146.31835938 C-299.95935555 141.98316364 -296.52836177 137.57689831 -293.08984375 133.17578125 C-292.31769531 132.18964844 -291.54554688 131.20351562 -290.75 130.1875 C-289.85474609 128.97126953 -289.85474609 128.97126953 -288.94140625 127.73046875 C-286.49454223 124.8910597 -283.81440211 122.58742545 -280.97119141 120.15527344 C-276.93015976 116.57528717 -273.21521399 112.66591355 -269.4375 108.8125 C-262.81716496 102.12714097 -256.17866018 95.96148977 -248.75 90.1875 C-246.89289454 88.60761463 -245.03890671 87.0240597 -243.1875 85.4375 C-223.36498614 68.91873845 -201.35811192 55.50042226 -178.75 43.1875 C-178.08209442 42.81705566 -177.41418884 42.44661133 -176.7260437 42.06494141 C-165.21793879 35.6967009 -153.5731942 30.41168089 -141.2512207 25.81689453 C-138.54716128 24.80677009 -135.85257874 23.7739235 -133.15820312 22.73828125 C-122.79628915 18.79868933 -112.56421808 15.62596393 -101.75 13.1875 C-99.70742942 12.68202413 -97.6656965 12.17314577 -95.625 11.66015625 C-64.08901956 3.99993831 -32.45100285 0.03828177 0 0 Z M-52.75 13.1875 C-53.90097168 13.35378906 -55.05194336 13.52007812 -56.23779297 13.69140625 C-81.99284319 17.56272904 -107.27034996 24.32356713 -131.75 33.1875 C-132.53262207 33.46948242 -133.31524414 33.75146484 -134.12158203 34.04199219 C-144.2209609 37.72097672 -153.86125836 41.98169209 -163.38232422 46.9609375 C-166.08812385 48.36266336 -168.81105607 49.7279404 -171.53515625 51.09375 C-198.00861098 64.46796153 -222.44643621 80.61564071 -244.75 100.1875 C-245.45898438 100.79722656 -246.16796875 101.40695313 -246.8984375 102.03515625 C-259.9265702 113.28189121 -272.61034561 125.04546972 -283.75 138.1875 C-284.64979472 139.21333467 -285.55096115 140.23796698 -286.453125 141.26171875 C-308.10263394 165.95657311 -324.98313111 193.96381391 -339.75 223.1875 C-340.13575195 223.94820801 -340.52150391 224.70891602 -340.91894531 225.49267578 C-353.64897836 250.82932051 -362.19969828 278.31193043 -368.5625 305.875 C-368.8404541 307.059729 -369.1184082 308.24445801 -369.40478516 309.46508789 C-371.15491402 317.33853737 -372.33478076 325.1965446 -373.34643555 333.19458008 C-373.48256004 334.25496742 -373.61868454 335.31535477 -373.75893402 336.40787506 C-374.09147884 339.00081172 -374.42178128 341.5940128 -374.75 344.1875 C-356.35739867 347.06240602 -337.96385806 349.93122704 -319.5691824 352.79283142 C-311.02800977 354.12170083 -302.48715454 355.45255049 -293.94702148 356.78808594 C-286.50239741 357.95229674 -279.05720163 359.11276788 -271.6112991 360.26877499 C-267.66974405 360.88085075 -263.72849808 361.4947797 -259.78793144 362.1131897 C-256.07624568 362.69561989 -252.3638136 363.27303312 -248.65075874 363.84666824 C-246.64409834 364.15799824 -244.63825621 364.47458817 -242.63244629 364.79135132 C-236.95080757 365.66457254 -231.50171343 366.46294983 -225.75 366.1875 C-225.07966495 361.91723398 -224.41435894 357.64619951 -223.75 353.375 C-223.55921875 352.16005859 -223.3684375 350.94511719 -223.171875 349.69335938 C-222.99140625 348.52998047 -222.8109375 347.36660156 -222.625 346.16796875 C-222.37363281 344.55764771 -222.37363281 344.55764771 -222.1171875 342.91479492 C-221.68328478 340.15062123 -221.68328478 340.15062123 -221.75 337.1875 C-232.01918147 335.57879039 -242.28837391 333.97015083 -252.55757904 332.36159229 C-257.32989497 331.61405919 -262.10220761 330.86650505 -266.87451172 330.11889648 C-267.79356796 329.97492495 -268.71262421 329.83095341 -269.65953064 329.68261909 C-271.50829865 329.39299943 -273.35706371 329.10336093 -275.20582581 328.81370354 C-279.78563779 328.09621133 -284.36552158 327.37918338 -288.94555664 326.66311646 C-296.67126994 325.4549535 -304.39676428 324.24572427 -312.11956024 323.01902866 C-315.12139169 322.54236181 -318.12355285 322.06779206 -321.12574768 321.59342003 C-322.50518798 321.37480483 -323.88445536 321.15509534 -325.26353455 320.93421364 C-327.13814561 320.63399798 -329.01339324 320.33776514 -330.88867188 320.04174805 C-331.93148315 319.87563522 -332.97429443 319.7095224 -334.04870605 319.53837585 C-336.95711513 319.10162688 -336.95711513 319.10162688 -340.75 319.1875 C-325.6066523 255.22801905 -298.15210512 198.88658304 -253.75 150.1875 C-252.89792969 149.23101562 -252.04585938 148.27453125 -251.16796875 147.2890625 C-244.75223127 140.1197599 -237.9846187 133.52636048 -230.75 127.1875 C-230.24243164 126.74051758 -229.73486328 126.29353516 -229.21191406 125.83300781 C-159.96265874 65.14706734 -68.60470131 35.30097494 23 40.875 C94.83136417 45.8825205 164.33737753 71.55616278 220.25 117.1875 C220.77674316 117.6098291 221.30348633 118.0321582 221.84619141 118.46728516 C230.42129694 125.36713051 238.2659244 132.99625161 246.0625 140.75 C246.79471268 141.47431213 246.79471268 141.47431213 247.54171753 142.21325684 C254.24077965 148.85635365 260.40286578 155.78075666 266.25 163.1875 C266.85529541 163.93878174 267.46059082 164.69006348 268.08422852 165.46411133 C276.52265259 175.94777853 284.22881074 186.70744442 291.25 198.1875 C291.68296387 198.89261719 292.11592773 199.59773437 292.56201172 200.32421875 C298.29612913 209.71781953 303.52771624 219.28427008 308.29101562 229.20458984 C309.23308454 231.15252359 310.20007915 233.08628828 311.171875 235.01953125 C351.12974979 315.68768872 355.44716103 414.48488503 326.34979248 503.81967163 C307.89198344 558.27467124 274.56223426 611.94535418 228.97265625 648.0234375 C226.12933895 650.28340563 223.38253964 652.6363946 220.625 655 C196.23809496 675.30672788 167.63487992 692.30390885 138.25 704.1875 C138.11749344 703.45304657 137.98498688 702.71859314 137.84846497 701.96188354 C137.3040686 699.43815301 136.60068914 697.20143565 135.67456055 694.79736328 C135.35260208 693.95580185 135.03064362 693.11424042 134.69892883 692.24717712 C134.34839951 691.3431868 133.99787018 690.43919647 133.63671875 689.5078125 C133.27059982 688.55439468 132.9044809 687.60097687 132.52726746 686.6186676 C131.33441101 683.51516087 130.13593839 680.41385496 128.9375 677.3125 C128.11893899 675.18479184 127.30074387 673.05694289 126.48291016 670.92895508 C122.80369177 661.36301461 119.10584831 651.80439786 115.38671875 642.25390625 C115.10199203 641.52190002 114.81726532 640.7898938 114.52391052 640.03570557 C113.22215312 636.6893764 111.91706774 633.34444689 110.60424805 630.00244141 C110.15476807 628.85050293 109.70528809 627.69856445 109.2421875 626.51171875 C108.85401855 625.52260498 108.46584961 624.53349121 108.06591797 623.5144043 C107.25 621.1875 107.25 621.1875 107.25 619.1875 C107.83676514 618.8972998 108.42353027 618.60709961 109.02807617 618.30810547 C127.58320742 609.0602612 145.46339843 598.74138753 161.25 585.1875 C162.26191406 584.35734375 163.27382813 583.5271875 164.31640625 582.671875 C181.06693341 568.8150621 196.30528283 553.40455723 208.25 535.1875 C201.20760887 529.13946642 194.0938831 523.22431102 186.76513672 517.52612305 C182.02493327 513.82767256 177.37948821 510.02331711 172.75 506.1875 C167.05865451 501.47434456 161.31675008 496.84296731 155.48828125 492.30078125 C151.02910669 488.81896002 146.63266343 485.26501304 142.25 481.6875 C135.96852731 476.56125817 129.62763502 471.51830207 123.23828125 466.52734375 C120.5612866 464.43123944 117.90059861 462.31683061 115.25 460.1875 C116.1718627 456.02602965 118.04504062 452.50665849 120 448.75 C134.6045231 419.98390989 140.73513536 385.05003669 131.1484375 353.5703125 C130.85195313 352.78398437 130.55546875 351.99765625 130.25 351.1875 C130.84557205 351.01888458 131.4411441 350.85026917 132.05476379 350.67654419 C138.55543981 348.78760853 144.83705978 346.52580725 151.13671875 344.0546875 C152.15562698 343.65855255 153.17453522 343.2624176 154.22431946 342.85427856 C157.46346268 341.59395351 160.70050063 340.32831965 163.9375 339.0625 C166.05780665 338.23662977 168.17824846 337.41110645 170.29882812 336.5859375 C178.81116956 333.27119315 187.32090164 329.95013585 195.81884766 326.59863281 C196.87151321 326.18428986 197.92417877 325.7699469 199.00874329 325.3430481 C201.00941102 324.55520155 203.00928203 323.76532777 205.00822449 322.97311401 C206.34957207 322.44525803 206.34957207 322.44525803 207.71801758 321.90673828 C208.4995369 321.59777618 209.28105621 321.28881409 210.08625793 320.9704895 C212.1255891 320.23252035 214.13735684 319.6705712 216.25 319.1875 C216.4975 320.46625 216.745 321.745 217 323.0625 C217.83794082 327.28213057 218.76358427 331.47595642 219.72045898 335.66967773 C226.32157198 364.71883565 225.76471022 392.30050521 222.61376953 421.71191406 C222.10919773 426.53277591 221.67003845 431.35862281 221.25 436.1875 C225.52026602 436.85783505 229.79130049 437.52314106 234.0625 438.1875 C235.27744141 438.37828125 236.49238281 438.5690625 237.74414062 438.765625 C238.90751953 438.94609375 240.07089844 439.1265625 241.26953125 439.3125 C242.34307861 439.48007812 243.41662598 439.64765625 244.52270508 439.8203125 C247.28687877 440.25421522 247.28687877 440.25421522 250.25 440.1875 C260.14811067 398.52936467 257.03268378 353.98610218 245.25 313.1875 C244.92257812 311.99511719 244.59515625 310.80273438 244.2578125 309.57421875 C236.15955929 281.37366442 221.53056994 254.08735374 203.25 231.1875 C202.51007812 230.25550781 201.77015625 229.32351563 201.0078125 228.36328125 C187.02102557 211.01288985 171.50488088 194.10656185 153.25 181.1875 C152.58597168 180.71683105 151.92194336 180.24616211 151.23779297 179.76123047 C125.16397558 161.48249205 97.62999451 148.58753627 67.25 139.1875 C66.57130859 138.96868164 65.89261719 138.74986328 65.19335938 138.52441406 C6.11491947 119.54634534 -64.17533932 131.20610384 -118.3125 158.875 C-139.73746369 170.13974642 -159.33576719 184.39779764 -176.75 201.1875 C-177.44174316 201.85201172 -178.13348633 202.51652344 -178.84619141 203.20117188 C-189.92283783 213.89849743 -201.01546352 224.73288831 -208.75 238.1875 C-201.68598991 244.25410003 -194.55085334 250.19164053 -187.20361328 255.91259766 C-181.88761423 260.05834367 -176.65562495 264.3027022 -171.43041992 268.56201172 C-167.88303978 271.45355557 -164.3290205 274.33509272 -160.75 277.1875 C-157.17071035 280.04012178 -153.61637785 282.92181547 -150.06884766 285.8137207 C-143.08989047 291.50213907 -136.0609718 297.11766062 -128.96875 302.6640625 C-124.53278725 306.13464487 -120.13914012 309.6579841 -115.75 313.1875 C-116.95487491 317.19555326 -118.50336432 320.7940023 -120.46606445 324.48852539 C-135.4309383 352.69740093 -139.48867543 385.02296932 -132.75 416.1875 C-132.12908432 418.20217322 -131.48220295 420.21055203 -130.75 422.1875 C-131.93770996 422.32079712 -131.93770996 422.32079712 -133.14941406 422.45678711 C-137.80467764 423.4015392 -141.96801532 425.09563338 -146.359375 426.87890625 C-147.30286301 427.25601242 -148.24635101 427.63311859 -149.21842957 428.02165222 C-151.25312025 428.83526115 -153.28679434 429.65141606 -155.31954956 430.46984863 C-160.72469131 432.64545229 -166.13758632 434.80155837 -171.55078125 436.95703125 C-172.65269302 437.39610809 -173.7546048 437.83518494 -174.88990784 438.28756714 C-187.45724186 443.28332404 -200.09881317 448.08037301 -212.75488281 452.84594727 C-223.16734668 456.77430302 -233.48443985 460.88956227 -243.75 465.1875 C-243.11065929 468.90274714 -242.07252035 472.20537124 -240.68359375 475.70703125 C-240.28076172 476.72861328 -239.87792969 477.75019531 -239.46289062 478.80273438 C-239.04201172 479.85783203 -238.62113281 480.91292969 -238.1875 482 C-237.76275391 483.07443359 -237.33800781 484.14886719 -236.90039062 485.25585938 C-235.85399344 487.90124552 -234.80374756 490.54503511 -233.75 493.1875 C-212.27302478 485.42076364 -191.02650134 477.08273233 -169.7723999 468.72991943 C-158.98029746 464.48942017 -148.17796666 460.2752269 -137.375 456.0625 C-135.58055467 455.36249754 -133.78612071 454.66246591 -131.99169922 453.96240234 C-127.91123213 452.37051348 -123.8306542 450.77890916 -119.75 449.1875 C-119.44980957 449.96005127 -119.14961914 450.73260254 -118.84033203 451.52856445 C-115.22784361 460.33815051 -108.82160817 467.95939504 -102.75 475.1875 C-102.1621875 475.8990625 -101.574375 476.610625 -100.96875 477.34375 C-85.06842656 496.13504134 -60.77504446 511.47420699 -36.75 517.1875 C-37.31240187 528.09141847 -39.13062821 538.82127571 -40.81886482 549.59437561 C-41.35624481 553.02355617 -41.88850488 556.45349858 -42.41954041 559.88366699 C-43.35477456 565.91924465 -44.29446795 571.95411787 -45.23565674 577.98876953 C-46.74623055 587.67459888 -48.25303906 597.36100497 -49.75402641 607.04832458 C-50.27880554 610.42785202 -50.80738038 613.80677126 -51.3361969 617.18566895 C-51.65666651 619.24940516 -51.97698237 621.31316525 -52.29711914 623.37695312 C-52.44515991 624.31619629 -52.59320068 625.25543945 -52.74572754 626.22314453 C-52.87890884 627.08637329 -53.01209015 627.94960205 -53.14930725 628.83898926 C-53.26599793 629.58664803 -53.38268862 630.33430679 -53.50291538 631.10462189 C-53.82853372 633.49994446 -53.82853372 633.49994446 -53.75 637.1875 C-47.25635895 638.70686667 -40.78654739 639.86322734 -34.1875 640.8125 C-32.50395445 641.05755211 -30.82044439 641.30284808 -29.13696289 641.54833984 C-27.89493858 641.72929703 -27.89493858 641.72929703 -26.62782288 641.91390991 C-26.00814133 642.00419464 -25.38845978 642.09447937 -24.75 642.1875 C-19.88526564 613.7170523 -15.43484108 585.18477832 -11.03417969 556.6394043 C-10.05542251 550.29089668 -9.07259166 543.94302691 -8.08870125 537.59531307 C-7.32531746 532.66724974 -6.56406127 527.73885962 -5.80346298 522.81036568 C-5.44130496 520.46543558 -5.07846974 518.12060996 -4.71493912 515.77589226 C-4.21288958 512.53574114 -3.71371715 509.29515985 -3.21533203 506.05444336 C-3.06579575 505.09320557 -2.91625946 504.13196777 -2.76219177 503.14160156 C-2.56063728 501.82511879 -2.56063728 501.82511879 -2.35501099 500.48204041 C-2.17865458 499.33955794 -2.17865458 499.33955794 -1.99873543 498.17399502 C-1.68787848 496.02504191 -1.68787848 496.02504191 -1.75 493.1875 C-2.46841064 493.07269287 -3.18682129 492.95788574 -3.92700195 492.83959961 C-31.83513939 488.28357781 -54.39722405 481.29282578 -74.75 461.1875 C-75.71292969 460.33285156 -75.71292969 460.33285156 -76.6953125 459.4609375 C-93.18522739 444.50496819 -103.466608 418.71726263 -104.97290039 396.96923828 C-105.46707889 382.33173509 -105.30508509 368.19831345 -100.75 354.1875 C-100.43651611 353.21731934 -100.43651611 353.21731934 -100.11669922 352.22753906 C-94.57981594 335.76205097 -84.80197534 322.37132845 -73.75 309.1875 C-77.64722675 305.13318733 -81.80500082 301.58120224 -86.1875 298.0625 C-86.89197266 297.49337891 -87.59644531 296.92425781 -88.32226562 296.33789062 C-93.33526177 292.29776705 -98.39031617 288.31319561 -103.46313477 284.34863281 C-111.33111121 278.18732526 -119.04967703 271.8404909 -126.79101562 265.52148438 C-134.40293627 259.31079936 -142.04036173 253.14218866 -149.78222656 247.09399414 C-155.17382097 242.8750637 -160.47301017 238.54909363 -165.75 234.1875 C-164.11072065 230.03932361 -161.11132173 227.2052861 -158 224.125 C-157.42435303 223.55354248 -156.84870605 222.98208496 -156.25561523 222.39331055 C-150.6772966 216.95673051 -144.73053869 212.12369614 -138.48535156 207.47851562 C-137.35478336 206.63742887 -136.22885704 205.79005486 -135.10839844 204.93554688 C-88.34928427 169.27995649 -28.21390372 155.59908654 29.71142578 162.70654297 C41.43477067 164.33005133 52.86121784 166.99879384 64.25 170.1875 C65.58442139 170.5580249 65.58442139 170.5580249 66.94580078 170.93603516 C100.75171984 180.59395848 131.60902656 199.37476345 156.77539062 223.75976562 C158.2092092 225.14800586 159.65909281 226.5195932 161.109375 227.890625 C178.05518037 244.26199629 194.35705134 266.21039174 203.25 288.1875 C203.25 289.1775 203.25 290.1675 203.25 291.1875 C202.22269775 291.58839844 201.19539551 291.98929687 200.13696289 292.40234375 C199.10200684 292.8062307 199.10200684 292.8062307 198.04614258 293.21827698 C196.4638702 293.83574685 194.88159468 294.45320869 193.29931641 295.07066345 C188.79704724 296.82760516 184.29483626 298.58469573 179.79272461 300.34204102 C170.98806083 303.77866468 162.18303088 307.21433412 153.37599182 310.64486694 C149.59674081 312.11702316 145.81775468 313.58985865 142.03878784 315.06274414 C140.22163972 315.77076778 138.40435862 316.47845024 136.58694458 317.18579102 C134.04851497 318.17378841 131.51053796 319.16293997 128.97265625 320.15234375 C128.21621826 320.4464061 127.45978027 320.74046844 126.68041992 321.04344177 C122.91584233 322.50205566 122.91584233 322.50205566 119.25 324.1875 C118.88261719 323.15689453 118.88261719 323.15689453 118.5078125 322.10546875 C117.03090172 318.67921921 115.15266286 315.61744073 113.125 312.5 C112.72321533 311.88205566 112.32143066 311.26411133 111.9074707 310.62744141 C91.35306799 279.42944509 60.19836226 261.21582937 23.94140625 253.58203125 C17.72870638 252.34616487 11.49928498 251.22194834 5.25 250.1875 C4.57840975 254.43673723 3.91357939 258.68700501 3.25 262.9375 C2.96382813 264.74734375 2.96382813 264.74734375 2.671875 266.59375 C2.49140625 267.75390625 2.3109375 268.9140625 2.125 270.109375 C1.95742188 271.17768555 1.78984375 272.24599609 1.6171875 273.34667969 C1.16454154 276.37125791 1.16454154 276.37125791 1.25 280.1875 C1.86294922 280.28248779 2.47589844 280.37747559 3.10742188 280.4753418 C27.73235001 284.35464284 48.65317731 290.18947654 68.25 306.1875 C68.8790625 306.65285156 69.508125 307.11820312 70.15625 307.59765625 C88.77926627 321.96021833 99.71725018 347.81913738 103.80859375 370.25 C107.29009276 401.30620354 100.12439943 429.83304385 80.64453125 454.28515625 C79.38850722 455.80754753 78.12891414 457.32742051 76.83740234 458.81982422 C74.12580601 461.60280594 74.12580601 461.60280594 73.25 465.1875 C75.31855187 466.95407349 77.39630207 468.6107 79.5625 470.25 C80.86396731 471.25301668 82.16474196 472.25693273 83.46484375 473.26171875 C84.11179199 473.75978027 84.75874023 474.2578418 85.42529297 474.77099609 C87.85943347 476.66059781 90.24563366 478.60451762 92.625 480.5625 C102.65977733 488.81429928 112.72010384 497.02675311 122.96020508 505.02294922 C128.11824964 509.06044049 133.19550117 513.19360197 138.26928711 517.33618164 C143.3187924 521.45129823 148.42839551 525.48332178 153.56298828 529.49145508 C157.55798646 532.61901807 161.44341897 535.83408337 165.25 539.1875 C161.24900851 548.88481835 149.26904318 556.95294487 141.25 563.1875 C140.29222656 563.93902344 139.33445312 564.69054687 138.34765625 565.46484375 C119.71764555 579.78620545 98.56328399 590.512948 76.70385742 598.97802734 C75.26103394 599.5477124 75.26103394 599.5477124 73.7890625 600.12890625 C72.50829834 600.61919312 72.50829834 600.61919312 71.20166016 601.11938477 C68.90492331 602.08875361 68.90492331 602.08875361 68.25 605.1875 C69.21352427 608.13548881 70.25873847 610.95121011 71.421875 613.8203125 C71.77145767 614.70460434 72.12104034 615.58889618 72.48121643 616.49998474 C73.64575532 619.44089577 74.82305734 622.37653351 76 625.3125 C76.81384347 627.36276384 77.62657087 629.41347101 78.43823242 631.46459961 C79.71355515 634.68730465 80.98950122 637.90974532 82.26872253 641.13090515 C86.68227051 652.24843204 91.01000972 663.39870786 95.3260498 674.55438232 C96.53821405 677.68723271 97.75179359 680.8195311 98.96582031 683.95166016 C100.42784834 687.72371332 101.88789594 691.49652191 103.34619141 695.27001953 C104.52352518 698.31555079 105.70710552 701.35844256 106.89990234 704.39794922 C107.35961426 705.57502441 107.81932617 706.75209961 108.29296875 707.96484375 C108.87147583 709.43618774 108.87147583 709.43618774 109.46166992 710.93725586 C110.25 713.1875 110.25 713.1875 110.25 715.1875 C93.07253168 720.3265664 75.94864452 725.17910348 58.25 728.1875 C57.11788086 728.38359863 55.98576172 728.57969727 54.81933594 728.78173828 C19.94241453 734.5536564 -17.88218334 735.11248542 -52.75 729.1875 C-53.801875 729.01589355 -54.85375 728.84428711 -55.9375 728.66748047 C-87.73723776 723.37225628 -118.63776116 714.08593198 -147.75 700.1875 C-148.41757324 699.86958496 -149.08514648 699.55166992 -149.77294922 699.22412109 C-167.99325935 690.47570909 -186.11834444 680.7576198 -202.1328125 668.33984375 C-203.69050799 666.9940642 -203.69050799 666.9940642 -205.75 667.1875 C-201.12978029 660.5815125 -196.27235918 654.34049225 -191.02563477 648.23095703 C-187.22715019 643.7927892 -183.60425158 639.2387771 -180.01635742 634.62963867 C-176.48490181 630.10112483 -172.8821652 625.6355399 -169.25 621.1875 C-165.20008459 616.22525407 -161.19200222 611.23591535 -157.25 606.1875 C-152.18054611 599.69636455 -146.99299958 593.30541312 -141.7890625 586.921875 C-138.07818284 582.368563 -134.40728947 577.78397256 -130.75 573.1875 C-134.41653327 569.42519907 -138.23746974 565.95127265 -142.25 562.5625 C-143.08337891 561.84707031 -143.08337891 561.84707031 -143.93359375 561.1171875 C-147.05836591 558.47032167 -150.15454299 556.18646677 -153.75 554.1875 C-158.89652849 559.76167698 -163.67543716 565.55583747 -168.3293457 571.53955078 C-171.91055093 576.13828953 -175.56264806 580.6735317 -179.25 585.1875 C-183.38459446 590.25275963 -187.47375532 595.34816909 -191.5 600.5 C-196.16514838 606.46720475 -200.93805982 612.33784109 -205.75 618.1875 C-213.29559954 627.37164236 -220.7219685 636.59886788 -227.75 646.1875 C-232.60276493 644.73808238 -235.58246534 641.77545212 -239.046875 638.25390625 C-239.63994446 637.6613353 -240.23301392 637.06876434 -240.84405518 636.45823669 C-242.09821303 635.20174215 -243.34868819 633.9415624 -244.59570312 632.67797852 C-246.47123753 630.77912016 -248.3594402 628.89365111 -250.25 627.00976562 C-257.1995681 620.04424051 -263.70185076 612.95980689 -269.75 605.1875 C-270.32041016 604.47118408 -270.89082031 603.75486816 -271.47851562 603.0168457 C-296.5079833 571.49051286 -314.45156297 535.68717448 -328.75 498.1875 C-333.04499423 499.80379992 -337.33538028 501.43199533 -341.625 503.0625 C-343.45998047 503.75279297 -343.45998047 503.75279297 -345.33203125 504.45703125 C-346.49863281 504.90175781 -347.66523438 505.34648438 -348.8671875 505.8046875 C-349.94597168 506.21315918 -351.02475586 506.62163086 -352.13623047 507.04248047 C-354.84549351 508.0403587 -354.84549351 508.0403587 -356.75 510.1875 C-345.93152625 537.02218085 -334.3135225 563.70414603 -318.75 588.1875 C-318.36602051 588.7944873 -317.98204102 589.40147461 -317.58642578 590.02685547 C-299.78299502 617.9403291 -278.03498701 644.79554649 -252.82421875 666.390625 C-250.54842282 668.3621243 -248.34077333 670.39884395 -246.125 672.4375 C-235.51616243 681.97333065 -224.07543948 690.27651168 -212.1875 698.125 C-211.53703705 698.55604034 -210.8865741 698.98708069 -210.21640015 699.43118286 C-174.87172634 722.81315999 -136.80655127 740.41168017 -95.75 751.1875 C-94.74549805 751.45401367 -93.74099609 751.72052734 -92.70605469 751.99511719 C0.65087611 776.46331056 103.42265136 761.90246536 187 713.8125 C212.02905859 699.10401269 234.85175511 681.74329782 256.25 662.1875 C257.2783507 661.26399417 258.30701282 660.34083504 259.3359375 659.41796875 C266.62159398 652.84047328 273.40432812 645.94647013 279.95117188 638.63476562 C281.08821968 637.3677695 282.23837018 636.11255725 283.390625 634.859375 C322.33276671 592.11799995 349.4346104 537.73123422 364.25 482.1875 C364.51651367 481.21538574 364.78302734 480.24327148 365.05761719 479.24169922 C387.45210397 397.24113876 379.34679496 298.94431944 339.40869141 223.40332031 C338.11306069 220.92562449 336.85874466 218.42906494 335.60546875 215.9296875 C325.2836026 195.50965434 313.45974016 176.13866364 299.25 158.1875 C298.19425781 156.83205078 298.19425781 156.83205078 297.1171875 155.44921875 C295.1902016 153.00342895 293.23059159 150.59006024 291.25 148.1875 C290.44433594 147.2078125 289.63867188 146.228125 288.80859375 145.21875 C277.28005313 131.33369969 264.97524541 117.67192597 251.2578125 105.91796875 C249.17932368 104.12658636 247.15478364 102.28377922 245.125 100.4375 C229.22299295 86.34438 211.58742751 73.7843022 193.13378906 63.26171875 C191.85126611 62.53036818 190.57207748 61.79314627 189.29589844 61.05078125 C159.94720265 43.98857472 128.92734919 31.29071623 96.25 22.1875 C95.29061523 21.91953613 94.33123047 21.65157227 93.34277344 21.37548828 C77.80981352 17.10714424 62.22815689 14.19827954 46.25 12.1875 C44.88560791 12.00960937 44.88560791 12.00960937 43.49365234 11.828125 C12.03240795 7.91512181 -21.40591003 8.63227251 -52.75 13.1875 Z " fill="#FFFFFF" transform="translate(450.75,63.8125)"/>
<path d="M0 0 C12.72837017 8.56760242 20.62515522 21.37990226 23.83984375 36.375 C26.02010274 54.15078504 22.72168684 70.34948766 12.375 85.13671875 C3.87796302 95.3959749 -7.85657765 101.34223966 -21.03515625 102.875 C-34.72557166 103.38632877 -46.68521906 98.51506929 -56.95703125 89.60546875 C-61.3633037 85.11347116 -64.31130506 80.05470391 -67.15234375 74.49609375 C-67.48645264 73.84390869 -67.82056152 73.19172363 -68.16479492 72.51977539 C-74.38598064 59.65625289 -74.96626135 42.94907052 -70.875 29.32421875 C-65.78301114 16.20464603 -57.65424786 3.95472904 -44.77734375 -2.50390625 C-29.77487423 -8.90495991 -14.02876152 -8.33808225 0 0 Z M-48.77734375 16.49609375 C-57.63847904 26.81940445 -60.91868346 37.99029966 -60.77734375 51.49609375 C-59.58590351 64.62026623 -53.07637206 74.8053178 -43.52734375 83.55859375 C-35.05868032 89.52515208 -27.12303925 90.88263026 -16.77734375 89.49609375 C-5.65376152 85.94380758 1.53515929 79.04742295 7.09765625 68.99609375 C13.02256078 56.88047618 13.42993245 44.32200663 9.22265625 31.49609375 C5.23459643 21.25913739 -0.92695372 13.56727738 -10.77734375 8.49609375 C-24.59355448 3.45478778 -38.22049202 5.71199081 -48.77734375 16.49609375 Z " fill="#FFFFFF" transform="translate(474.77734375,402.50390625)"/>
<path d="M0 0 C1.20422104 -0.00004028 2.40844208 -0.00008057 3.64915466 -0.00012207 C6.19185615 0.00523391 8.73455716 0.02281961 11.27709961 0.05175781 C15.17287662 0.0936348 19.06692637 0.09282387 22.96289062 0.0859375 C25.43360578 0.09642907 27.90431202 0.10936699 30.375 0.125 C31.54172745 0.12520142 32.7084549 0.12540283 33.91053772 0.12561035 C35.53758888 0.14947815 35.53758888 0.14947815 37.19750977 0.17382812 C38.15061539 0.18224731 39.10372101 0.1906665 40.08570862 0.19934082 C43.08334504 0.66565866 44.44931259 1.50043545 46.62109375 3.59375 C48.15336879 8.19057513 48.3417244 12.01522572 46.30859375 16.46875 C44.62109375 18.59375 44.62109375 18.59375 41.62109375 19.59375 C39.87857818 19.69640641 38.13245374 19.74221164 36.38696289 19.75488281 C35.31897964 19.76449036 34.2509964 19.7740979 33.15065002 19.78399658 C31.99749802 19.78824646 30.84434601 19.79249634 29.65625 19.796875 C28.47139511 19.80257507 27.28654022 19.80827515 26.06578064 19.81414795 C23.55826715 19.82359893 21.05074123 19.83013232 18.54321289 19.83398438 C14.70241752 19.84370237 10.86215439 19.87473075 7.02148438 19.90625 C4.58724277 19.91277877 2.15299733 19.91802974 -0.28125 19.921875 C-1.43237778 19.9342218 -2.58350555 19.9465686 -3.76951599 19.95928955 C-4.8406514 19.95628845 -5.9117868 19.95328735 -7.01538086 19.95019531 C-7.956754 19.95384094 -8.89812714 19.95748657 -9.86802673 19.96124268 C-12.86474831 19.52264209 -14.21154682 18.6832408 -16.37890625 16.59375 C-17.59359312 12.94968938 -18.30024902 9.34787801 -17.37890625 5.59375 C-12.95066364 -0.94197961 -7.37202567 -0.10377434 0 0 Z " fill="#FFFFFF" transform="translate(435.37890625,440.40625)"/>
</svg>
