<?xml version="1.0" encoding="UTF-8"?>
<svg version="1.1" xmlns="http://www.w3.org/2000/svg" width="901" height="901">
<path d="M0 0 C1.1751416 0.15629883 2.3502832 0.31259766 3.56103516 0.47363281 C10.42288043 1.42482145 17.21167761 2.62193619 24 4 C25.09876465 4.21962402 26.1975293 4.43924805 27.32958984 4.66552734 C55.36097323 10.39913117 82.93125026 19.1764687 109 31 C110.07137207 31.44843262 111.14274414 31.89686523 112.24658203 32.35888672 C116.13621335 34.02275299 119.8808873 35.91994009 123.62890625 37.87890625 C124.34046371 38.25047348 125.05202118 38.62204071 125.78514099 39.00486755 C127.28606588 39.7907898 128.78614001 40.57833873 130.28540039 41.36743164 C131.78849103 42.15628429 133.2939907 42.94056578 134.80200195 43.7199707 C145.18077195 49.0842916 154.63140576 55.03275044 164 62 C165.45111161 63.00916239 166.90820243 64.00986936 168.375 64.99609375 C192.2850008 81.09855232 215.14848059 100.14425438 234 122 C235.45720131 123.58437524 236.9155734 125.16767432 238.375 126.75 C243.90967576 132.91557144 248.98668903 139.41039601 254 146 C254.54317871 146.71333496 255.08635742 147.42666992 255.64599609 148.16162109 C264.67570151 160.08000691 273.0552503 172.33411432 281 185 C281.474375 185.75490723 281.94875 186.50981445 282.4375 187.28759766 C283.74025652 189.37265577 285.0300785 191.46488582 286.3125 193.5625 C286.69188721 194.17577148 287.07127441 194.78904297 287.4621582 195.42089844 C289.12403431 198.18713333 290 199.70915878 290 203 C288.14257812 204.46704102 288.14257812 204.46704102 285.53125 206.00390625 C284.09616089 206.86133423 284.09616089 206.86133423 282.63208008 207.73608398 C281.59849365 208.33880127 280.56490723 208.94151855 279.5 209.5625 C277.38859036 210.81386897 275.27791701 212.06648106 273.16796875 213.3203125 C272.1217334 213.93938477 271.07549805 214.55845703 269.99755859 215.19628906 C267.31430729 216.81087292 264.67509102 218.47151823 262.05078125 220.1796875 C261.32632813 220.64947021 260.601875 221.11925293 259.85546875 221.60327148 C258.52257316 222.47376317 257.19541142 223.35311724 255.875 224.24243164 C251.53347682 227.05106135 251.53347682 227.05106135 248.94921875 226.80371094 C245.40774898 225.34347566 244.00382552 221.51970847 242.1875 218.3125 C232.88005491 202.50155992 222.50009563 187.30063705 211 173 C210.24332031 172.05125 209.48664062 171.1025 208.70703125 170.125 C203.67536677 163.8895466 198.40656122 157.91093763 193 152 C192.08911758 150.98502623 191.178991 149.96937374 190.26953125 148.953125 C185.73776078 143.91242235 181.19044441 139.03302636 175.98046875 134.67578125 C174.61761832 133.52260011 173.28794416 132.32942314 171.98828125 131.10546875 C152.7281643 111.97450714 152.7281643 111.97450714 130 101 C129.5781543 101.7935791 129.15630859 102.5871582 128.72167969 103.40478516 C121.35306575 117.26041814 113.97519084 131.10898876 106.43823242 144.87402344 C103.21702141 150.75996078 100.02049323 156.65861348 96.84179688 162.56762695 C95.66385068 164.75720395 94.48418698 166.94585792 93.30273438 169.13354492 C90.28756083 174.72090244 87.30248218 180.3214832 84.36328125 185.94921875 C83.77732178 187.05990723 83.1913623 188.1705957 82.58764648 189.31494141 C81.46813533 191.43778352 80.35909908 193.56619161 79.26196289 195.70068359 C78.76043701 196.64637207 78.25891113 197.59206055 77.7421875 198.56640625 C77.09032471 199.81852905 77.09032471 199.81852905 76.42529297 201.09594727 C75 203 75 203 73.20727539 203.96069336 C69.88432338 204.01986771 67.83575177 202.65697408 64.94140625 201.0625 C64.06390968 200.58586914 64.06390968 200.58586914 63.16868591 200.09960938 C61.29349772 199.07772168 59.42805853 198.03934468 57.5625 197 C56.34241391 196.33090486 55.12171549 195.66292502 53.90039062 194.99609375 C51.4747782 193.66987012 49.05275344 192.33742567 46.63330078 191 C41.11383673 187.95385164 35.5561808 184.97849918 30 182 C31.16509058 178.29168314 32.43903912 174.91175141 34.328125 171.515625 C34.7907373 170.67676758 35.25334961 169.83791016 35.72998047 168.97363281 C36.23158691 168.07483398 36.73319336 167.17603516 37.25 166.25 C38.34187984 164.27123818 39.43299444 162.29205395 40.5234375 160.3125 C41.09416992 159.27867187 41.66490234 158.24484375 42.25292969 157.1796875 C45.16051175 151.88785565 48.01733278 146.56890433 50.875 141.25 C51.74922607 139.62481445 51.74922607 139.62481445 52.64111328 137.96679688 C54.42800606 134.64485198 56.21411474 131.32248664 58 128 C60.37424233 123.58292539 62.7492187 119.16624705 65.125 114.75 C65.98569092 113.14910522 65.98569092 113.14910522 66.86376953 111.51586914 C69.71572725 106.21747024 72.58193256 100.92756573 75.4765625 95.65234375 C76.02812012 94.64655273 76.57967773 93.64076172 77.14794922 92.60449219 C78.18602325 90.71438117 79.22656004 88.82561981 80.27001953 86.93847656 C80.73263184 86.09639648 81.19524414 85.25431641 81.671875 84.38671875 C82.0750293 83.65670654 82.47818359 82.92669434 82.89355469 82.17456055 C84.08518304 79.83258488 85.05865783 77.45206186 86 75 C85.40646729 74.83274414 84.81293457 74.66548828 84.20141602 74.49316406 C78.6374289 72.88041417 73.2529505 71.00197407 67.85961914 68.89160156 C38.57158169 57.4494708 8.25001599 51.02000696 -23 48 C-23.74507813 47.92797363 -24.49015625 47.85594727 -25.2578125 47.78173828 C-87.00771037 42.16404728 -149.90848147 56.33240901 -205 84 C-203.76360314 87.27598741 -202.38520645 90.20461269 -200.5234375 93.16796875 C-200.02610107 93.96485107 -199.52876465 94.7617334 -199.01635742 95.58276367 C-198.47470947 96.44232666 -197.93306152 97.30188965 -197.375 98.1875 C-196.19096456 100.08305751 -195.00739159 101.97890395 -193.82421875 103.875 C-193.19950684 104.87402344 -192.57479492 105.87304688 -191.93115234 106.90234375 C-188.65985725 112.14964997 -185.42469968 117.4191162 -182.1875 122.6875 C-180.8295032 124.89588014 -179.47142957 127.10421304 -178.11328125 129.3125 C-177.43475098 130.4159375 -176.7562207 131.519375 -176.05712891 132.65625 C-174.01224572 135.98009525 -171.96542134 139.30273696 -169.91796875 142.625 C-166.599694 148.00966401 -163.28615947 153.39721916 -159.97558594 158.78662109 C-158.63149977 160.97283738 -157.2857322 163.15802063 -155.93847656 165.34228516 C-153.954833 168.55899172 -151.97682469 171.77909973 -150 175 C-149.39397949 175.9799292 -148.78795898 176.9598584 -148.16357422 177.96948242 C-147.61459473 178.86642822 -147.06561523 179.76337402 -146.5 180.6875 C-146.0153125 181.47511719 -145.530625 182.26273438 -145.03125 183.07421875 C-144 185 -144 185 -144 187 C-145.56616211 188.13818359 -145.56616211 188.13818359 -147.77734375 189.3984375 C-148.59235352 189.87144287 -149.40736328 190.34444824 -150.24707031 190.83178711 C-151.57883301 191.59567749 -151.57883301 191.59567749 -152.9375 192.375 C-174.95880867 205.31594134 -197.71903695 221.09397877 -214 241 C-214.71736328 241.8647998 -214.71736328 241.8647998 -215.44921875 242.74707031 C-217.10017454 244.74080929 -218.73907584 246.74391375 -220.375 248.75 C-220.9117334 249.40049316 -221.4484668 250.05098633 -222.00146484 250.72119141 C-222.50371582 251.34429199 -223.0059668 251.96739258 -223.5234375 252.609375 C-223.97638184 253.16592773 -224.42932617 253.72248047 -224.89599609 254.29589844 C-226.11593125 256.1789474 -226.57700829 257.80905848 -227 260 C-226.41847168 260.30067383 -225.83694336 260.60134766 -225.23779297 260.91113281 C-213.58529475 266.94371162 -201.98317892 273.05330104 -190.47705078 279.36083984 C-183.41811184 283.23034128 -176.33942484 287.0616485 -169.25 290.875 C-168.1767749 291.45282227 -167.1035498 292.03064453 -165.99780273 292.62597656 C-160.86678733 295.38727351 -155.73345323 298.14411219 -150.59429932 300.89022827 C-148.80030205 301.84919092 -147.00697971 302.8094037 -145.21386719 303.77001953 C-142.96066755 304.97665971 -140.70617643 306.18089243 -138.45019531 307.38232422 C-133.46722075 310.05329305 -128.6188756 312.73493277 -124 316 C-124.70962891 317.40185547 -124.70962891 317.40185547 -125.43359375 318.83203125 C-127.23931344 322.41112662 -129.02674672 325.99906385 -130.80615234 329.59130859 C-131.60075434 331.19448718 -132.39794848 332.79638365 -133.19775391 334.39697266 C-145.13214772 358.36801335 -151.26130538 384.69494518 -142.69335938 411.02490234 C-133.73499555 436.54362182 -117.41829493 457.57543666 -92.83251953 469.42163086 C-87.04830048 472.08872822 -81.18659249 474.44372144 -75 476 C-74.31526611 476.17225098 -73.63053223 476.34450195 -72.92504883 476.52197266 C-63.18328243 478.63879185 -53.23439228 478.45696584 -43.3125 478.625 C-41.43553026 478.66325588 -39.55857665 478.7023118 -37.68164062 478.7421875 C-33.12122738 478.83735195 -28.56073234 478.92167957 -24 479 C-23.25353412 490.55801854 -22.86340719 502.04415433 -22.9375 513.625 C-22.94254092 515.03645669 -22.9470991 516.44791519 -22.95117188 517.859375 C-22.9627481 521.23963223 -22.97904695 524.6197902 -23 528 C-74.71114334 528.76195201 -117.56521666 522.46271824 -155.93359375 485.23046875 C-156.81422485 484.37618286 -156.81422485 484.37618286 -157.71264648 483.50463867 C-159 482 -159 482 -159 480 C-166.90990621 484.20344973 -174.57797729 488.71458889 -182.1875 493.4375 C-183.29722168 494.12328125 -184.40694336 494.8090625 -185.55029297 495.515625 C-197.0609116 502.63298536 -208.53522008 509.80910995 -220 517 C-217.58217318 521.17312686 -214.79901868 524.62591316 -211.5 528.125 C-210.96810059 528.6926709 -210.43620117 529.2603418 -209.88818359 529.84521484 C-208.26501852 531.56949669 -206.63333214 533.28535262 -205 535 C-204.09507812 535.9590625 -203.19015625 536.918125 -202.2578125 537.90625 C-164.54448475 576.85057658 -108.6453626 598.29342269 -54.96411133 599.35595703 C-3.86141394 599.64204118 46.80376425 583.30439652 86 550 C87.07223847 549.12286821 88.1452087 548.24663049 89.21875 547.37109375 C103.17672821 535.8584516 114.6872444 522.83774021 125 508 C118.48353315 503.76184675 111.70481012 500.09698728 104.83483887 496.47186279 C101.47244405 494.69725971 98.11535155 492.91267444 94.7578125 491.12890625 C93.75403564 490.5960199 93.75403564 490.5960199 92.72998047 490.05236816 C86.17253572 486.56776878 79.6538594 483.01401095 73.14160156 479.44580078 C67.11822429 476.14824181 61.07710351 472.88530654 55.02612305 469.63867188 C50.66363171 467.29631058 46.30684347 464.94346594 41.95068359 462.58935547 C39.24954679 461.13441582 36.54150618 459.69323142 33.83203125 458.25390625 C32.36673151 457.46178042 30.90184931 456.66888144 29.4375 455.875 C28.78281738 455.53315674 28.12813477 455.19131348 27.45361328 454.83911133 C23.23398352 452.52209807 23.23398352 452.52209807 22.18530273 450.18212891 C21.93237665 447.20366603 22.86355627 445.79493947 24.3515625 443.21875 C24.87105469 442.30037354 25.39054687 441.38199707 25.92578125 440.43579102 C26.76689453 438.98257446 26.76689453 438.98257446 27.625 437.5 C35.66555601 423.16325226 43.27938928 407.78422461 44 391 C44.0515625 389.93910156 44.103125 388.87820313 44.15625 387.78515625 C44.79935372 362.24857929 36.05313614 338.10582846 19 319 C18.26265625 318.16855469 17.5253125 317.33710938 16.765625 316.48046875 C10.28087031 309.58246988 3.11531635 304.73550362 -5 300 C-5.84304688 299.50628906 -6.68609375 299.01257813 -7.5546875 298.50390625 C-25.15223969 288.99411794 -44.00287376 287.87835768 -63.5625 287.95703125 C-65.06315034 287.96048621 -66.56380144 287.96362195 -68.06445312 287.96643066 C-71.70965165 287.97393975 -75.35482079 287.98576973 -79 288 C-79.52669795 270.11688216 -80.04845072 252.23362682 -80.56460571 234.35020161 C-80.80447418 226.04321424 -81.04585121 217.73627625 -81.29101562 209.42944336 C-81.50515186 202.17379023 -81.7162176 194.91805476 -81.92386818 187.66221303 C-82.03351588 183.83434101 -82.14451517 180.00652097 -82.25921631 176.17879677 C-82.83939663 156.77818244 -83.12667521 137.41070575 -83 118 C-78.7540829 117.85449415 -74.50809779 117.71172348 -70.26196289 117.57275391 C-68.82605688 117.52525696 -67.39018228 117.47679784 -65.9543457 117.42724609 C-55.29887779 117.06046146 -44.66158076 116.93991125 -34 117 C-33.3615311 135.49335386 -32.73259801 153.98700698 -32.11712646 172.48114014 C-32.04445946 174.66429326 -31.97161715 176.84744057 -31.89849854 179.03057861 C-31.2184948 199.36028284 -30.84676781 219.65783796 -31 240 C-30.35788574 240.05406006 -29.71577148 240.10812012 -29.05419922 240.16381836 C4.68814816 243.23044844 34.12259849 261.99129842 57 286 C60.91393929 284.56139434 64.31916926 282.71531668 67.875 280.54296875 C68.43208649 280.20396545 68.98917297 279.86496216 69.56314087 279.51568604 C71.37774388 278.41003646 73.18891103 277.29889465 75 276.1875 C76.26986179 275.41193242 77.53988303 274.63662586 78.81005859 273.86157227 C87.78791615 268.37795836 96.73935922 262.85163624 105.67578125 257.30078125 C112.79607907 252.88031339 119.94152091 248.5006755 127.08447266 244.11694336 C132.7142876 240.6564726 138.32874486 237.17396091 143.91796875 233.6484375 C145.02358154 232.95218262 146.12919434 232.25592773 147.26831055 231.53857422 C149.38555137 230.20300265 151.50039449 228.86362073 153.61254883 227.52001953 C154.55509521 226.92560059 155.4976416 226.33118164 156.46875 225.71875 C157.29826172 225.19216797 158.12777344 224.66558594 158.98242188 224.12304688 C161 223 161 223 163 223 C164.12231445 224.50268555 164.12231445 224.50268555 165.36328125 226.63671875 C166.06662598 227.82998779 166.06662598 227.82998779 166.78417969 229.04736328 C167.28852539 229.9186084 167.79287109 230.78985352 168.3125 231.6875 C169.38511151 233.51266424 170.45938954 235.33684993 171.53515625 237.16015625 C172.09734863 238.11422363 172.65954102 239.06829102 173.23876953 240.05126953 C176.72272555 245.88426381 180.35466854 251.62750224 183.9855957 257.36987305 C184.51113037 258.20945557 185.03666504 259.04903809 185.578125 259.9140625 C186.28050293 261.0270874 186.28050293 261.0270874 186.99707031 262.16259766 C188 264 188 264 188 266 C186.28198242 267.22998047 186.28198242 267.22998047 183.85546875 268.6171875 C182.96093994 269.13531006 182.06641113 269.65343262 181.14477539 270.18725586 C180.16887451 270.74421143 179.19297363 271.30116699 178.1875 271.875 C170.89521226 276.10599415 163.66602769 280.39617667 156.5625 284.9375 C148.67200743 289.97055771 140.70131613 294.85935336 132.69873047 299.71191406 C126.17406703 303.67055158 119.67194386 307.66333573 113.1875 311.6875 C103.81813334 317.50199002 94.4167271 323.26258019 85 329 C85.55147269 332.97060336 86.46910625 336.64455667 87.71411133 340.45263672 C96.89611567 368.89751606 96.51741574 400.68931155 87 429 C97.24561 435.02796227 107.7143346 440.62845457 118.19970703 446.22460938 C126.41016231 450.60733333 134.59463967 455.03479948 142.75830078 459.50415039 C148.81716838 462.81792335 154.89327699 466.09822427 160.97827148 469.36376953 C165.33871597 471.70492674 169.69495849 474.05379401 174.04931641 476.40625 C175.92821391 477.42109717 177.80800168 478.43429907 179.68896484 479.4453125 C181.98562126 480.68298277 184.27520436 481.93263845 186.5625 483.1875 C187.21718262 483.53772217 187.87186523 483.88794434 188.54638672 484.2487793 C192.88502617 486.6550785 192.88502617 486.6550785 194 490 C192.84765625 492.70458984 192.84765625 492.70458984 191.0625 495.9609375 C190.74474609 496.54735016 190.42699219 497.13376282 190.09960938 497.73794556 C189.07579629 499.62226431 188.03825968 501.49860965 187 503.375 C186.33109948 504.59975199 185.6631211 505.82500808 184.99609375 507.05078125 C183.66524565 509.49487857 182.32525592 511.93366682 180.98046875 514.37011719 C179.65763526 516.77628338 178.37126322 519.19701919 177.11328125 521.63769531 C176.22189453 523.35230957 176.22189453 523.35230957 175.3125 525.1015625 C174.79300781 526.11814941 174.27351562 527.13473633 173.73828125 528.18212891 C171.82867566 531.2777283 169.631632 533.50392088 167 536 C165.54881205 537.84841093 164.13282116 539.7249013 162.75 541.625 C148.14564564 561.31330038 131.00438516 580.57060743 111 595 C110.34 595 109.68 595 109 595 C108.62681641 595.90866821 108.62681641 595.90866821 108.24609375 596.83569336 C106.78856705 599.3672322 105.5748935 600.17763555 103.0625 601.62890625 C102.2586084 602.10134766 101.4547168 602.57378906 100.62646484 603.06054688 C99.75973145 603.55619141 98.89299805 604.05183594 98 604.5625 C96.17906377 605.62523407 94.35876454 606.68906027 92.5390625 607.75390625 C91.15315918 608.56045654 91.15315918 608.56045654 89.73925781 609.38330078 C87.14261317 610.91583026 84.57853012 612.48919259 82.0234375 614.08984375 C81.2396875 614.57960693 80.4559375 615.06937012 79.6484375 615.57397461 C78.18406407 616.49251039 76.72285481 617.41611996 75.265625 618.34594727 C70.0586739 621.58729907 64.72457689 623.83065262 59 626 C57.26542801 626.70072766 55.53237452 627.40522476 53.80078125 628.11328125 C32.94776509 636.51891321 12.32159493 642.58088325 -9.84301758 646.42504883 C-11.63853215 646.75204881 -13.43159185 647.09641426 -15.21273804 647.49430847 C-21.43657552 648.85578488 -27.38828158 649.348356 -33.75 649.44921875 C-35.2198938 649.48182549 -35.2198938 649.48182549 -36.71948242 649.51509094 C-38.76977082 649.55866469 -40.82015481 649.59793842 -42.87060547 649.63305664 C-46.01952484 649.68783968 -49.16784099 649.75795305 -52.31640625 649.83007812 C-54.31508617 649.87068731 -56.31378388 649.91043235 -58.3125 649.94921875 C-59.25512695 649.96997971 -60.19775391 649.99074066 -61.16894531 650.01213074 C-62.4717041 650.03259209 -62.4717041 650.03259209 -63.80078125 650.0534668 C-64.94800659 650.07439644 -64.94800659 650.07439644 -66.1184082 650.0957489 C-68 650 -68 650 -70 649 C-71.63971794 648.77962455 -73.2858964 648.60647595 -74.93359375 648.45703125 C-99.01256945 646.09519978 -121.68179161 641.00885 -144.46948242 632.88793945 C-146.88362862 632.04083384 -149.31012855 631.25042691 -151.74609375 630.46875 C-158.85349575 628.10774024 -165.38115531 624.46051527 -172 621 C-173.07378906 620.44183594 -174.14757812 619.88367188 -175.25390625 619.30859375 C-178.22394368 617.75943801 -181.18879854 616.20155588 -184.14871216 614.63320923 C-185.92233014 613.69552011 -187.70028865 612.76605611 -189.47827148 611.83666992 C-190.56696533 611.25506104 -191.65565918 610.67345215 -192.77734375 610.07421875 C-193.75952881 609.55432373 -194.74171387 609.03442871 -195.75366211 608.4987793 C-198 607 -198 607 -199 604 C-200.3065739 603.28230448 -201.64821938 602.62841975 -203 602 C-224.4730174 587.77908346 -244.46982945 569.54817377 -260 549 C-261.8892328 546.56723792 -263.7173931 544.27025948 -265.94458008 542.14038086 C-268.03315214 539.96547751 -269.41886049 537.89780608 -270.91796875 535.2890625 C-271.44583984 534.3808374 -271.97371094 533.4726123 -272.51757812 532.53686523 C-273.06865234 531.57594971 -273.61972656 530.61503418 -274.1875 529.625 C-277.96510822 523.10713858 -281.79496099 516.68779145 -286 510.4375 C-289.32033132 505.33346982 -291.67911914 500.38806625 -293.6953125 494.65234375 C-294.9854129 491.04083514 -296.41901938 487.52071413 -297.88916016 483.98022461 C-313.48584749 446.1508118 -317.21304408 406.5651863 -318 366 C-301.32453384 365.31084026 -284.69011153 364.84672347 -268 365 C-267.97812622 365.95362427 -267.97812622 365.95362427 -267.95581055 366.92651367 C-267.02507878 403.85650293 -263.6837942 440.51408682 -247 474 C-236.32614137 467.7689056 -225.67848248 461.51090752 -215.25 454.875 C-208.83596104 450.79457369 -202.40915456 446.7386471 -195.9375 442.75 C-195.16889648 442.27159668 -194.40029297 441.79319336 -193.60839844 441.30029297 C-188.232411 438 -188.232411 438 -186 438 C-186.31453125 437.27039063 -186.6290625 436.54078125 -186.953125 435.7890625 C-189.6703788 429.15961799 -191.71425564 422.67673356 -193.25 415.6875 C-193.49411621 414.57785889 -193.49411621 414.57785889 -193.74316406 413.44580078 C-195.84457603 403.46744012 -196.23877066 393.7320564 -196.25 383.5625 C-196.25133942 382.84790619 -196.25267883 382.13331238 -196.25405884 381.39706421 C-196.24967582 370.62225474 -195.5795939 360.49884103 -193 350 C-192.46246926 347.68153882 -191.92749049 345.36248507 -191.39453125 343.04296875 C-190.9296875 341.02864583 -190.46484375 339.01432292 -190 337 C-190.85416504 336.54786133 -191.70833008 336.09572266 -192.58837891 335.62988281 C-207.08728862 327.95262694 -221.58385698 320.27467618 -235.97119141 312.38964844 C-242.9626348 308.55904248 -249.97782122 304.77393933 -257 301 C-265.44821851 296.45709597 -273.88872791 291.90059883 -282.3125 287.3125 C-283.21935547 286.81943359 -284.12621094 286.32636719 -285.06054688 285.81835938 C-289.08932171 283.62056561 -293.09210284 281.40919845 -297 279 C-292.38976595 269.52181694 -287.57348831 260.1508791 -282.63018799 250.84222412 C-281.69294852 249.0727864 -280.76514337 247.2983621 -279.83740234 245.52392578 C-278.96462646 243.88979736 -278.96462646 243.88979736 -278.07421875 242.22265625 C-277.55432373 241.24047119 -277.03442871 240.25828613 -276.4987793 239.24633789 C-275 237 -275 237 -272 236 C-271.31043491 234.34267619 -270.64859117 232.67378365 -270 231 C-258.53104604 214.48111524 -244.48554055 197.82935864 -229 185 C-227.19726145 183.46796532 -225.39958365 181.93014825 -223.60302734 180.39086914 C-222.34863824 179.31634082 -221.09251561 178.24383212 -219.83447266 177.17358398 C-219.25358887 176.67802002 -218.67270508 176.18245605 -218.07421875 175.671875 C-217.29437622 175.00816895 -217.29437622 175.00816895 -216.4987793 174.33105469 C-214.93642317 172.94353789 -213.46310631 171.49123772 -212 170 C-212.3810791 169.39341553 -212.7621582 168.78683105 -213.15478516 168.16186523 C-220.91315774 155.80340589 -228.62006837 143.418761 -236.16650391 130.92944336 C-237.76946681 128.28118577 -239.3825484 125.6394307 -241 123 C-241.62390625 121.97342285 -242.2478125 120.9468457 -242.890625 119.88916016 C-243.51453125 118.88030762 -244.1384375 117.87145508 -244.78125 116.83203125 C-245.34908203 115.90753174 -245.91691406 114.98303223 -246.50195312 114.03051758 C-246.99630859 113.36044678 -247.49066406 112.69037598 -248 112 C-251.63983138 112 -254.43524628 115.11051196 -257.25 117.25 C-257.96728271 117.79285645 -258.68456543 118.33571289 -259.42358398 118.89501953 C-266.52792188 124.32300014 -273.34240045 130.03486447 -280 136 C-280.6069873 136.54382324 -281.21397461 137.08764648 -281.83935547 137.64794922 C-295.3586019 149.84378075 -307.72350869 162.81963604 -318.72509766 177.33544922 C-319.95433548 178.94037903 -321.21686373 180.51964242 -322.48046875 182.09765625 C-374.18618509 247.12026614 -393.99055361 334.16697609 -385.41040039 415.8269043 C-380.28308437 460.08539288 -367.55619436 502.64246608 -346.95458984 542.16455078 C-345.99546221 544.00872508 -345.05396855 545.861208 -344.11328125 547.71484375 C-331.92121456 571.45450374 -315.72412411 593.86606761 -297.48828125 613.328125 C-295.41513439 615.5542356 -293.41239535 617.81247618 -291.4375 620.125 C-284.88302257 627.66735322 -277.66915789 634.60286025 -270 641 C-269.46165527 641.45213867 -268.92331055 641.90427734 -268.36865234 642.37011719 C-199.36026765 700.13856974 -110.94409981 726.18720203 -21.52734375 718.75390625 C52.71689645 711.80175891 122.42929805 681.49536386 177.14453125 630.6328125 C179.66303899 628.31068635 182.22307741 626.05461464 184.8125 623.8125 C188.19136733 620.82047973 191.17078988 617.67792805 194.078125 614.23046875 C196.34817319 611.59592096 198.73769856 609.0912456 201.125 606.5625 C207.99627161 599.15506189 214.00022053 591.11681052 220 583 C220.49612793 582.33935547 220.99225586 581.67871094 221.50341797 580.99804688 C241.4378723 554.38325253 256.12049483 524.32129072 267 493 C267.28713867 492.17580566 267.57427734 491.35161133 267.87011719 490.50244141 C277.94968288 461.14525038 282.69995143 430.86190379 285 400 C262.54433803 399.85443668 240.13921535 400.2197578 217.69549561 400.92712402 C211.47820799 401.12238012 205.26069306 401.31006366 199.04310989 401.49563599 C196.92135449 401.55991238 194.79971505 401.6272588 192.67807007 401.69506836 C183.7802527 401.96624721 174.90091505 402.05024879 166 402 C165.18684387 390.80660093 164.87132463 379.71984735 164.9375 368.5 C164.94253584 366.98307443 164.94709499 365.4661472 164.95117188 363.94921875 C164.96198764 360.2994436 164.97913154 356.64973321 165 353 C172.59091654 352.01975791 180.12355755 351.72332499 187.77124023 351.51928711 C189.14236838 351.48004307 190.51348737 351.44047816 191.88459778 351.40061951 C195.58754385 351.2939434 199.29060436 351.19191494 202.99370837 351.09088969 C206.89309485 350.98384759 210.79237164 350.87293811 214.69166565 350.7625885 C221.24741702 350.57765724 227.80324565 350.39569646 234.35913086 350.21557617 C241.89294651 350.00855747 249.42662907 349.79715615 256.96025318 349.58328813 C264.25103975 349.37639522 271.54190495 349.17241242 278.83281136 348.96978951 C281.91327482 348.8841468 284.99370998 348.79757545 288.07412529 348.71021843 C318.84010793 347.83984193 318.84010793 347.83984193 334 348 C335.1074058 356.58672253 335.1074058 356.58672253 335.26879883 360.05297852 C335.30146347 360.74885071 335.33412811 361.4447229 335.36778259 362.16168213 C335.39723465 362.89336609 335.42668671 363.62505005 335.45703125 364.37890625 C335.48902115 365.17157898 335.52101105 365.96425171 335.55397034 366.78094482 C337.99172815 432.12504503 324.41029895 499.4520946 294.19384766 557.69042969 C292.80727163 560.37284467 291.44149299 563.06551002 290.07421875 565.7578125 C289.02945096 567.79728765 287.98388013 569.83635162 286.9375 571.875 C286.45506836 572.82600586 285.97263672 573.77701172 285.47558594 574.75683594 C282.12347115 581.23276909 278.27252654 587.09981481 274 593 C273.07016091 594.34788063 272.14530083 595.69921607 271.2265625 597.0546875 C263.00141295 609.14128589 254.37591054 620.77035552 245 632 C244.21109375 632.97582031 243.4221875 633.95164062 242.609375 634.95703125 C235.8043159 643.25097732 228.32975809 650.85860297 220.75 658.4375 C219.97086746 659.2179921 219.97086746 659.2179921 219.17599487 660.01425171 C210.90731185 668.28130392 202.3348636 676.01285563 193.25 683.375 C192.55825684 683.93590332 191.86651367 684.49680664 191.15380859 685.07470703 C178.46873913 695.31121541 165.35475901 704.733456 151.375 713.125 C149.40338796 714.3146769 147.43202895 715.50477326 145.4609375 716.6953125 C144.51508789 717.26314453 143.56923828 717.83097656 142.59472656 718.41601562 C140.44770634 719.72669188 138.3542645 721.0880478 136.2578125 722.4765625 C130.0297715 726.38039957 123.18902692 729.23558959 116.5 732.25 C115.76868866 732.58081573 115.03737732 732.91163147 114.28390503 733.25247192 C74.62598651 751.15007937 33.95320599 761.82411431 -9 768 C-10.82591675 768.26804443 -10.82591675 768.26804443 -12.6887207 768.54150391 C-76.35198413 777.35663395 -144.61396082 763.59052186 -203.25756836 739.1003418 C-205.99525355 738.00190441 -208.75523816 737.02584722 -211.54296875 736.0625 C-217.24753278 734.01623144 -222.41584445 731.2814569 -227.6875 728.3125 C-228.63794189 727.78430664 -229.58838379 727.25611328 -230.56762695 726.71191406 C-232.48314094 725.64607392 -234.39683888 724.57696264 -236.30859375 723.50439453 C-238.72844528 722.15178884 -241.15769539 720.81921633 -243.59375 719.49609375 C-250.53041868 715.70628036 -257.04925613 711.73791364 -263.3671875 706.95703125 C-266.13775801 704.89760124 -268.98273129 703.00912805 -271.875 701.125 C-283.25695818 693.590878 -293.67578782 684.9006595 -304 676 C-305.05767578 675.09507812 -305.05767578 675.09507812 -306.13671875 674.171875 C-317.26342191 664.56138925 -328.32705603 654.59910589 -337.91015625 643.4296875 C-339.54900879 641.52432997 -341.20338988 639.63769106 -342.87109375 637.7578125 C-348.91868493 630.90917911 -354.73990678 623.92971186 -360.3125 616.6875 C-360.88178223 615.95217041 -361.45106445 615.21684082 -362.03759766 614.45922852 C-362.81756104 613.43333618 -362.81756104 613.43333618 -363.61328125 612.38671875 C-364.07516846 611.78045654 -364.53705566 611.17419434 -365.01293945 610.54956055 C-366 609 -366 609 -366 607 C-366.99 606.67 -367.98 606.34 -369 606 C-370.359375 604.13671875 -370.359375 604.13671875 -371.75 601.6875 C-372.27086182 600.78483398 -372.79172363 599.88216797 -373.32836914 598.95214844 C-373.88000732 597.97793945 -374.43164551 597.00373047 -375 596 C-379.55563349 588.09201098 -384.2267615 580.33231928 -389.39648438 572.80859375 C-392.2433942 568.55802978 -394.1840108 564.30468825 -396.0012207 559.52685547 C-397.27663304 556.30013397 -398.79980725 553.23407011 -400.34790039 550.13134766 C-417.66718715 515.28389831 -427.38982336 478.15097638 -434 440 C-434.28230469 438.39463379 -434.28230469 438.39463379 -434.5703125 436.75683594 C-436.96026517 422.87709096 -437.70880855 409.06748157 -438 395 C-438.02723145 394.03707031 -438.05446289 393.07414062 -438.08251953 392.08203125 C-439.60168338 335.4430169 -428.17839161 277.42274282 -404.79614258 225.7800293 C-404.05429655 224.12139717 -403.35916967 222.44208697 -402.66796875 220.76171875 C-400.35298254 215.34223351 -397.53936174 210.15744788 -394.8125 204.9375 C-394.23604736 203.83092041 -393.65959473 202.72434082 -393.06567383 201.58422852 C-388.89239333 193.61185592 -384.58496925 185.7431958 -380 178 C-379.34 178 -378.68 178 -378 178 C-377.65388672 176.98679688 -377.65388672 176.98679688 -377.30078125 175.953125 C-375.66012186 172.22838476 -373.51236475 169.07871851 -371.1875 165.75 C-370.70466553 165.05471191 -370.22183105 164.35942383 -369.72436523 163.64306641 C-351.53885594 137.690315 -330.36518676 112.40299751 -306 92 C-305.07316406 91.195625 -304.14632812 90.39125 -303.19140625 89.5625 C-297.06072121 84.26111412 -290.77831569 79.20048758 -284.3125 74.3125 C-283.61705078 73.78309814 -282.92160156 73.25369629 -282.20507812 72.70825195 C-277.24349737 69 -277.24349737 69 -275 69 C-274.67 68.01 -274.34 67.02 -274 66 C-272.02905273 64.53295898 -272.02905273 64.53295898 -269.43359375 62.99609375 C-268.48242676 62.42576416 -267.53125977 61.85543457 -266.55126953 61.26782227 C-265.52372559 60.66381592 -264.49618164 60.05980957 -263.4375 59.4375 C-261.29735929 58.16543737 -259.15803686 56.89199704 -257.01953125 55.6171875 C-255.45259521 54.68471191 -255.45259521 54.68471191 -253.85400391 53.73339844 C-251.54990759 52.33399007 -249.30131833 50.89972617 -247.07421875 49.3828125 C-177.78784647 2.39146336 -81.37116105 -10.9093181 0 0 Z M-110 11 C-111.13405273 11.18191895 -112.26810547 11.36383789 -113.43652344 11.55126953 C-155.19490798 18.38879255 -195.2306848 32.72152324 -232.27197266 53.05810547 C-233.80058299 53.89130392 -235.34274445 54.69953533 -236.88671875 55.50390625 C-272.80501321 74.3489307 -306.29450637 102.69335278 -333 133 C-333.48774902 133.54833496 -333.97549805 134.09666992 -334.47802734 134.66162109 C-348.14644248 150.07134879 -359.80495154 166.73177339 -371 184 C-371.40202637 184.6197168 -371.80405273 185.23943359 -372.21826172 185.87792969 C-374.57100035 189.5334065 -376.80405262 193.2485899 -379 197 C-379.391875 197.65564941 -379.78375 198.31129883 -380.1875 198.98681641 C-425.83520904 275.86075934 -437.60612642 371.84626359 -416.64428711 476.62036133 C-409.24944739 504.17507823 -399.18041833 530.76726063 -385.99755859 556.07861328 C-384.96058625 558.0759144 -383.94298687 560.08241284 -382.92578125 562.08984375 C-371.51133721 584.38975714 -357.15289669 604.88068221 -341 624 C-340.58451401 624.49750259 -340.16902802 624.99500519 -339.74095154 625.50758362 C-332.57577519 634.08534727 -325.0952997 642.2239395 -317.16333008 650.09741211 C-315.42745269 651.82248477 -313.7026491 653.55811991 -311.97851562 655.29492188 C-305.29418509 661.98756692 -298.43954462 668.14574647 -291 674 C-289.7799333 675.00072196 -288.5621434 676.00423269 -287.34765625 677.01171875 C-273.41460824 688.41338091 -258.64281809 699.06008683 -243 708 C-242.25153809 708.42958008 -241.50307617 708.85916016 -240.73193359 709.30175781 C-166.58992596 751.53216544 -78.59711196 769.90068385 6 756 C7.29260742 755.79101074 8.58521484 755.58202148 9.91699219 755.36669922 C51.86777234 748.38884082 91.63653585 734.31959655 129.00683594 714.07666016 C130.68839762 713.16832025 132.37843962 712.27570539 134.0703125 711.38671875 C158.28642008 698.55579608 180.5746235 681.78542325 200.63671875 663.1796875 C202.65759322 661.31580659 204.7145976 659.52548793 206.8125 657.75 C215.84245002 649.89543604 224.31993956 641.17150075 232 632 C232.804375 631.07316406 233.60875 630.14632812 234.4375 629.19140625 C296.07070815 557.94823935 329.73602736 462.99198684 325 358 C311.64996235 357.89022953 298.32402376 358.23695386 284.98046875 358.62109375 C282.66905666 358.68612042 280.35763993 358.75098217 278.04621887 358.81568909 C273.21770224 358.95133311 268.38923147 359.08847817 263.56079102 359.22680664 C257.45451057 359.40169349 251.34815073 359.57358816 245.24175549 359.74441433 C240.46852397 359.87816296 235.69532888 360.01317718 230.92214394 360.14857674 C228.67531462 360.21223878 226.42847732 360.27561998 224.18163109 360.33868217 C207.78375161 360.80030212 191.392588 361.37653516 175 362 C175 371.9 175 381.8 175 392 C204.35899658 391.46772812 233.71051241 390.76399018 263.0625 389.9375 C264.29102692 389.90291058 264.29102692 389.90291058 265.54437256 389.86762238 C275.69633726 389.58150732 285.8482102 389.29225699 296 389 C295.83981888 389.93144836 295.67963776 390.86289673 295.51460266 391.8225708 C295.02672707 394.83497292 294.77110325 397.7516131 294.60546875 400.796875 C290.34291601 472.48478877 266.13562594 541.67691122 221 598 C220.19949219 599.01320313 219.39898438 600.02640625 218.57421875 601.0703125 C213.45708488 607.450824 207.98937097 613.47879671 202.42041016 619.46191406 C200.97898411 621.02275698 199.55574669 622.5984711 198.13671875 624.1796875 C193.66811535 629.14745159 189.19290141 633.95247085 184.05859375 638.25 C181.64963541 640.29784315 179.36812567 642.46152569 177.0625 644.625 C144.20548884 674.4297205 103.72130713 696.50803092 62 711 C61.17580566 711.28713867 60.35161133 711.57427734 59.50244141 711.87011719 C40.50608822 718.39236891 21.00848559 722.72064148 1.1875 725.8125 C0.51594879 725.9177298 -0.15560242 726.02295959 -0.84750366 726.13137817 C-13.16541553 728.04064412 -25.31619236 729.14873048 -37.78125 729.203125 C-38.86509979 729.21018463 -39.94894958 729.21724426 -41.06564331 729.22451782 C-86.47197941 729.4531393 -86.47197941 729.4531393 -107 726 C-108.8557666 725.69400879 -108.8557666 725.69400879 -110.74902344 725.38183594 C-128.17700972 722.45797153 -145.17698304 718.43678157 -162 713 C-162.82371094 712.7417041 -163.64742188 712.4834082 -164.49609375 712.21728516 C-219.66115236 694.81615139 -274.64317051 659.48608921 -310.77734375 613.77734375 C-312.73361702 611.33286169 -314.76113526 608.97416621 -316.82739258 606.62280273 C-377.21180119 537.35036414 -402.42377554 439.80903435 -396.53320312 349.55151367 C-393.20699392 309.21386816 -382.56005275 269.44372757 -365 233 C-364.67177246 232.30793457 -364.34354492 231.61586914 -364.00537109 230.90283203 C-344.74012384 190.38814413 -315.75287101 151.62351191 -281 123 C-280.47277344 122.55897949 -279.94554687 122.11795898 -279.40234375 121.66357422 C-271.50685404 115.06623603 -263.44869807 108.73729303 -255.125 102.6875 C-254.34592285 102.11821777 -253.5668457 101.54893555 -252.76416016 100.96240234 C-252.04019043 100.44242676 -251.3162207 99.92245117 -250.5703125 99.38671875 C-249.60762451 98.69388794 -249.60762451 98.69388794 -248.62548828 97.98706055 C-247 97 -247 97 -245 97 C-243.87768555 98.50268555 -243.87768555 98.50268555 -242.63671875 100.63671875 C-242.16911133 101.43029785 -241.70150391 102.22387695 -241.21972656 103.04150391 C-240.7140918 103.91468262 -240.20845703 104.78786133 -239.6875 105.6875 C-238.59379142 107.543761 -237.49869638 109.39920567 -236.40234375 111.25390625 C-235.83757324 112.21184082 -235.27280273 113.16977539 -234.69091797 114.15673828 C-232.09949312 118.51419334 -229.42889875 122.82094984 -226.75 127.125 C-225.67168097 128.86055655 -224.59356174 130.59623724 -223.515625 132.33203125 C-222.95552734 133.2338916 -222.39542969 134.13575195 -221.81835938 135.06494141 C-217.68368039 141.73882845 -213.57809713 148.43072396 -209.46777344 155.11962891 C-208.8287207 156.15909668 -208.18966797 157.19856445 -207.53125 158.26953125 C-206.92925781 159.2538916 -206.32726562 160.23825195 -205.70703125 161.25244141 C-204.62488197 162.99421887 -203.52052474 164.72255064 -202.38671875 166.43115234 C-201.18786907 168.24305016 -200.08253712 170.11629949 -199 172 C-200.28578891 175.85736673 -201.89033216 176.59855795 -205.1875 178.9375 C-222.31166319 191.42451412 -238.08586827 206.17028408 -251 223 C-251.82580023 224.04768191 -252.65267257 225.09451942 -253.48046875 226.140625 C-262.44522144 237.5373324 -270.03333113 249.51026527 -277.00439453 262.20996094 C-277.88403134 263.79149529 -278.79701565 265.35438195 -279.71484375 266.9140625 C-280.18019531 267.70554687 -280.64554688 268.49703125 -281.125 269.3125 C-281.51945313 269.96863281 -281.91390625 270.62476563 -282.3203125 271.30078125 C-283.29219558 273.19998366 -283.29219558 273.19998366 -282 276 C-280.07555035 277.33981137 -280.07555035 277.33981137 -277.64453125 278.49609375 C-276.72373779 278.9657959 -275.80294434 279.43549805 -274.85424805 279.91943359 C-273.85047119 280.42039551 -272.84669434 280.92135742 -271.8125 281.4375 C-269.68918554 282.52033598 -267.56681086 283.60501647 -265.4453125 284.69140625 C-263.82351074 285.51922607 -263.82351074 285.51922607 -262.16894531 286.36376953 C-257.4664728 288.79181043 -252.82467186 291.32500419 -248.1875 293.875 C-240.14461791 298.28706625 -232.08095992 302.65804493 -224 307 C-213.16083253 312.82683569 -202.34820292 318.70079375 -191.55126953 324.60546875 C-187.03594956 327.07355561 -182.5178707 329.53658626 -178 332 C-178.52578461 335.3720678 -179.08985605 338.62814476 -180.12109375 341.8828125 C-180.3334668 342.56827148 -180.54583984 343.25373047 -180.76464844 343.95996094 C-180.98668945 344.67442383 -181.20873047 345.38888672 -181.4375 346.125 C-190.44715444 376.26428625 -188.02568593 407.62174682 -175.91796875 436.53125 C-175 439 -175 439 -175 442 C-177.23706055 443.69482422 -177.23706055 443.69482422 -180.38671875 445.5546875 C-180.95101593 445.89236649 -181.51531311 446.23004547 -182.09671021 446.57795715 C-183.95455162 447.68698039 -185.82094905 448.78071077 -187.6875 449.875 C-188.97884849 450.64304467 -190.2694527 451.41234205 -191.55932617 452.18286133 C-194.15688017 453.73409781 -196.75686172 455.28113736 -199.35839844 456.82568359 C-204.21544003 459.71693029 -209.01686238 462.6957949 -213.8125 465.6875 C-226.47851531 473.5603977 -239.20702022 481.33499592 -252 489 C-252.24363281 488.36964844 -252.48726562 487.73929688 -252.73828125 487.08984375 C-253.75562578 484.59845204 -254.81828774 482.14664245 -255.91796875 479.69140625 C-271.18450681 445.37633852 -275.53249244 412.12369094 -278 375 C-281.12497937 374.97043324 -284.24992177 374.95301457 -287.375 374.9375 C-288.24511719 374.92912109 -289.11523438 374.92074219 -290.01171875 374.91210938 C-296.06860079 374.88967648 -301.98637142 375.28208768 -308 376 C-306.605618 429.1020727 -295.59397813 480.67110929 -265 525 C-264.29230469 526.02867187 -263.58460938 527.05734375 -262.85546875 528.1171875 C-260.95476168 530.78824224 -258.995606 533.39920062 -257 536 C-256.61054199 536.51804199 -256.22108398 537.03608398 -255.81982422 537.56982422 C-248.49018829 547.31145804 -240.45200272 556.22375165 -232 565 C-231.2471875 565.7940625 -230.494375 566.588125 -229.71875 567.40625 C-224.54083425 572.75393348 -218.84759444 577.40786892 -213 582 C-212.36352539 582.50225098 -211.72705078 583.00450195 -211.07128906 583.52197266 C-201.7033221 590.88821833 -192.24573788 597.89571364 -182 604 C-181.30696777 604.41958984 -180.61393555 604.83917969 -179.89990234 605.27148438 C-123.2872744 639.20685969 -53.07980509 647.84391317 10.5625 632.125 C14.38925356 631.13105413 18.19821154 630.08532905 22 629 C22.78600586 628.77618652 23.57201172 628.55237305 24.38183594 628.32177734 C44.1702736 622.53394029 63.44034294 613.77656266 81 603 C81.598125 602.63696777 82.19625 602.27393555 82.8125 601.89990234 C91.65724046 596.49822491 99.95017517 590.52159134 108 584 C108.52996582 583.57444824 109.05993164 583.14889648 109.60595703 582.71044922 C125.73260807 569.66203541 140.86219152 554.85367793 153 538 C153.87731896 536.80578001 154.75492927 535.61177401 155.6328125 534.41796875 C165.26085165 521.22379095 173.23886071 507.34788178 181 493 C177.21929439 489.76646037 173.24672698 487.36764746 168.84765625 485.09375 C168.1598558 484.73251038 167.47205536 484.37127075 166.76341248 483.99908447 C165.29383355 483.22785137 163.82301761 482.4589715 162.35107422 481.69226074 C158.47969145 479.67541652 154.61750308 477.64108219 150.75390625 475.609375 C149.99022736 475.20841614 149.22654846 474.80745728 148.43972778 474.39434814 C142.42884657 471.23557164 136.45224038 468.01805183 130.5 464.75 C121.50776589 459.81526869 112.48021084 454.94898412 103.44140625 450.10009766 C95.99739617 446.0986055 88.59414598 442.03072212 81.25292969 437.84326172 C77.84026089 435.73012762 77.84026089 435.73012762 74 435 C74.31453125 434.19820313 74.6290625 433.39640625 74.953125 432.5703125 C77.55114665 425.66833932 79.66133193 418.83106621 81.25 411.625 C81.41274414 410.88910645 81.57548828 410.15321289 81.74316406 409.39501953 C87.55962126 381.97369637 83.99017757 352.31259709 72 327 C72 326.34 72 325.68 72 325 C73.96166992 323.60229492 73.96166992 323.60229492 76.73046875 321.98046875 C77.75003662 321.37726807 78.76960449 320.77406738 79.82006836 320.15258789 C80.9313208 319.50410889 82.04257324 318.85562988 83.1875 318.1875 C84.92128461 317.16407627 86.65330299 316.13771109 88.38514709 315.11100769 C89.56092049 314.41397715 90.73714374 313.71770492 91.9138031 313.02217102 C97.13037895 309.93541798 102.29241515 306.76657637 107.4375 303.5625 C109.15099417 302.49731943 110.86453677 301.43221675 112.578125 300.3671875 C113.45146484 299.82416992 114.32480469 299.28115234 115.22460938 298.72167969 C120.37028247 295.52962421 125.52967365 292.35986444 130.6875 289.1875 C131.76330322 288.52468018 132.83910645 287.86186035 133.94750977 287.17895508 C139.11102602 283.99901974 144.27855226 280.82654272 149.46180725 277.6789093 C151.85817561 276.22302072 154.25201681 274.76300577 156.6456604 273.30264282 C158.33642948 272.27347774 160.03084691 271.25031395 161.7253418 270.22729492 C162.75183838 269.60056885 163.77833496 268.97384277 164.8359375 268.328125 C165.73876465 267.7805957 166.6415918 267.23306641 167.57177734 266.66894531 C170.01932506 264.98671766 171.97445268 263.16412188 174 261 C171.90684497 257.36853435 169.79864647 253.74603125 167.6875 250.125 C167.09259766 249.09246094 166.49769531 248.05992187 165.88476562 246.99609375 C165.30791016 246.00996094 164.73105469 245.02382813 164.13671875 244.0078125 C163.60780029 243.09660645 163.07888184 242.18540039 162.53393555 241.24658203 C161.03838796 238.7552157 161.03838796 238.7552157 158 237 C146.00995563 244.27502486 134.03682691 251.57521793 122.11914062 258.96826172 C111.90388227 265.30438014 101.66244989 271.59785292 91.42285156 277.89453125 C87.86184236 280.08465839 84.30196223 282.27661715 80.7421875 284.46875 C78.96455771 285.56327749 77.18691564 286.65778505 75.40927124 287.75228882 C73.72692654 288.78822241 72.04473583 289.82440606 70.36254883 290.8605957 C69.3392749 291.49054443 68.31600098 292.12049316 67.26171875 292.76953125 C66.36412842 293.32229736 65.46653809 293.87506348 64.54174805 294.44458008 C63.28358276 295.21451294 63.28358276 295.21451294 62 296 C61.10893555 296.57258545 60.21787109 297.1451709 59.29980469 297.73510742 C57 299 57 299 54.94140625 298.46875 C52.59450566 296.69322762 50.84014202 294.74760702 48.9375 292.5 C29.77622893 270.81504932 4.46489081 257.05818341 -23.5625 250.625 C-24.65075073 250.37314941 -24.65075073 250.37314941 -25.76098633 250.11621094 C-26.4598999 249.96700195 -27.15881348 249.81779297 -27.87890625 249.6640625 C-28.4829126 249.53467285 -29.08691895 249.4052832 -29.70922852 249.27197266 C-33.14587366 248.86395574 -36.54025726 248.96163114 -40 249 C-40.01981934 248.01386719 -40.03963867 247.02773438 -40.06005859 246.01171875 C-40.57242994 220.80834231 -41.19191188 195.60764611 -41.86895752 170.40820312 C-41.95679313 167.13481326 -42.04258299 163.86137945 -42.12664795 160.58789062 C-42.22718081 156.67885732 -42.3320153 152.76996202 -42.44007492 148.86112976 C-42.47965342 147.40488084 -42.51777018 145.94859137 -42.55434036 144.49226379 C-42.60510269 142.48236662 -42.66179046 140.47262172 -42.71875 138.46289062 C-42.74904297 137.33065063 -42.77933594 136.19841064 -42.81054688 135.03186035 C-42.98373827 132.26024006 -43.37805918 129.70226362 -44 127 C-53.7425215 126.87719511 -63.28688818 127.19064479 -73 128 C-73.08318826 145.50629598 -72.88851313 162.98188849 -72.37890625 180.48046875 C-72.31379006 182.80250864 -72.24893084 185.12455575 -72.18431091 187.4466095 C-72.04966597 192.2555748 -71.91245091 197.06445713 -71.77319336 201.87329102 C-71.59612726 207.99261345 -71.42494689 214.11208367 -71.25558567 220.23162365 C-71.1229692 225.00441941 -70.98761479 229.77713452 -70.85142326 234.54982948 C-70.78729836 236.80573742 -70.72390867 239.0616664 -70.66131783 241.31761742 C-70.31966619 253.56387223 -69.8846826 265.7795272 -69 278 C-67.55091499 278.01707001 -67.55091499 278.01707001 -66.07255554 278.03448486 C-35.14883906 278.4268151 -7.45089277 282.23980802 17 303 C17.72445313 303.58007812 18.44890625 304.16015625 19.1953125 304.7578125 C37.62810029 320.1077647 49.79288345 344.38395993 53 368 C53.10957031 368.80308594 53.21914063 369.60617187 53.33203125 370.43359375 C55.96729503 392.95631488 51.5663044 414.33902648 40.96484375 434.21875 C38.74929889 438.37863999 36.86821069 442.67531209 35 447 C35.60134766 447.32572998 36.20269531 447.65145996 36.82226562 447.98706055 C38.65218383 448.97826624 40.48209888 449.96947776 42.31201172 450.96069336 C44.46986669 452.1295177 46.62774497 453.29829901 48.78564453 454.46704102 C54.19877308 457.39892413 59.61162405 460.33131503 65.0234375 463.265625 C75.38186637 468.88097472 85.74792009 474.4816848 96.125 480.0625 C104.49035893 484.56287906 112.84674987 489.07915709 121.1875 493.625 C122.07775879 494.10976807 122.96801758 494.59453613 123.88525391 495.09399414 C127.61505408 497.13003216 131.32466571 499.18286754 134.98828125 501.3359375 C137.71828228 503.16120582 137.71828228 503.16120582 140 503 C136.0205911 511.10542761 130.63585871 518.01015067 125 525 C124.57976563 525.52609863 124.15953125 526.05219727 123.7265625 526.59423828 C111.26189944 542.11216313 97.2054093 555.45604515 81 567 C80.09096924 567.66008057 80.09096924 567.66008057 79.16357422 568.33349609 C44.47113772 593.38861034 0.73276652 607.86375303 -42 609 C-42.67949707 609.02046387 -43.35899414 609.04092773 -44.05908203 609.06201172 C-72.51987852 609.8173871 -101.21206333 605.78071176 -128 596 C-128.80598633 595.70754395 -129.61197266 595.41508789 -130.44238281 595.11376953 C-172.54122747 579.59977859 -209.37999993 551.92294128 -235 515 C-230.2354348 510.87138312 -224.88742598 507.79290595 -219.5 504.5625 C-217.41235251 503.30145629 -215.32512124 502.0397233 -213.23828125 500.77734375 C-212.18850098 500.14296387 -211.1387207 499.50858398 -210.05712891 498.85498047 C-205.58283176 496.14010188 -201.13408969 493.38493732 -196.6875 490.625 C-195.85549072 490.11122803 -195.02348145 489.59745605 -194.16625977 489.06811523 C-189.71006526 486.31436274 -185.26777728 483.54074312 -180.84526062 480.73330688 C-178.46570347 479.22548748 -176.07992724 477.72768575 -173.69326782 476.23114014 C-172.52972277 475.49810251 -171.36900511 474.76055623 -170.21127319 474.01837158 C-168.59470377 472.98262994 -166.96746955 471.96359129 -165.33984375 470.9453125 C-164.40519287 470.35250488 -163.47054199 469.75969727 -162.50756836 469.14892578 C-160 468 -160 468 -157.7578125 468.22900391 C-155.52524931 469.20823093 -154.57596535 470.33909946 -153.0625 472.25 C-129.77357401 499.76434295 -98.87679678 514.81858546 -63 518 C-53.00579564 518.50067365 -42.99841965 518.18515592 -33 518 C-33 508.43 -33 498.86 -33 489 C-35.0521875 488.96261719 -37.104375 488.92523437 -39.21875 488.88671875 C-73.06816879 488.13524551 -101.34679638 481.7101029 -126.6875 457.75 C-140.36436922 443.44690051 -149.04537836 426.01611867 -154 407 C-154.36931641 405.60007812 -154.36931641 405.60007812 -154.74609375 404.171875 C-160.41332508 377.43817684 -154.11300829 350.75595387 -140.80810547 327.49438477 C-139.80137472 325.70081108 -138.89201817 323.85329893 -138 322 C-139.23194734 318.30415799 -140.07459518 318.12525672 -143.43359375 316.35546875 C-144.37928223 315.85072021 -145.3249707 315.34597168 -146.29931641 314.82592773 C-147.33491699 314.28524658 -148.37051758 313.74456543 -149.4375 313.1875 C-151.6419513 312.01567056 -153.84637754 310.84379396 -156.05078125 309.671875 C-157.19756348 309.06666016 -158.3443457 308.46144531 -159.52587891 307.83789062 C-165.07556268 304.90197921 -170.59919328 301.91803144 -176.125 298.9375 C-177.75779907 298.05904419 -177.75779907 298.05904419 -179.42358398 297.1628418 C-187.17721794 292.99065656 -194.91305522 288.7869086 -202.63500977 284.55639648 C-207.73183953 281.76805687 -212.84412205 279.01080344 -217.97265625 276.28125 C-219.16345672 275.64591816 -220.35421211 275.01050182 -221.54492188 274.375 C-223.83948896 273.15191038 -226.1362689 271.93296049 -228.43554688 270.71875 C-229.47904297 270.161875 -230.52253906 269.605 -231.59765625 269.03125 C-232.52070557 268.54205078 -233.44375488 268.05285156 -234.39477539 267.54882812 C-237.14720145 265.91248749 -239.54742268 264.05355238 -242 262 C-233.21322485 248.25335463 -223.24076838 235.80634163 -212 224 C-211.07960938 223.01773438 -211.07960938 223.01773438 -210.140625 222.015625 C-197.27709554 208.66205632 -181.158608 198.20397831 -165.58203125 188.3125 C-162.96595672 186.64509706 -160.44197832 184.91824654 -158 183 C-159.31066901 179.5028139 -160.84830319 176.39985749 -162.80078125 173.21875 C-163.35878418 172.30569092 -163.91678711 171.39263184 -164.49169922 170.4519043 C-165.09256348 169.47777588 -165.69342773 168.50364746 -166.3125 167.5 C-167.25246826 165.96629761 -167.25246826 165.96629761 -168.21142578 164.40161133 C-170.13611356 161.2647334 -172.06679816 158.13163692 -174 155 C-174.55187988 154.10587402 -175.10375977 153.21174805 -175.67236328 152.29052734 C-178.30960326 148.02160199 -180.95243888 143.75617323 -183.59765625 139.4921875 C-188.02081167 132.3585681 -192.41874924 125.20943271 -196.81201172 118.05737305 C-200.00511224 112.86019095 -203.20333252 107.66660318 -206.42424011 102.48661804 C-207.92406645 100.07394046 -209.42068693 97.65928204 -210.91708374 95.24447632 C-211.63555421 94.08708792 -212.35561247 92.93068358 -213.07730103 91.77529907 C-214.07635316 90.17559839 -215.06957601 88.57226158 -216.0625 86.96875 C-216.91521484 85.59879883 -216.91521484 85.59879883 -217.78515625 84.20117188 C-219 82 -219 82 -219 80 C-170.24665684 52.49985518 -114.71543925 38.82341438 -59 37 C-57.75863281 36.95746094 -56.51726562 36.91492188 -55.23828125 36.87109375 C-2.70100225 36.01913787 51.96199028 47.48099514 99 71 C98.42580512 74.54430247 97.51975863 77.25813119 95.76953125 80.38671875 C95.30353516 81.22912109 94.83753906 82.07152344 94.35742188 82.93945312 C93.84759766 83.84630859 93.33777344 84.75316406 92.8125 85.6875 C91.71400865 87.67011045 90.61638833 89.65320369 89.51953125 91.63671875 C88.94283691 92.67618652 88.36614258 93.7156543 87.77197266 94.78662109 C84.80462557 100.16774845 81.90473188 105.58489659 79 111 C74.2196532 119.8947779 69.40774538 128.77135376 64.56103516 137.63012695 C61.75888217 142.75772004 58.97563011 147.89508447 56.2109375 153.04296875 C55.89110901 153.638284 55.57128052 154.23359924 55.24176025 154.84695435 C53.67329448 157.76724286 52.10687405 160.68859253 50.54296875 163.61132812 C49.97964844 164.66126953 49.41632813 165.71121094 48.8359375 166.79296875 C48.33626465 167.7264917 47.8365918 168.66001465 47.32177734 169.62182617 C46 172 46 172 44 175 C44 175.99 44 176.98 44 178 C47.95466208 180.17341896 51.91431341 182.33758201 55.875 184.5 C57.00292969 185.12003906 58.13085938 185.74007812 59.29296875 186.37890625 C60.36933594 186.96542969 61.44570313 187.55195313 62.5546875 188.15625 C63.54968262 188.70087891 64.54467773 189.24550781 65.56982422 189.80664062 C67.84797621 191.14692717 67.84797621 191.14692717 70 191 C70.48243164 190.08524902 70.96486328 189.17049805 71.46191406 188.22802734 C87.79994258 157.25963756 87.79994258 157.25963756 95.66113281 142.92724609 C99.4766833 135.97063768 103.24433756 128.98910895 107 122 C113.28525503 110.30694852 119.62702779 98.64544783 126 87 C130.20258856 87.90646304 133.46307718 89.91255161 137.0625 92.1875 C137.75714355 92.62529785 138.45178711 93.0630957 139.16748047 93.51416016 C153.28469965 102.5575638 166.54893515 112.78405712 179 124 C179.56444824 124.50805176 180.12889648 125.01610352 180.71044922 125.53955078 C205.98769246 148.39579424 225.85531028 174.50520363 244.57324219 202.84375 C247.0384526 206.5694068 249.51967209 210.28439709 252 214 C260.49162581 209.2273344 268.82782478 204.30886282 277 199 C273.04904403 191.44595384 268.72116601 184.32283215 263.875 177.3125 C262.89539307 175.88683716 262.89539307 175.88683716 261.89599609 174.43237305 C253.44563214 162.20743088 244.55679056 150.38334439 235 139 C234.20335937 138.01773438 233.40671875 137.03546875 232.5859375 136.0234375 C225.9789796 127.98311399 218.77233483 120.55803392 211.4375 113.1875 C210.95480652 112.69963013 210.47211304 112.21176025 209.97479248 111.70910645 C203.33080333 105.00900586 196.39312884 98.86517189 189 93 C187.76850179 91.98720338 186.53901516 90.97195049 185.3125 89.953125 C134.65561442 48.40064554 72.60091386 21.77882978 8.125 11.1875 C6.93865967 10.9922876 5.75231934 10.7970752 4.5300293 10.59594727 C-14.35439907 7.68283481 -33.21860722 6.58858407 -52.3125 6.625 C-53.86798553 6.62531723 -53.86798553 6.62531723 -55.45489502 6.62564087 C-73.92484154 6.66294496 -91.78440026 7.96738921 -110 11 Z " fill="#FFFFFF" transform="translate(502,67)"/>
<path d="M0 0 C0.70125 -0.01675781 1.4025 -0.03351563 2.125 -0.05078125 C2.74375 0.06910156 3.3625 0.18898438 4 0.3125 C6.49118953 4.0492843 6.2065226 6.05701819 6.125 10.5 C6.10695313 11.77230469 6.08890625 13.04460937 6.0703125 14.35546875 C6.04710937 15.33128906 6.02390625 16.30710937 6 17.3125 C6.87398438 17.33376953 6.87398438 17.33376953 7.765625 17.35546875 C21.99407073 18.18322424 34.19074871 25.67862454 43.921875 35.75 C52.94937173 46.8816501 54.86681461 59.42970721 54 73.3125 C52.04896201 85.52698153 44.19482094 96.60768702 34.4375 103.9375 C25.77493893 109.72122499 16.4281151 113.0535626 6 113.3125 C6.061875 114.405625 6.12375 115.49875 6.1875 116.625 C6 120.3125 6 120.3125 4.9375 122.25 C1.92115289 123.90412584 -0.63666608 123.61825763 -4 123.3125 C-6 121.3125 -6 121.3125 -6.1953125 119.3671875 C-6.13020833 117.34895833 -6.06510417 115.33072917 -6 113.3125 C-6.9075 113.395 -7.815 113.4775 -8.75 113.5625 C-21.23707697 113.53722252 -32.94709783 105.91590048 -41.70703125 97.69921875 C-50.89391534 88.136721 -55.39334776 76.27930643 -55.21484375 63.08984375 C-54.14426933 49.25023629 -47.96936511 38.70551119 -38 29.3125 C-29.3216727 22.3291585 -17.31280955 16.740796 -6 17.3125 C-6.02320313 16.25289063 -6.04640625 15.19328125 -6.0703125 14.1015625 C-6.08906944 12.7135487 -6.10726972 11.3255273 -6.125 9.9375 C-6.14175781 9.23882812 -6.15851563 8.54015625 -6.17578125 7.8203125 C-6.19344267 5.98352514 -6.10303261 4.14648037 -6 2.3125 C-3.67471713 -0.01278287 -3.15334102 0.01738975 0 0 Z M-32.03125 41.1953125 C-39.77359416 49.56098098 -42.41670411 57.66561016 -42.265625 68.93359375 C-41.48375965 78.87938093 -36.22528318 85.73476578 -29 92.3125 C-22.55042276 97.25370837 -14.30633905 101.3125 -6 101.3125 C-6 77.5525 -6 53.7925 -6 29.3125 C-14.98574812 29.3125 -25.60805218 35.24150222 -32.03125 41.1953125 Z M6 30.3125 C6 53.7425 6 77.1725 6 101.3125 C19.0466205 98.05084487 29.7788981 93.8293047 37.3125 82.3046875 C38.36131055 80.33816771 39.21729755 78.39834055 40 76.3125 C40.23589844 75.68730469 40.47179687 75.06210937 40.71484375 74.41796875 C43.24472379 66.29920339 41.9230225 58.65185293 38.375 51.0625 C32.69607177 40.61056781 24.36157047 34.49429937 13.17578125 30.79296875 C10.55763751 30.13280757 10.55763751 30.13280757 6 30.3125 Z " fill="#FFFFFF" transform="translate(451,388.6875)"/>
</svg>
