<?xml version="1.0" encoding="UTF-8"?>
<svg version="1.1" xmlns="http://www.w3.org/2000/svg" width="901" height="901">
<path d="M0 0 C40.13181593 -0.83488313 78.93775075 3.1194983 117.8762207 13.0456543 C119.01373779 13.32747559 120.15125488 13.60929687 121.32324219 13.8996582 C130.58086269 16.26307064 139.53328053 19.20473957 148.50976562 22.4621582 C150.80428696 23.29224147 153.10448802 24.10490817 155.40551758 24.91674805 C165.00987255 28.35274987 174.08735973 32.39206864 183.11898804 37.12762451 C185.64198631 38.44571267 188.18788336 39.71751214 190.73168945 40.99487305 C228.47048243 60.26928135 263.03548597 85.46642252 292.62231445 115.85424805 C294.8476327 118.09620469 294.8476327 118.09620469 297.4074707 120.02612305 C299.98593695 122.13540635 301.87791758 124.30792124 303.9387207 126.9206543 C307.5696248 131.4501768 311.27627567 135.89615059 315.0637207 140.2956543 C315.55042236 140.8613916 316.03712402 141.42712891 316.53857422 142.01000977 C317.25291626 142.83976318 317.25291626 142.83976318 317.98168945 143.6862793 C318.45316406 144.23509766 318.92463867 144.78391602 319.41040039 145.34936523 C320.4306829 146.53006525 321.45792184 147.70477482 322.49047852 148.87475586 C325.12710006 151.88459047 327.47297126 154.68225143 329.2512207 158.2956543 C331.06902244 161.73055411 333.08939814 164.76286127 335.4387207 167.8581543 C341.59066505 176.1609664 346.6950694 185.11746502 351.8762207 194.0456543 C352.34463379 194.84648437 352.81304688 195.64731445 353.2956543 196.47241211 C370.9155254 226.77633546 382.31841911 259.46079942 391.8762207 293.0456543 C392.37037476 294.70673218 392.37037476 294.70673218 392.87451172 296.40136719 C393.93574971 300.26222497 394.77616641 304.13618714 395.5324707 308.06518555 C395.75355751 309.2102356 395.75355751 309.2102356 395.97911072 310.37841797 C399.96161406 331.29034769 402.36123629 351.77053086 402.8762207 373.0456543 C402.90796387 374.20838867 402.93970703 375.37112305 402.97241211 376.5690918 C403.79952304 411.39908823 399.79173937 445.78907565 391.67797852 479.63720703 C391.10546647 482.07108057 390.56100598 484.5116224 390.03540039 486.95605469 C387.81063707 497.18143818 384.70326768 506.88951533 381.0324707 516.68457031 C380.12733169 519.10518318 379.24305355 521.53270959 378.3605957 523.96166992 C374.5274804 534.37971516 369.9921114 544.20270803 364.8762207 554.0456543 C364.02020691 555.78699533 363.17014294 557.53129026 362.3293457 559.2800293 C350.75448212 583.10489266 336.40966101 605.35808326 319.8762207 626.0456543 C319.11696289 626.99827148 318.35770508 627.95088867 317.57543945 628.93237305 C312.54462467 635.16224213 307.26926819 641.12919146 301.8762207 647.0456543 C300.35522818 648.7538459 298.83439432 650.46217879 297.3137207 652.1706543 C293.3131052 656.61810993 289.14380581 660.85613477 284.8762207 665.0456543 C283.68125977 666.2502832 283.68125977 666.2502832 282.4621582 667.47924805 C274.70230166 675.1804954 266.39230619 682.20303539 257.8762207 689.0456543 C257.04219727 689.7365918 256.20817383 690.4275293 255.34887695 691.1394043 C250.2987853 695.2879788 245.11679414 698.91287586 239.55981445 702.3503418 C237.11132162 703.89713349 234.77965744 705.52990683 232.4387207 707.2331543 C200.83728807 729.49328295 148.54365314 761.0456543 108.8762207 761.0456543 C108.8762207 761.7056543 108.8762207 762.3656543 108.8762207 763.0456543 C102.76264128 764.17866842 96.64692352 765.29908226 90.52905273 766.40869141 C88.45520317 766.78655791 86.38193881 767.16765287 84.30932617 767.55224609 C72.12932029 769.80987406 60.26370403 771.60616438 47.8762207 772.0456543 C46.34709228 772.14387852 44.81830757 772.24794092 43.2902832 772.36206055 C-10.52576636 775.85732975 -66.26531699 769.04141636 -116.91357422 750.12646484 C-119.31676327 749.23111114 -121.72651329 748.3554437 -124.13745117 747.48120117 C-134.51972518 743.66954193 -144.34203257 739.19391596 -154.1237793 734.0456543 C-155.22262451 733.47838623 -156.32146973 732.91111816 -157.45361328 732.32666016 C-183.78561472 718.66523618 -208.81260993 703.0457913 -231.2331543 683.53393555 C-233.8913507 681.24573135 -236.61276743 679.08234473 -239.3737793 676.9206543 C-245.40239149 672.03907894 -250.77826484 666.52442573 -256.19897461 660.98461914 C-259.70111851 657.41340744 -263.21174521 654.16847803 -267.1237793 651.0456543 C-268.52391371 649.46008942 -269.8762973 647.83147925 -271.1862793 646.1706543 C-274.8171834 641.64113179 -278.52383426 637.195158 -282.3112793 632.7956543 C-282.79798096 632.22991699 -283.28468262 631.66417969 -283.78613281 631.08129883 C-284.26236084 630.52812988 -284.73858887 629.97496094 -285.22924805 629.4050293 C-285.70281738 628.85266602 -286.17638672 628.30030273 -286.66430664 627.73120117 C-287.65901325 626.58241321 -288.66509517 625.44340007 -289.6809082 624.31323242 C-292.59418812 621.03339297 -294.93916165 617.84489069 -297.03735352 613.96166992 C-299.33128252 609.91610705 -302.07213141 606.13852292 -304.6862793 602.2956543 C-311.30330064 592.45632632 -317.38288815 582.41707656 -323.1237793 572.0456543 C-323.53547363 571.31266113 -323.94716797 570.57966797 -324.37133789 569.82446289 C-339.5158619 542.74425462 -350.48808698 513.4239064 -358.21166992 483.4140625 C-358.7856754 481.29426765 -359.41933324 479.18887593 -360.13549805 477.11279297 C-361.31550722 473.45062518 -362.07128207 469.75761314 -362.7800293 465.9831543 C-363.0011161 464.82032425 -363.0011161 464.82032425 -363.22666931 463.63400269 C-372.7806947 412.769159 -372.35714643 361.93389981 -363.1237793 311.0456543 C-362.93392456 309.98864319 -362.93392456 309.98864319 -362.74023438 308.91027832 C-359.27822967 289.78646066 -354.31753444 271.55000695 -347.6237793 253.2956543 C-347.31289368 252.44423859 -347.00200806 251.59282288 -346.68170166 250.71560669 C-342.52240236 239.42418173 -337.66244963 228.72012832 -332.1237793 218.0456543 C-331.26795424 216.3042205 -330.41792866 214.55990911 -329.5769043 212.8112793 C-308.44689269 169.32401976 -277.02875124 128.01411779 -240.03393555 96.67456055 C-237.74573989 94.72327714 -235.53278869 92.69747742 -233.3112793 90.6706543 C-229.67479718 87.39950655 -225.99622556 84.1893176 -222.2487793 81.0456543 C-221.36448242 80.3031543 -220.48018555 79.5606543 -219.5690918 78.7956543 C-217.29921866 77.17120835 -215.84815254 76.45114241 -213.1237793 76.0456543 C-207.75729038 81.89423914 -202.58254503 87.84510851 -197.61206055 94.03393555 C-195.73186633 96.30964942 -193.82482594 98.518585 -191.85424805 100.71362305 C-191.29842041 101.33914062 -190.74259277 101.9646582 -190.16992188 102.60913086 C-189.07196635 103.84038092 -187.96395528 105.06275097 -186.84521484 106.27514648 C-185.3347168 107.97924805 -185.3347168 107.97924805 -183.1237793 111.0456543 C-183.33740248 113.47594953 -183.80772858 114.68758219 -185.42382812 116.51855469 C-185.97063232 116.97222412 -186.51743652 117.42589355 -187.08081055 117.89331055 C-187.69287354 118.41054687 -188.30493652 118.9277832 -188.93554688 119.46069336 C-189.59578857 120.00435547 -190.25603027 120.54801758 -190.9362793 121.1081543 C-192.31250558 122.26946305 -193.68748964 123.43224537 -195.0612793 124.59643555 C-195.74834961 125.17603027 -196.43541992 125.755625 -197.14331055 126.3527832 C-199.96917978 128.76828829 -202.70982513 131.26907092 -205.4362793 133.7956543 C-209.01073229 137.10214294 -212.60792603 140.374986 -216.2487793 143.6081543 C-224.05354506 150.62367409 -231.33590882 158.04667001 -238.1237793 166.0456543 C-238.91010742 166.9428418 -239.69643555 167.8400293 -240.5065918 168.7644043 C-273.01684719 205.47879346 -273.01684719 205.47879346 -290.1237793 249.0456543 C-285.07320996 250.88945468 -280.02184891 252.73107012 -274.96994019 254.57119751 C-273.07195711 255.26269968 -271.17410962 255.9545741 -269.27639771 256.64682007 C-256.62244075 261.26155938 -243.95260093 265.82840057 -231.26151657 270.3398304 C-226.87299784 271.90069719 -222.48599151 273.46581285 -218.0988369 275.030509 C-213.74915694 276.58106734 -209.39680745 278.12384271 -205.04255581 279.66151237 C-202.29867135 280.63249739 -199.55734401 281.61054821 -196.81663704 282.59046173 C-194.91227662 283.2688306 -193.00480387 283.93844213 -191.09727478 284.60784912 C-189.38647484 285.22155365 -189.38647484 285.22155365 -187.64111328 285.84765625 C-186.643535 286.20132767 -185.64595673 286.55499908 -184.6181488 286.91938782 C-182.1237793 288.0456543 -182.1237793 288.0456543 -179.1237793 291.0456543 C-184.4037793 305.8956543 -189.6837793 320.7456543 -195.1237793 336.0456543 C-198.45584157 335.37924184 -201.21813544 334.75408058 -204.35180664 333.64135742 C-205.16243057 333.35533157 -205.9730545 333.06930573 -206.8082428 332.77461243 C-207.68322922 332.46186874 -208.55821564 332.14912506 -209.4597168 331.8269043 C-210.39122055 331.49687912 -211.3227243 331.16685394 -212.28245544 330.826828 C-215.35584201 329.73666631 -218.42734884 328.64131389 -221.4987793 327.5456543 C-223.63894707 326.78485191 -225.77916589 326.02419309 -227.91943359 325.26367188 C-247.12351032 318.43177909 -266.29450232 311.50817764 -285.45581055 304.55737305 C-286.3246991 304.24246918 -287.19358765 303.92756531 -288.08880615 303.6031189 C-291.66599586 302.30568195 -295.24045577 301.00244365 -298.80883789 299.6809082 C-299.80351074 299.31271973 -300.79818359 298.94453125 -301.82299805 298.56518555 C-303.03282349 298.11236206 -303.03282349 298.11236206 -304.26708984 297.65039062 C-306.11527626 296.94242302 -306.11527626 296.94242302 -308.1237793 297.0456543 C-328.92822462 377.40751474 -322.11890661 461.245192 -285.1237793 536.0456543 C-284.67921387 536.95250977 -284.23464844 537.85936523 -283.77661133 538.79370117 C-277.15927299 552.18794829 -269.47714621 564.67172773 -261.1237793 577.0456543 C-260.32991032 578.23385541 -259.53681947 579.42257717 -258.74487305 580.61206055 C-258.20991211 581.41514648 -257.67495117 582.21823242 -257.1237793 583.0456543 C-254.37190618 581.76961271 -252.17860964 580.40092493 -249.90893555 578.39331055 C-249.31177734 577.86962891 -248.71461914 577.34594727 -248.09936523 576.80639648 C-247.1523877 575.9657666 -247.1523877 575.9657666 -246.1862793 575.1081543 C-244.83916045 573.92655176 -243.49149457 572.74557261 -242.14331055 571.56518555 C-241.46864746 570.97302246 -240.79398438 570.38085938 -240.09887695 569.77075195 C-237.2140404 567.25106653 -234.29930162 564.76789551 -231.3737793 562.2956543 C-230.83938232 561.84375732 -230.30498535 561.39186035 -229.75439453 560.92626953 C-226.44744852 558.13877631 -223.10755393 555.39532399 -219.7487793 552.6706543 C-214.62644406 548.50409007 -209.64960552 544.18364148 -204.67333984 539.84521484 C-200.16930293 535.92744128 -195.58653084 532.12394105 -190.94799805 528.3659668 C-186.39890138 524.62853468 -181.94430408 520.78178543 -177.4831543 516.94018555 C-176.9346582 516.47306152 -176.38616211 516.0059375 -175.82104492 515.5246582 C-174.62071305 514.47868432 -173.44428786 513.40497547 -172.28588867 512.31274414 C-171.68067383 511.75409668 -171.07545898 511.19544922 -170.4519043 510.61987305 C-169.90953125 510.10384521 -169.3671582 509.58781738 -168.80834961 509.05615234 C-167.1237793 508.0456543 -167.1237793 508.0456543 -165.04345703 508.26611328 C-162.26786236 509.39322428 -160.88954965 511.16496504 -158.9362793 513.4206543 C-158.13448242 514.3384668 -157.33268555 515.2562793 -156.5065918 516.2019043 C-154.38341476 518.73579427 -152.34677982 521.31653216 -150.3112793 523.9206543 C-139.02516792 537.82039146 -125.76181307 550.71093138 -111.1237793 561.0456543 C-110.53854492 561.46459961 -109.95331055 561.88354492 -109.3503418 562.31518555 C-99.74313691 569.1391873 -89.62534239 574.72417679 -79.1237793 580.0456543 C-78.8652417 578.7666626 -78.6067041 577.4876709 -78.34033203 576.16992188 C-77.18070098 570.9694153 -75.48925424 566.05488952 -73.65893555 561.05737305 C-73.31337112 560.10021896 -72.9678067 559.14306488 -72.61177063 558.15690613 C-71.47532135 555.01367675 -70.33091629 551.87341029 -69.1862793 548.7331543 C-68.39045402 546.53750393 -67.59505088 544.34170052 -66.80004883 542.14575195 C-64.2499876 535.10921123 -61.6877325 528.07714283 -59.1237793 521.0456543 C-58.67842834 519.82360291 -58.23307739 518.60155151 -57.77423096 517.34246826 C-51.9053115 501.23819544 -46.02193266 485.13924273 -40.1237793 469.0456543 C-35.82319991 469.57602598 -31.93170252 470.29083775 -27.8659668 471.7878418 C-26.9172168 472.13065186 -25.9684668 472.47346191 -24.9909668 472.82666016 C-24.00354492 473.18767822 -23.01612305 473.54869629 -21.9987793 473.9206543 C5.9092849 483.82740353 32.08007003 484.57733296 59.1262207 471.7956543 C65.93928998 468.22247462 71.92983598 463.90625123 77.8762207 459.0456543 C78.66641602 458.42045898 79.45661133 457.79526367 80.27075195 457.15112305 C96.77690486 443.42008517 108.34013954 421.37409692 110.8762207 400.0456543 C111.70481517 384.93581925 110.77629574 370.56154091 107.7512207 355.7487793 C107.01731248 352.12224062 106.67934851 348.76161701 106.8762207 345.0456543 C117.48593011 342.88228622 128.10562239 340.77564575 138.7512207 338.7956543 C139.67112793 338.62066406 140.59103516 338.44567383 141.53881836 338.26538086 C146.04822802 337.43700289 150.2675623 336.83271298 154.8762207 337.0456543 C156.45024707 342.95336363 157.55882396 348.81060999 158.4387207 354.8581543 C158.5644043 355.68379883 158.69008789 356.50944336 158.81958008 357.36010742 C164.93392123 398.62390714 158.83052874 438.77204297 133.81762695 472.8503418 C132.19894693 474.94127253 130.5611537 477.00793846 128.8762207 479.0456543 C130.57663673 483.18978198 133.51769051 486.28952062 136.4387207 489.6081543 C137.53608634 490.87029642 138.63243247 492.13332564 139.7277832 493.3972168 C140.26693359 494.01886719 140.80608398 494.64051758 141.36157227 495.28100586 C143.39110341 497.64552087 145.35567963 500.05925958 147.3137207 502.4831543 C150.93048855 506.94164266 154.66467474 511.28325501 158.4387207 515.6081543 C163.40932589 521.30451112 168.229804 527.0797114 172.8762207 533.0456543 C192.11354971 525.46596937 207.29409166 488.84468954 215.0715332 471.3581543 C236.86419873 420.15301013 237.74671258 360.97305742 218.05004883 308.95629883 C211.38844505 292.43807083 203.31697562 276.4969725 192.8762207 262.0456543 C192.44712402 261.45123535 192.01802734 260.85681641 191.57592773 260.24438477 C186.7141226 253.58954737 181.48400296 247.31070196 175.89575195 241.25268555 C174.13717163 239.33083278 172.46802295 237.36917941 170.8137207 235.3581543 C167.51540859 231.49518548 163.74908133 228.31678121 159.8762207 225.0456543 C158.96227539 224.23225586 158.04833008 223.41885742 157.10668945 222.58081055 C144.37915291 211.34423743 128.14788172 198.4695413 111.8762207 193.0456543 C111.63165886 194.00970184 111.63165886 194.00970184 111.38215637 194.9932251 C109.40863497 202.52037815 106.93090794 209.78627906 104.26293945 217.0925293 C103.57850443 218.98370638 102.89406976 220.87488359 102.20965099 222.76606655 C101.48949705 224.75338895 100.76721928 226.73992682 100.04425049 228.72622681 C98.55289553 232.82361863 97.0672902 236.92307924 95.58276367 241.02294922 C94.09320798 245.13596317 92.60335211 249.24886623 91.11138916 253.36100769 C86.88235489 265.01754467 82.68473944 276.68521074 78.5012207 288.3581543 C77.91362161 289.99651765 77.32597688 291.63486463 76.73828125 293.27319336 C75.45037319 296.8638151 74.16306159 300.45464996 72.8762207 304.0456543 C68.63356619 303.52467219 64.82347326 302.84787366 60.8371582 301.3034668 C59.93312256 300.96065674 59.02908691 300.61784668 58.09765625 300.26464844 C57.15833252 299.90363037 56.21900879 299.5426123 55.2512207 299.1706543 C27.67932744 288.8679409 1.47469627 288.50878038 -25.7019043 300.64331055 C-48.46190527 312.27070235 -66.02466251 331.78607996 -74.35888672 356.04077148 C-79.13607134 371.00843271 -80.14422116 385.98777366 -77.7487793 401.4831543 C-77.54514771 402.85793945 -77.54514771 402.85793945 -77.33740234 404.26049805 C-76.50158969 409.82796918 -75.58663406 415.37319202 -74.45581055 420.8894043 C-74.08437466 423.30155265 -74.10239472 425.60831518 -74.1237793 428.0456543 C-103.45379364 433.39727351 -132.78665881 438.73311996 -162.1237793 444.0456543 C-163.07431938 444.21778694 -164.02485947 444.38991959 -165.0042038 444.56726837 C-176.32993939 446.61776229 -187.65700879 448.66063829 -198.98635864 450.69107056 C-202.15449015 451.25901779 -205.32216464 451.82941885 -208.48947144 452.40194702 C-212.19600112 453.0718112 -215.90339338 453.73666766 -219.61153603 454.39754295 C-221.59549456 454.75235973 -223.57855016 455.11221393 -225.56156921 455.47224426 C-226.74177139 455.68145004 -227.92197357 455.89065582 -229.13793945 456.10620117 C-230.15602692 456.2888855 -231.17411438 456.47156982 -232.22305298 456.65979004 C-235.22401546 457.05898805 -238.10003605 457.11326638 -241.1237793 457.0456543 C-242.58932 449.77448499 -244.04548343 442.50150263 -245.4909668 435.22631836 C-245.87716423 433.28519948 -246.26481433 431.34436797 -246.6550293 429.40405273 C-247.08863762 427.24414127 -247.51400097 425.08280436 -247.9362793 422.9206543 C-248.16959961 421.74245117 -248.40291992 420.56424805 -248.64331055 419.3503418 C-249.14931993 415.86998454 -249.15580232 412.55777303 -249.1237793 409.0456543 C-227.66691617 404.59316194 -206.10915388 400.70996958 -184.54248047 396.83251953 C-179.40526682 395.9086455 -174.2693721 394.97763837 -169.13374043 394.04501629 C-165.14439678 393.32171223 -161.1542139 392.60312678 -157.16377831 391.88587379 C-155.26769719 391.54428689 -153.37192016 391.20100736 -151.47646523 390.85596275 C-148.84454965 390.37736631 -146.21152686 389.90539807 -143.578125 389.43505859 C-142.80675705 389.293302 -142.0353891 389.15154541 -141.24064636 389.00549316 C-137.15084212 388.2828036 -133.27645194 387.89975353 -129.1237793 388.0456543 C-129.1650293 386.7462793 -129.2062793 385.4469043 -129.2487793 384.1081543 C-129.15885847 352.18626209 -117.45124869 318.03905737 -96.1237793 294.0456543 C-97.81299071 289.95756276 -100.67860796 286.8893725 -103.5612793 283.6081543 C-104.65018904 282.35326526 -105.7387224 281.09804954 -106.8269043 279.8425293 C-107.37797852 279.20895508 -107.92905273 278.57538086 -108.49682617 277.92260742 C-110.95601149 275.08554009 -113.38666814 272.22478108 -115.8112793 269.3581543 C-116.26704346 268.81989014 -116.72280762 268.28162598 -117.19238281 267.72705078 C-119.99829725 264.40427066 -122.75940903 261.04871199 -125.4987793 257.6706543 C-129.66534353 252.54831906 -133.98579211 247.57148052 -138.32421875 242.59521484 C-142.24747252 238.08487766 -146.05607142 233.49553544 -149.8190918 228.8503418 C-153.01502548 224.96105301 -156.30099614 221.15199948 -159.5859375 217.33789062 C-164.4979337 211.62815907 -169.3208869 205.84737829 -174.1237793 200.0456543 C-171.04609139 196.19442986 -168.08072366 192.98100348 -164.1862793 189.9206543 C-159.05284708 185.81669087 -154.04830159 181.5871148 -149.07128906 177.29516602 C-147.96346037 176.34055621 -146.85261771 175.38943092 -145.73852539 174.44213867 C-144.64452297 173.49601018 -143.56953099 172.52752705 -142.51293945 171.53979492 C-138.72586855 168.09592361 -138.72586855 168.09592361 -136.06518555 167.8737793 C-133.12527733 169.64837178 -131.17670326 172.14814381 -129.0612793 174.7956543 C-128.08370108 175.9859937 -127.10582815 177.17609113 -126.12768555 178.3659668 C-125.63026855 178.97730469 -125.13285156 179.58864258 -124.62036133 180.21850586 C-122.28547706 183.0691215 -119.88952019 185.86690205 -117.4987793 188.6706543 C-114.20473025 192.55286454 -110.95514105 196.46536133 -107.7487793 200.4206543 C-103.58221507 205.54298953 -99.26176648 210.51982807 -94.92333984 215.49609375 C-90.99888832 220.00780793 -87.18951147 224.59890984 -83.42456055 229.24487305 C-80.25040446 233.10882876 -76.99245551 236.8979787 -73.72753906 240.68530273 C-71.12596786 243.7044409 -68.53919802 246.73390922 -65.9831543 249.79174805 C-65.48154785 250.39067871 -64.97994141 250.98960937 -64.46313477 251.60668945 C-63.50625397 252.75118142 -62.5520317 253.89790279 -61.60083008 255.04711914 C-59.21611319 257.96856342 -59.21611319 257.96856342 -56.1237793 260.0456543 C-53.73575876 258.92170075 -51.44202482 257.73772124 -49.1237793 256.4831543 C-31.46372694 247.344778 -11.05505612 241.71585805 8.8762207 241.0456543 C9.98481445 241.00569336 11.0934082 240.96573242 12.2355957 240.92456055 C22.24001122 240.74515647 31.96708336 241.77437895 41.8762207 243.0456543 C42.04556122 242.45805832 42.21490173 241.87046234 42.38937378 241.26506042 C44.35091996 234.5805939 46.59104088 228.02619223 48.9465332 221.47143555 C49.34058853 220.36866776 49.73464386 219.26589996 50.14064026 218.12971497 C51.42487547 214.53824904 52.71290536 210.94815843 54.0012207 207.3581543 C54.89302372 204.86780016 55.78470533 202.37740254 56.67626953 199.88696289 C62.61466669 183.30620752 68.58016367 166.73516248 74.5637207 150.1706543 C74.93088196 149.15339264 75.29804321 148.13613098 75.67633057 147.08804321 C76.70379242 144.24267278 77.73301418 141.39794635 78.76293945 138.5534668 C79.06615616 137.71346634 79.36937286 136.87346588 79.68177795 136.00801086 C81.76086828 130.27635914 81.76086828 130.27635914 82.8762207 128.0456543 C91.78632963 130.59921673 100.5259233 133.60684271 109.27392578 136.66137695 C110.97830443 137.25478842 112.68405993 137.84425889 114.39111328 138.42993164 C116.87744346 139.28299805 119.35958736 140.1473372 121.84106445 141.0144043 C122.9847776 141.40360046 122.9847776 141.40360046 124.15159607 141.80065918 C127.81385652 143.09520968 130.22767514 144.25142982 132.8762207 147.0456543 C134.33471625 147.90436904 135.82751355 148.70615096 137.34106445 149.46362305 C138.21714355 149.90875244 139.09322266 150.35388184 139.99584961 150.8125 C140.92574707 151.28131592 141.85564453 151.75013184 142.8137207 152.2331543 C150.87815023 156.39046222 158.51686393 160.71583442 165.8762207 166.0456543 C166.93123779 166.79371338 166.93123779 166.79371338 168.00756836 167.55688477 C177.57633773 174.34640934 186.62903861 181.3248828 195.0949707 189.4519043 C197.47939435 191.67558028 199.85942517 193.58552652 202.5012207 195.4831543 C208.00132431 199.62830537 212.1333165 204.98797263 216.44702148 210.29760742 C218.82318803 213.20388561 221.25882373 216.05931137 223.6887207 218.9206543 C224.14939941 219.46753906 224.61007812 220.01442383 225.0847168 220.57788086 C227.86998011 223.88291139 230.7018332 227.13396031 233.6574707 230.2878418 C235.16293723 232.45918775 236.05163585 234.79635027 237.05444336 237.22973633 C238.33010836 240.04863005 240.06803409 242.49701686 241.8137207 245.0456543 C252.91824354 261.88146876 261.05008701 280.12502164 267.8762207 299.0456543 C268.12903809 299.73916992 268.38185547 300.43268555 268.64233398 301.1472168 C271.8762207 310.08892527 271.8762207 310.08892527 271.8762207 315.0456543 C272.5362207 315.0456543 273.1962207 315.0456543 273.8762207 315.0456543 C283.75265502 359.33528942 285.91033197 403.48427695 275.30932617 447.90356445 C274.81228254 450.20122941 274.81228254 450.20122941 274.5222168 453.19384766 C273.73294034 457.89997568 272.27910271 462.15360151 270.6730957 466.63549805 C270.19359467 467.99053185 270.19359467 467.99053185 269.70440674 469.37294006 C269.02855494 471.2760305 268.34926874 473.17790437 267.66674805 475.07861328 C266.63217519 477.96653288 265.61495536 480.86016834 264.59887695 483.75463867 C263.93716369 485.61113203 263.27443611 487.46726424 262.6105957 489.32299805 C262.16185089 490.60617165 262.16185089 490.60617165 261.70404053 491.91526794 C259.69517424 497.45137807 257.12260972 502.14715187 253.8762207 507.0456543 C253.08371722 508.43279057 252.30413094 509.82762421 251.55200195 511.23706055 C240.27550978 532.09418931 226.83808379 552.58558332 209.70043945 569.1472168 C207.22974809 571.56405874 205.6547646 574.07816598 203.8762207 577.0456543 C201.66918945 579.08081055 201.66918945 579.08081055 199.0637207 581.1081543 C194.53536813 584.70084726 190.12030249 588.3860848 185.7512207 592.1706543 C171.68832342 604.26520107 171.68832342 604.26520107 163.52856445 608.5612793 C160.87512424 610.04626793 158.35157694 611.68116321 155.81103516 613.34985352 C138.53733637 624.58375176 119.55005924 633.01936711 99.8762207 639.0456543 C98.95502441 639.3324707 98.03382813 639.61928711 97.0847168 639.91479492 C84.24453399 643.86297372 71.30482796 646.93294783 58.1262207 649.4831543 C57.10979996 649.68075851 57.10979996 649.68075851 56.07284546 649.88235474 C44.00077804 652.20825357 44.00077804 652.20825357 38.8762207 652.0456543 C33.9830001 627.9570698 33.9830001 627.9570698 32.0637207 617.3581543 C31.83040039 616.07553711 31.59708008 614.79291992 31.35668945 613.47143555 C30.90732383 610.26742215 30.84142724 607.27352605 30.8762207 604.0456543 C37.35672241 602.53086107 43.84020296 601.04050334 50.34887695 599.65112305 C80.06290735 593.2857412 109.69299689 584.7970667 134.8762207 567.0456543 C130.01032383 560.33860726 124.71114498 554.04530167 119.33178711 547.7512207 C117.00411859 545.02376477 114.69069935 542.284302 112.3762207 539.5456543 C111.46613013 538.47007789 110.55597365 537.39455724 109.64575195 536.3190918 C107.74669999 534.07481907 105.84835891 531.82994732 103.95043945 529.5847168 C103.46704102 529.01301758 102.98364258 528.44131836 102.4855957 527.85229492 C101.15080596 526.27364936 99.81623989 524.69481467 98.48168945 523.1159668 C95.62798157 519.74652857 92.75301281 516.3953863 89.8762207 513.0456543 C89.37509766 513.28687012 88.87397461 513.52808594 88.35766602 513.77661133 C75.80520843 519.76251117 63.35617338 524.60615967 49.8762207 528.0456543 C47.97549805 528.55612305 47.97549805 528.55612305 46.03637695 529.0769043 C29.26456533 532.81551246 8.82220446 532.77121301 -8.1237793 530.0456543 C-11.4706404 537.88712066 -14.55287248 545.77593664 -17.3894043 553.81518555 C-17.97631042 555.46522835 -17.97631042 555.46522835 -18.57507324 557.14860535 C-19.41148551 559.50092732 -20.24649471 561.85374859 -21.0802002 564.20703125 C-23.0610262 569.79790658 -25.05032964 575.38576311 -27.039711 580.97359848 C-27.49233894 582.24509413 -27.94484812 583.51663206 -28.39723969 584.78821182 C-33.17730469 598.22380583 -38.01596255 611.63799064 -42.8737793 625.0456543 C-43.24539185 626.07163727 -43.61700439 627.09762024 -43.99987793 628.1546936 C-46.03957279 633.78559696 -48.08083711 639.41592832 -50.1237793 645.0456543 C-56.37462303 643.21582085 -62.55866913 641.2703443 -68.6940918 639.0847168 C-69.46002655 638.81227142 -70.2259613 638.53982605 -71.0151062 638.25912476 C-72.61714042 637.68753424 -74.21862899 637.11441217 -75.81958008 636.53979492 C-78.24743307 635.67113596 -80.67962834 634.81545458 -83.11206055 633.9597168 C-84.68135652 633.39801396 -86.2503767 632.83553987 -87.8190918 632.2722168 C-88.53388702 632.02307526 -89.24868225 631.77393372 -89.98513794 631.51724243 C-94.47790974 629.88301091 -98.34473939 627.8114389 -102.34860229 625.20181274 C-104.41294481 623.85732313 -106.53716854 622.68318915 -108.7175293 621.5378418 C-119.70484928 615.68157685 -130.08146872 609.40748834 -140.1237793 602.0456543 C-140.70208496 601.62429199 -141.28039062 601.20292969 -141.8762207 600.76879883 C-149.19611014 595.39892291 -155.96502248 589.61734492 -162.56518555 583.39331055 C-166.2579525 579.48020218 -166.2579525 579.48020218 -171.08862305 578.1081543 C-173.77709613 579.34660639 -175.53877332 581.00782325 -177.6862793 583.0456543 C-181.16602571 586.27140462 -184.68288016 589.37599502 -188.3737793 592.3581543 C-192.64110969 595.81409088 -196.83649209 599.33988416 -200.9987793 602.9206543 C-201.87385132 603.67209717 -201.87385132 603.67209717 -202.76660156 604.4387207 C-205.16885348 606.50232481 -207.57006354 608.56707834 -209.96606445 610.63793945 C-211.74434613 612.1737497 -213.52737745 613.70387905 -215.3112793 615.2331543 C-215.85187988 615.70285645 -216.39248047 616.17255859 -216.94946289 616.65649414 C-219.34903839 618.70681767 -221.09447027 620.03588462 -224.1237793 621.0456543 C-216.73700813 629.76251931 -208.91763429 637.60144864 -199.98706055 644.7409668 C-197.10731601 647.05890579 -194.30649009 649.45373986 -191.4987793 651.8581543 C-127.37258709 705.20060943 -42.71809506 728.87276941 39.82348633 722.27612305 C107.16213592 715.98149838 174.10531849 690.6784487 226.8762207 648.0456543 C227.92023428 647.21460185 228.9644875 646.38385032 230.0090332 645.5534668 C236.16436639 640.59833785 242.03830987 635.3679137 247.8762207 630.0456543 C249.6051077 628.503674 251.33427264 626.96200529 253.0637207 625.4206543 C259.01138765 620.05846082 264.60036306 614.5173103 269.81762695 608.44018555 C271.37203402 606.63211812 272.94576826 604.84064122 274.52856445 603.05737305 C314.82507568 557.37088261 341.19651103 499.25109417 349.8762207 439.0456543 C350.02575195 438.00908691 350.1752832 436.97251953 350.3293457 435.90454102 C359.3700433 370.05747736 348.75126906 300.90412634 319.8762207 241.0456543 C319.48321777 240.2187207 319.09021484 239.39178711 318.68530273 238.53979492 C307.31284858 214.6856025 293.10592636 192.1267549 275.8762207 172.0456543 C274.68512695 170.57999023 274.68512695 170.57999023 273.4699707 169.0847168 C266.86590065 161.03451784 259.65250922 153.60766115 252.3137207 146.2331543 C251.83102722 145.74528442 251.34833374 145.25741455 250.85101318 144.75476074 C244.20705247 138.05468883 237.27045102 131.90944586 229.8762207 126.0456543 C228.59807355 124.99743512 227.32176857 123.94696182 226.0480957 122.89331055 C160.57879308 69.35729754 73.50111968 44.3215711 -10.40893555 50.72924805 C-13.02318638 51.03393052 -15.54757038 51.51475823 -18.1237793 52.0456543 C-18.02070465 52.61826335 -17.91763 53.1908724 -17.81143188 53.78083324 C-15.30289552 67.71818185 -12.79915853 81.65638546 -10.30075073 95.5955534 C-9.09242108 102.33642566 -7.88247292 109.07699987 -6.66870117 115.81689453 C-5.49766344 122.31951967 -4.33115373 128.82294646 -3.16741943 135.32688332 C-2.72237499 137.80988371 -2.27580585 140.29261133 -1.82769775 142.77506065 C-1.20101607 146.24825947 -0.57972998 149.72238284 0.0402832 153.19677734 C0.32080536 154.74073685 0.32080536 154.74073685 0.60699463 156.31588745 C0.77527771 157.26514603 0.94356079 158.2144046 1.11694336 159.19242859 C1.33817368 160.42440491 1.33817368 160.42440491 1.56387329 161.68126965 C1.89165154 164.16246151 1.93022461 166.54582597 1.8762207 169.0456543 C-22.2123638 173.9388749 -22.2123638 173.9388749 -32.8112793 175.8581543 C-34.09389648 176.09147461 -35.37651367 176.32479492 -36.69799805 176.56518555 C-39.89636687 177.01375951 -42.90000307 177.139743 -46.1237793 177.0456543 C-47.48464046 172.48403892 -48.58411443 168.00037257 -49.42727661 163.3084259 C-49.60134908 162.34813659 -49.60134908 162.34813659 -49.77893817 161.36844748 C-50.16308244 159.24427748 -50.54212367 157.11923064 -50.92114258 154.99414062 C-51.19699777 153.46261814 -51.47315944 151.93115084 -51.74960327 150.3997345 C-52.49662415 146.25598339 -53.23911226 142.11143217 -53.98058176 137.96668458 C-54.75781835 133.62532276 -55.53859861 129.28459806 -56.31881714 124.94377136 C-57.62764357 117.65861368 -58.93345497 110.37292029 -60.23754883 103.08691406 C-61.74542056 94.66265018 -63.25839505 86.23931458 -64.77401936 77.81644231 C-66.23270117 69.70919095 -67.68747063 61.60124207 -69.14056015 53.49298668 C-69.75884116 50.04347606 -70.37855261 46.59422695 -70.99942398 43.14518166 C-71.72980612 39.08689916 -72.45678347 35.02802128 -73.18112564 30.96865654 C-73.44759902 29.47849787 -73.7152586 27.98855077 -73.98418427 26.4988327 C-74.35075717 24.46709208 -74.71304569 22.43463275 -75.07424927 20.40193176 C-75.27813326 19.26431302 -75.48201725 18.12669428 -75.69207954 16.95460224 C-76.1237793 14.0456543 -76.1237793 14.0456543 -76.1237793 10.0456543 C-50.74214994 5.04028707 -25.92985918 0.55740702 0 0 Z M-22.6862793 11.2331543 C-23.75467041 11.33402344 -24.82306152 11.43489258 -25.92382812 11.53881836 C-39.08660516 12.99883489 -52.10619886 15.65353083 -65.1237793 18.0456543 C-58.59443873 55.42907953 -52.02680264 92.80549919 -45.30373764 130.15463257 C-44.87302183 132.5498666 -44.44350243 134.94531239 -44.01431274 137.34082031 C-43.34085495 141.098741 -42.66426449 144.85608374 -41.98509407 148.61297607 C-41.73611088 149.99279336 -41.48814989 151.37279554 -41.24127007 152.75299072 C-40.90520753 154.63036459 -40.56490693 156.50697837 -40.22436523 158.38354492 C-40.03485291 159.43497681 -39.84534058 160.48640869 -39.65008545 161.56970215 C-39.23496135 164.03284787 -39.23496135 164.03284787 -38.1237793 166.0456543 C-36.10214328 165.78087916 -34.08152492 165.50833726 -32.0612793 165.2331543 C-30.93592773 165.08233398 -29.81057617 164.93151367 -28.65112305 164.77612305 C-24.5200559 164.15928636 -20.43372433 163.32743911 -16.34082031 162.5 C-15.64581673 162.36020973 -14.95081314 162.22041946 -14.23474884 162.07639313 C-12.53093768 161.73358125 -10.82733713 161.38972287 -9.1237793 161.0456543 C-13.31568586 135.34743142 -17.82793337 109.71499656 -22.48919678 84.0980835 C-23.35626975 79.32964951 -24.22034023 74.56067141 -25.0847168 69.79174805 C-26.76158368 60.54253672 -28.44158363 51.29389783 -30.1237793 42.0456543 C-28.81838196 41.9771376 -27.51298462 41.90862091 -26.16802979 41.83802795 C-24.43876116 41.74716621 -22.70949279 41.65629988 -20.98022461 41.56542969 C-20.12179962 41.52038551 -19.26337463 41.47534134 -18.37893677 41.42893219 C-14.05914888 41.20184448 -9.73961999 40.97157913 -5.4206543 40.72924805 C-3.90503281 40.64715188 -2.38940803 40.56511649 -0.8737793 40.4831543 C0.2399707 40.41837891 0.2399707 40.41837891 1.3762207 40.35229492 C80.13147054 36.18989497 159.77131263 61.05506926 222.8762207 108.0456543 C223.40876465 108.43930176 223.94130859 108.83294922 224.48999023 109.23852539 C237.08020781 118.58088715 248.98657146 128.75921622 259.8762207 140.0456543 C262.38317609 142.56883594 264.90471853 145.07337491 267.4543457 147.5534668 C273.74678632 153.71711477 279.41604947 160.12010378 284.8762207 167.0456543 C285.68188477 168.02276367 286.48754883 168.99987305 287.31762695 170.0065918 C344.47681865 239.86662301 369.67989483 333.39825169 361.92871094 422.72973633 C358.04156157 461.57613135 348.11684902 499.94563691 330.8762207 535.0456543 C330.1648999 536.49705811 330.1648999 536.49705811 329.43920898 537.9777832 C319.44018658 558.1835418 308.16631553 577.55555533 293.8762207 595.0456543 C292.79147461 596.39916992 292.79147461 596.39916992 291.68481445 597.7800293 C289.44110093 600.55757806 287.16314604 603.30360073 284.8762207 606.0456543 C284.46243164 606.55112793 284.04864258 607.05660156 283.62231445 607.57739258 C277.17818461 615.44259732 270.31305215 622.78936291 263.1262207 629.9831543 C262.33425293 630.77592773 261.54228516 631.56870117 260.72631836 632.38549805 C195.02846832 697.46498305 101.61184825 733.49416535 9.65518188 733.29074097 C-39.18966826 733.00585477 -88.19789159 722.75206037 -132.1237793 701.0456543 C-133.09766602 700.56757324 -134.07155273 700.08949219 -135.07495117 699.59692383 C-149.74636902 692.33681715 -163.65116417 684.34097228 -177.1237793 675.0456543 C-178.13069824 674.35511963 -178.13069824 674.35511963 -179.15795898 673.65063477 C-187.12788681 668.15893843 -194.7338437 662.30023627 -202.1237793 656.0456543 C-202.67565918 655.58400879 -203.22753906 655.12236328 -203.79614258 654.64672852 C-211.61710086 648.1037187 -219.02448159 641.37355193 -226.1237793 634.0456543 C-227.78788384 632.37642944 -229.45446503 630.70966915 -231.1237793 629.0456543 C-233.45711263 626.71232096 -235.79044596 624.37898763 -238.1237793 622.0456543 C-230.51688483 614.35696526 -222.47508167 607.24681326 -214.06518555 600.4519043 C-210.74989952 597.7397978 -207.49508253 594.96459649 -204.2487793 592.1706543 C-199.17549333 587.80522042 -194.09584942 583.44840132 -188.96826172 579.14672852 C-186.1295075 576.76219236 -183.32711123 574.3466415 -180.5612793 571.87768555 C-179.97548096 571.36214111 -179.38968262 570.84659668 -178.78613281 570.31542969 C-177.66036555 569.32351161 -176.54317131 568.32175321 -175.43603516 567.30908203 C-173.90112305 565.9675293 -173.90112305 565.9675293 -171.1237793 564.0456543 C-167.90259163 564.3802307 -166.33320425 565.49019086 -164.1628418 567.8190918 C-163.61635986 568.39103271 -163.06987793 568.96297363 -162.50683594 569.55224609 C-161.92667725 570.1688208 -161.34651855 570.78539551 -160.7487793 571.4206543 C-154.5393457 577.81576014 -148.04410569 583.40361883 -140.89916992 588.71899414 C-139.11035045 590.055689 -137.34313498 591.41757872 -135.5769043 592.78393555 C-125.95020847 600.14391817 -115.77132607 606.27933526 -105.1237793 612.0456543 C-103.84156494 612.74223145 -103.84156494 612.74223145 -102.53344727 613.45288086 C-80.33027298 626.19848071 -80.33027298 626.19848071 -56.1237793 632.0456543 C-55.92571686 631.49269684 -55.72765442 630.93973938 -55.52359009 630.37002563 C-46.46297792 605.07537371 -37.397263 579.782565 -28.29974365 554.50115967 C-27.51965623 552.33329644 -26.73974719 550.16536902 -25.96002197 547.99737549 C-24.86934569 544.96508538 -23.77793243 541.9330616 -22.6862793 538.90112305 C-22.3683139 538.01687149 -22.05034851 537.13261993 -21.7227478 536.22157288 C-21.42325226 535.39032394 -21.12375671 534.55907501 -20.81518555 533.70263672 C-20.53304199 532.91835297 -20.25089844 532.13406921 -19.96020508 531.32601929 C-19.13560085 529.07788364 -18.26967754 526.84863268 -17.40112305 524.6171875 C-15.95540113 521.2070384 -15.95540113 521.2070384 -16.1237793 518.0456543 C-14.67358398 518.3530957 -14.67358398 518.3530957 -13.1940918 518.66674805 C-5.86465571 520.19591777 1.38059021 521.67591468 8.8762207 522.0456543 C10.46370117 522.12493164 10.46370117 522.12493164 12.08325195 522.20581055 C38.67315846 522.8683976 63.24915247 515.42087312 86.2043457 502.4284668 C88.48917535 501.24596724 90.36526048 500.51197548 92.8762207 500.0456543 C93.38668945 500.67729492 93.8971582 501.30893555 94.4230957 501.9597168 C99.79142202 508.56542329 105.28194892 515.05088656 110.83325195 521.50268555 C115.09242078 526.45435816 119.30374932 531.44631746 123.51733398 536.43676758 C125.34376256 538.59921175 127.17217019 540.75997677 129.00097656 542.92041016 C129.91247196 543.99760256 130.82344841 545.07523431 131.73388672 546.15332031 C134.11412368 548.97075237 136.50361802 551.77958212 138.9074707 554.5769043 C139.4044043 555.15762695 139.90133789 555.73834961 140.41333008 556.33666992 C141.35957047 557.44209094 142.30860836 558.54512608 143.26098633 559.64526367 C145.80680912 562.6262046 147.96370693 565.62326123 149.8762207 569.0456543 C119.5651378 589.90629899 88.73065619 601.27673587 53.04272461 609.32104492 C49.30564585 610.17622224 45.58945867 611.09282342 41.8762207 612.0456543 C43.15592264 621.81655497 44.85087159 631.40499253 46.8762207 641.0456543 C98.42608136 633.6255986 144.50127392 613.67201437 184.1262207 579.9206543 C184.71741699 579.41735596 185.30861328 578.91405762 185.91772461 578.39550781 C189.38816318 575.4110879 192.66862864 572.31573192 195.8762207 569.0456543 C196.72700195 568.21807617 197.5777832 567.39049805 198.4543457 566.5378418 C204.74480949 560.37613019 210.43771608 553.98640321 215.8762207 547.0456543 C217.04411133 545.60319336 217.04411133 545.60319336 218.2355957 544.1315918 C233.943349 524.37183844 246.78983996 501.58764077 255.8762207 478.0456543 C256.11501953 477.44253418 256.35381836 476.83941406 256.59985352 476.21801758 C264.01717242 457.31876598 268.35577349 437.15840721 270.8762207 417.0456543 C270.9712085 416.36873535 271.06619629 415.69181641 271.1640625 414.99438477 C272.19349556 406.62166257 272.06228258 398.18491558 272.06152344 389.76293945 C272.0636932 387.0796684 272.081851 384.3968208 272.10083008 381.71362305 C272.26953468 330.45573869 254.78990721 281.04951788 225.8762207 239.0456543 C225.16852539 238.00151367 224.46083008 236.95737305 223.73168945 235.8815918 C216.74479726 225.90872252 208.54919249 216.58353306 199.8762207 208.0456543 C198.85472154 206.99287267 197.83532922 205.93804425 196.81762695 204.8815918 C189.53400648 197.38625701 182.03662119 190.61022559 173.65161133 184.37231445 C171.86279185 183.03561959 170.09557638 181.67372988 168.3293457 180.30737305 C154.5071428 169.74272715 139.33446842 161.46058814 123.68603516 153.93188477 C122.46278135 153.33288149 121.24778351 152.71676353 120.04101562 152.08520508 C114.39245543 149.14533223 108.55103854 146.94678645 102.5637207 144.7956543 C101.5756543 144.43213867 100.58758789 144.06862305 99.56958008 143.6940918 C98.62276367 143.35120117 97.67594727 143.00831055 96.70043945 142.6550293 C95.41786255 142.1904834 95.41786255 142.1904834 94.109375 141.71655273 C91.78598968 140.90179305 91.78598968 140.90179305 88.8762207 141.0456543 C81.74055325 160.36440333 74.73685583 179.72934708 67.76989746 199.10949707 C61.18111232 217.4371206 54.55285041 235.74985092 47.8762207 254.0456543 C46.60391602 253.8290918 45.33161133 253.6125293 44.02075195 253.3894043 C8.08593758 247.57388337 -27.28782662 252.90788928 -58.1237793 273.0456543 C-58.7837793 273.0456543 -59.4437793 273.0456543 -60.1237793 273.0456543 C-61.45649809 271.57874871 -62.71291799 270.04242929 -63.9362793 268.4831543 C-67.72830654 263.7385405 -71.62593645 259.11793995 -75.6237793 254.5456543 C-80.12201305 249.38781755 -84.51375976 244.16405135 -88.82299805 238.84643555 C-92.00413134 234.97398636 -95.27131484 231.17836647 -98.53979492 227.37963867 C-103.31352161 221.8314671 -108.04308937 216.24691075 -112.76489258 210.65454102 C-114.13236475 209.03548935 -115.50090302 207.41734586 -116.86987305 205.79956055 C-117.32475098 205.26169922 -117.77962891 204.72383789 -118.24829102 204.16967773 C-119.15861335 203.09487046 -120.07037736 202.02128243 -120.98364258 200.94897461 C-123.3999529 198.10758068 -125.78008238 195.24347808 -128.11987305 192.33862305 C-128.61229492 191.7353418 -129.1047168 191.13206055 -129.61206055 190.51049805 C-130.55798958 189.35039641 -131.49468154 188.18268363 -132.4206543 187.0065918 C-133.83118408 185.23441663 -133.83118408 185.23441663 -136.1237793 183.0456543 C-140.37296083 183.0456543 -140.69173732 183.10514385 -143.61987305 185.71362305 C-144.26118164 186.27758789 -144.90249023 186.84155273 -145.56323242 187.42260742 C-146.22258789 188.02008789 -146.88194336 188.61756836 -147.5612793 189.2331543 C-148.21676758 189.81129883 -148.87225586 190.38944336 -149.54760742 190.98510742 C-153.1970801 194.22460925 -156.71313262 197.55614874 -160.1237793 201.0456543 C-159.57850586 201.63991211 -159.03323242 202.23416992 -158.47143555 202.84643555 C-153.66585664 208.12846501 -149.05880221 213.5204521 -144.56518555 219.0690918 C-141.83847645 222.39349552 -139.05304969 225.66169788 -136.2487793 228.9206543 C-130.96382269 235.06269882 -125.71845203 241.23657708 -120.49145508 247.42797852 C-119.09918512 249.07474409 -117.70372457 250.71875497 -116.30737305 252.36206055 C-112.07524296 257.34591677 -107.86640532 262.34124702 -103.7487793 267.4206543 C-99.46557494 272.68930603 -95.02557571 277.81321146 -90.55200195 282.92016602 C-87.95957228 285.88732891 -85.4219676 288.83944054 -83.1237793 292.0456543 C-84.75990029 295.79174553 -87.1340998 298.68290751 -89.6862793 301.8581543 C-111.32868058 329.51299038 -119.75913843 361.27739042 -119.1237793 396.0456543 C-119.72014726 396.09647408 -120.31651522 396.14729385 -120.93095493 396.19965363 C-127.33737794 396.78739676 -133.61417872 397.73910581 -139.94189453 398.88745117 C-141.48767433 399.16323753 -141.48767433 399.16323753 -143.06468201 399.44459534 C-146.4379306 400.04744366 -149.81016105 400.6557865 -153.18237305 401.2644043 C-155.53739138 401.68683518 -157.89245911 402.10899077 -160.24757385 402.53088379 C-165.16597186 403.41280413 -170.08389297 404.29732284 -175.00146484 405.18383789 C-181.31137913 406.32124602 -187.62224925 407.45324297 -193.93345547 408.58345795 C-198.78836828 409.45329139 -203.64287067 410.32539688 -208.49724007 411.19825745 C-210.82521355 411.61667562 -213.15329131 412.03451404 -215.48147392 412.45176697 C-218.72519728 413.03356848 -221.96838083 413.61828782 -225.21142578 414.20385742 C-226.17610779 414.37635513 -227.14078979 414.54885284 -228.13470459 414.72657776 C-229.01627731 414.88637619 -229.89785004 415.04617462 -230.80613708 415.21081543 C-231.57206397 415.34870735 -232.33799086 415.48659927 -233.12712765 415.62866974 C-235.31718538 416.04589593 -235.31718538 416.04589593 -238.1237793 417.0456543 C-237.48340993 423.67179209 -236.41406766 430.09278138 -235.0612793 436.6081543 C-234.87500977 437.52145508 -234.68874023 438.43475586 -234.49682617 439.37573242 C-234.04269779 441.59979706 -233.58426607 443.82290048 -233.1237793 446.0456543 C-225.44872477 445.30850944 -217.92610872 444.0145145 -210.34228516 442.63720703 C-208.97156329 442.39049949 -207.60079369 442.14405706 -206.22998047 441.89785767 C-202.53386293 441.23326481 -198.83841881 440.56499558 -195.14309001 439.89603305 C-191.27177221 439.19586801 -187.39983785 438.49912928 -183.52796936 437.80201721 C-176.20735311 436.48344165 -168.88729149 435.16181334 -161.56742722 433.83907038 C-153.22923275 432.33246393 -144.89042108 430.82928758 -136.55155742 429.32639015 C-119.40827816 426.23661089 -102.26577369 423.14255385 -85.1237793 420.0456543 C-85.33531143 418.76481964 -85.54684357 417.48398499 -85.76478577 416.16433716 C-86.04229576 414.45440044 -86.31958182 412.74442738 -86.59667969 411.03442383 C-86.73613258 410.19373856 -86.87558548 409.35305328 -87.01926422 408.4868927 C-88.23605925 400.92906442 -88.62585145 393.58372875 -88.5612793 385.9206543 C-88.54991943 383.9850061 -88.54991943 383.9850061 -88.53833008 382.01025391 C-88.3685051 372.1535872 -87.30866258 363.36218202 -84.1237793 354.0456543 C-83.91479004 353.41739746 -83.70580078 352.78914063 -83.49047852 352.1418457 C-78.17518179 336.48262322 -69.69329297 323.73938054 -58.1237793 312.0456543 C-57.23432617 311.06532227 -57.23432617 311.06532227 -56.3269043 310.06518555 C-44.25921314 297.01176714 -26.13169985 288.32594323 -9.1237793 284.0456543 C-7.90368164 283.72661133 -7.90368164 283.72661133 -6.65893555 283.40112305 C18.2718865 277.63509266 42.4597599 283.34149677 65.8762207 292.0456543 C69.35258681 283.92562987 72.5034664 275.74134651 75.4309082 267.40893555 C75.84988876 266.22577759 76.26886932 265.04261963 76.70054626 263.8236084 C77.59317799 261.30251479 78.48473388 258.78107297 79.37442017 256.25894165 C81.70117748 249.66400924 84.0404938 243.07352757 86.38012695 236.4831543 C86.61332579 235.82599741 86.84652462 235.16884052 87.08679008 234.49176979 C91.54896555 221.92091572 96.09119459 209.38014098 100.6887207 196.8581543 C101.01072449 195.98099762 101.33272827 195.10384094 101.66448975 194.20010376 C103.39794595 189.48055313 105.13509284 184.76237987 106.8762207 180.0456543 C132.59554296 188.20389656 155.60890479 206.64458011 174.8762207 225.0456543 C175.80176758 225.91834961 176.72731445 226.79104492 177.6809082 227.69018555 C219.28640981 267.94026713 241.10013253 327.09920937 242.10864258 384.26660156 C242.44300021 437.12761395 225.10539731 489.48684539 190.8762207 530.0456543 C190.39975098 530.6109082 189.92328125 531.17616211 189.43237305 531.75854492 C175.98614418 547.6756798 175.98614418 547.6756798 171.8762207 549.0456543 C171.46545288 548.15728882 171.46545288 548.15728882 171.04638672 547.25097656 C169.91804357 545.12447464 168.74542376 543.55460067 167.15356445 541.76049805 C166.61989258 541.15334961 166.0862207 540.54620117 165.53637695 539.9206543 C164.96790039 539.2812793 164.39942383 538.6419043 163.8137207 537.9831543 C162.62371609 536.62874116 161.43491813 535.27326691 160.24731445 533.91674805 C159.6670752 533.25400879 159.08683594 532.59126953 158.48901367 531.90844727 C156.39959598 529.49514769 154.38160745 527.02904757 152.3762207 524.5456543 C148.80080202 520.12896063 145.11015136 515.82792067 141.3762207 511.5456543 C136.85168188 506.35438245 132.40635002 501.11676953 128.09106445 495.7487793 C126.44735776 493.7427034 124.78204995 491.78627742 123.06762695 489.8425293 C122.5986499 489.30329834 122.12967285 488.76406738 121.64648438 488.20849609 C120.32250262 486.68991335 118.98640785 485.18191638 117.6496582 483.67456055 C115.8762207 481.0456543 115.8762207 481.0456543 115.88793945 478.9362793 C117.08820413 476.64012078 118.49754946 475.08586823 120.3137207 473.2331543 C135.25393899 456.82559314 144.36861405 436.61420234 148.8762207 415.0456543 C149.12114258 413.92674805 149.36606445 412.8078418 149.6184082 411.6550293 C153.1185294 392.18860182 153.16539188 366.91316782 146.8762207 348.0456543 C137.10532003 349.32535623 127.51688247 351.02030519 117.8762207 353.0456543 C118.0927832 354.25995117 118.3093457 355.47424805 118.5324707 356.7253418 C123.87198197 388.68961226 121.85837466 420.23713617 102.52075195 447.4362793 C85.5958819 470.39791877 61.07945093 485.77831179 32.88574219 490.64868164 C9.41978474 493.74397221 -11.26060192 488.79855407 -33.1237793 481.0456543 C-35.99805629 487.27543857 -38.49192159 493.56928363 -40.78393555 500.03393555 C-41.12667007 500.99108963 -41.4694046 501.94824371 -41.82252502 502.93440247 C-42.56159365 504.99907405 -43.29919447 507.06427152 -44.03546143 509.12994385 C-46.01446838 514.68134436 -48.00492045 520.22863859 -49.99487305 525.77612305 C-50.40866211 526.93031738 -50.82245117 528.08451172 -51.2487793 529.27368164 C-56.02869013 542.59215971 -60.88571922 555.882358 -65.7487793 569.1706543 C-66.17168243 570.32659088 -66.59458557 571.48252747 -67.03030396 572.67349243 C-69.39314456 579.13148499 -71.75745187 585.58893855 -74.1237793 592.0456543 C-78.20208884 592.0456543 -79.51965333 591.58559595 -83.01831055 589.7722168 C-83.96633545 589.28245361 -84.91436035 588.79269043 -85.89111328 588.28808594 C-86.89601807 587.7543335 -87.90092285 587.22058105 -88.9362793 586.6706543 C-90.48907593 585.8497229 -90.48907593 585.8497229 -92.07324219 585.01220703 C-113.55117485 573.49834992 -134.59122516 557.98479337 -150.29956055 539.19018555 C-153.22366788 535.75263752 -156.31785144 532.47032109 -159.39379883 529.16870117 C-161.51987037 526.8696739 -163.38159714 524.65892754 -165.1237793 522.0456543 C-169.16183795 523.40832073 -171.66746048 525.1865694 -174.7487793 528.1081543 C-178.20798887 531.31225992 -181.70654496 534.39407699 -185.3737793 537.3581543 C-189.6882861 540.84997972 -193.92091422 544.42137433 -198.1237793 548.0456543 C-202.22604427 551.58180339 -206.35180023 555.07428938 -210.5612793 558.4831543 C-214.99617247 562.08201459 -219.31945715 565.79297494 -223.6237793 569.5456543 C-228.76812192 574.03069694 -233.96617825 578.42308814 -239.2878418 582.69799805 C-241.49632426 584.52623215 -243.63985081 586.38551611 -245.7722168 588.29956055 C-246.4005542 588.85764404 -247.0288916 589.41572754 -247.67626953 589.99072266 C-248.9117294 591.09177166 -250.13822374 592.20298275 -251.35449219 593.32519531 C-253.05737305 594.8347168 -253.05737305 594.8347168 -256.1237793 597.0456543 C-258.56659235 596.84193977 -259.72846023 596.43846999 -261.47314453 594.70483398 C-261.87218994 594.13152344 -262.27123535 593.55821289 -262.68237305 592.9675293 C-263.14385742 592.31252441 -263.6053418 591.65751953 -264.08081055 590.98266602 C-264.56936523 590.26095215 -265.05791992 589.53923828 -265.5612793 588.7956543 C-266.08206055 588.03913574 -266.6028418 587.28261719 -267.1394043 586.50317383 C-308.63963422 525.57756778 -333.28825376 452.35928949 -330.1237793 378.0456543 C-330.062146 376.51013916 -330.062146 376.51013916 -329.99926758 374.94360352 C-328.72949031 346.16063323 -324.34885873 318.46452377 -316.80053711 290.67578125 C-316.14916981 288.14433105 -315.61085554 285.61326684 -315.1237793 283.0456543 C-313.00834649 283.80721011 -310.89291372 284.56876601 -308.77748108 285.33032227 C-306.84831289 286.0248224 -304.91914417 286.71932104 -302.98997498 287.41381836 C-297.49281604 289.39278802 -291.99566712 291.37178551 -286.49853516 293.35083008 C-275.84004109 297.18800656 -265.18149008 301.02502435 -254.52258301 304.86105347 C-249.99709922 306.48973821 -245.47166204 308.11855245 -240.94622803 309.74737549 C-238.78857715 310.52392943 -236.63090334 311.30041964 -234.47320557 312.07684326 C-231.4413065 313.16784542 -228.40948816 314.25907164 -225.37768555 315.3503418 C-224.06023598 315.82431396 -224.06023598 315.82431396 -222.71617126 316.30786133 C-221.8755867 316.61046875 -221.03500214 316.91307617 -220.16894531 317.22485352 C-218.94330368 317.66447418 -218.94330368 317.66447418 -217.69290161 318.11297607 C-215.84022117 318.78556169 -213.99217234 319.4709539 -212.14718628 320.16436768 C-211.16485016 320.53140808 -210.18251404 320.89844849 -209.17041016 321.27661133 C-208.27680283 321.61451691 -207.3831955 321.95242249 -206.46250916 322.30056763 C-204.0564636 323.19743098 -204.0564636 323.19743098 -201.1237793 323.0456543 C-199.61601314 318.94429865 -198.11890353 314.83913362 -196.6237793 310.7331543 C-196.19452148 309.5659082 -195.76526367 308.39866211 -195.32299805 307.19604492 C-194.91694336 306.0777832 -194.51088867 304.95952148 -194.0925293 303.80737305 C-193.71547852 302.77572021 -193.33842773 301.74406738 -192.94995117 300.68115234 C-191.97421656 298.02887367 -191.97421656 298.02887367 -192.1237793 295.0456543 C-193.93567749 294.40672241 -193.93567749 294.40672241 -195.78417969 293.75488281 C-219.09171722 285.53252362 -242.38236406 277.26582425 -265.6237793 268.8581543 C-266.594534 268.50729767 -267.5652887 268.15644104 -268.56546021 267.79495239 C-280.11334223 263.61947962 -291.63813482 259.38955774 -303.1237793 255.0456543 C-303.1237793 251.00160314 -301.50570236 247.9173164 -299.8737793 244.2956543 C-299.52025391 243.50924561 -299.16672852 242.72283691 -298.80249023 241.91259766 C-284.96081919 211.61700829 -267.35327146 183.87572452 -245.1237793 159.0456543 C-244.27944336 158.09045898 -243.43510742 157.13526367 -242.56518555 156.15112305 C-236.87753039 149.8228492 -230.93892571 143.76152109 -224.9362793 137.7331543 C-224.18781738 136.98001953 -223.43935547 136.22688477 -222.66821289 135.45092773 C-216.13874842 128.94019711 -209.27696481 122.92011752 -202.1237793 117.1081543 C-201.1750293 116.33600586 -200.2262793 115.56385742 -199.2487793 114.76831055 C-198.5475293 114.19983398 -197.8462793 113.63135742 -197.1237793 113.0456543 C-197.68272709 109.10597389 -199.5531823 107.19538436 -202.2487793 104.3581543 C-206.49774653 99.78286638 -210.37527856 95.03561991 -214.1237793 90.0456543 C-218.65258234 90.90683336 -221.15146225 93.55398699 -224.3737793 96.6706543 C-225.46120912 97.70567786 -226.54976564 98.73951888 -227.6394043 99.7722168 C-228.20844482 100.31362305 -228.77748535 100.8550293 -229.36376953 101.4128418 C-231.09635914 103.02021582 -232.87500507 104.55297653 -234.67456055 106.0847168 C-240.43908625 111.09668623 -245.79740076 116.53326262 -251.19580078 121.93237305 C-253.04855398 123.78294397 -254.90916636 125.62535506 -256.77026367 127.4675293 C-263.6884303 134.3530124 -270.09697313 141.35668856 -276.1237793 149.0456543 C-277.13574914 150.27783199 -278.15094947 151.5073701 -279.1706543 152.7331543 C-292.05558862 168.440747 -303.07877268 185.40438969 -313.1237793 203.0456543 C-313.57962402 203.84600098 -314.03546875 204.64634766 -314.50512695 205.47094727 C-345.15102078 260.00277345 -360.68288679 323.59281018 -360.4362793 385.9831543 C-360.43445648 386.95300262 -360.43263367 387.92285095 -360.43075562 388.92208862 C-360.37677522 406.1186249 -359.51699364 422.9960816 -357.1237793 440.0456543 C-356.96280762 441.20162109 -356.80183594 442.35758789 -356.63598633 443.54858398 C-346.17239154 515.37648825 -312.64662955 581.9875459 -265.43823242 636.51977539 C-264.39142524 637.73495832 -263.35699221 638.96079801 -262.3269043 640.19018555 C-253.83800498 650.23246592 -244.18323259 659.59123437 -234.1237793 668.0456543 C-233.17116211 668.88741211 -232.21854492 669.72916992 -231.23706055 670.59643555 C-197.97370009 699.89643851 -158.67550139 723.57917996 -117.1237793 739.0456543 C-115.82586704 739.57305673 -114.52904373 740.10314464 -113.2331543 740.63549805 C-73.1182982 756.7257765 -27.80590779 763.26218131 15.1887207 763.2956543 C15.98180634 763.29632904 16.77489197 763.29700378 17.5920105 763.29769897 C107.57925765 763.17795323 193.76302363 730.12275938 262.1887207 671.8581543 C262.77621094 671.35856201 263.36370117 670.85896973 263.96899414 670.34423828 C267.42442782 667.37728715 270.66648381 664.28066471 273.8762207 661.0456543 C275.43324277 659.59968436 277.00680281 658.17319121 278.58178711 656.74682617 C283.35506136 652.4189086 287.94976348 648.09986171 292.0871582 643.1472168 C293.90258425 641.01468576 295.79888775 638.97181802 297.71508789 636.92993164 C304.22244462 629.96998713 310.14811744 622.65568453 315.8762207 615.0456543 C316.38411133 614.3729248 316.89200195 613.70019531 317.4152832 613.00708008 C366.20547724 547.97852405 393.17641663 468.51833343 393.0637207 387.1706543 C393.06311646 386.35929016 393.06251221 385.54792603 393.06188965 384.7119751 C393.00385874 355.86283067 389.95757285 327.0588143 382.8762207 299.0456543 C382.52285645 297.61866211 382.52285645 297.61866211 382.16235352 296.1628418 C369.97378108 247.3473798 348.37671185 202.68864697 318.8762207 162.0456543 C318.11825195 160.98991211 317.3602832 159.93416992 316.5793457 158.84643555 C310.89285726 151.07420956 304.64034123 143.85097257 298.27270508 136.63745117 C296.65631741 134.7949953 295.08145417 132.91912696 293.5012207 131.0456543 C286.00515872 122.49751343 277.75227278 114.20713924 269.05200195 106.88549805 C267.250535 105.362175 265.48823113 103.81130502 263.73168945 102.23706055 C253.92155848 93.49890641 243.59695968 85.6321689 232.8762207 78.0456543 C231.92610107 77.37155518 231.92610107 77.37155518 230.95678711 76.68383789 C206.83212179 59.72045868 180.29906186 45.82780427 152.8762207 35.0456543 C152.05814941 34.72000488 151.24007813 34.39435547 150.3972168 34.05883789 C118.57421717 21.51434967 84.82975813 14.54545717 50.8762207 11.0456543 C50.01456299 10.94994141 49.15290527 10.85422852 48.26513672 10.75561523 C38.05777696 9.74511107 27.81098388 9.80191408 17.5637207 9.7956543 C16.56889679 9.79497955 15.57407288 9.79430481 14.54910278 9.79360962 C2.09165097 9.80696567 -10.28208693 10.03957881 -22.6862793 11.2331543 Z " fill="#FFFFFF" transform="translate(434.123779296875,63.954345703125)"/>
<path d="M0 0 C1.1882991 -0.01248528 1.1882991 -0.01248528 2.40060425 -0.02522278 C5.02249042 -0.04934104 7.6441279 -0.05809704 10.26611328 -0.06469727 C12.08830847 -0.0736622 13.91050289 -0.08278402 15.73269653 -0.09205627 C19.55423777 -0.10855377 23.37569132 -0.11624777 27.19726562 -0.11914062 C32.09245912 -0.12452532 36.98682774 -0.16220535 41.88178825 -0.20788479 C45.64619958 -0.23763807 49.41041187 -0.2448638 53.17493057 -0.24586678 C54.97946069 -0.25007252 56.78399121 -0.26252104 58.58840561 -0.28338432 C61.11424017 -0.31026386 63.63815759 -0.30548462 66.1640625 -0.29296875 C67.28016907 -0.31522018 67.28016907 -0.31522018 68.41882324 -0.33792114 C72.37191723 -0.28218587 74.07295975 0.19695947 77.21438599 2.67979431 C79.21142578 5.30639648 79.21142578 5.30639648 79.21142578 7.93139648 C78.09365811 10.5860947 77.55470247 11.63563767 75.21142578 13.30639648 C72.50350213 13.60764577 70.02442427 13.72651691 67.31518555 13.71044922 C66.51162628 13.71731247 65.70806702 13.72417572 64.88015747 13.73124695 C62.22086982 13.74956533 59.56216931 13.74567028 56.90283203 13.73999023 C55.05581978 13.74454976 53.20880922 13.74985464 51.36180115 13.75587463 C47.48893344 13.76481573 43.61627182 13.76237145 39.7434082 13.75244141 C34.77869831 13.74095279 29.81469977 13.76115636 24.85008335 13.79035854 C21.03508479 13.80869969 17.22025733 13.80843222 13.40522575 13.80272102 C11.57477763 13.80256754 9.7443181 13.80863416 7.91391182 13.8210125 C5.35450686 13.83588089 2.79642396 13.82527671 0.23706055 13.80810547 C-0.51995651 13.81777344 -1.27697357 13.82744141 -2.05693054 13.83740234 C-5.5045537 13.7889355 -7.46397068 13.54021833 -10.29408264 11.50160217 C-11.78857422 9.30639648 -11.78857422 9.30639648 -11.72607422 5.68139648 C-9.97056069 -0.63845223 -5.62277288 0.0049956 0 0 Z " fill="#FFFFFF" transform="translate(416.78857421875,405.693603515625)"/>
<path d="M0 0 C1.20774834 -0.00525696 1.20774834 -0.00525696 2.43989563 -0.01062012 C5.10389809 -0.01942941 7.76763542 -0.01359114 10.43164062 -0.00683594 C12.28104707 -0.00818282 14.13045317 -0.01012354 15.9798584 -0.01263428 C19.85688649 -0.01558445 23.73382246 -0.01129131 27.61083984 -0.00195312 C32.58442263 0.00944134 37.55778957 0.0028813 42.53136444 -0.00909805 C46.35058218 -0.01631952 50.16974862 -0.0140274 53.9889679 -0.00884247 C55.82302374 -0.00750677 57.65708421 -0.00915092 59.49113464 -0.01380157 C62.05280933 -0.0188715 64.61413277 -0.01115007 67.17578125 0 C67.93639359 -0.00404846 68.69700592 -0.00809692 69.48066711 -0.01226807 C73.22986747 0.01801736 74.88665973 0.12463513 78.08789062 2.25878906 C78.96289062 5.13378906 78.96289062 5.13378906 79.08789062 8.25878906 C77.37573585 11.4262754 76.55053453 12.10457443 73.08789062 13.25878906 C70.57452445 13.36490871 68.08847467 13.41601941 65.57470703 13.41992188 C64.81176834 13.42488678 64.04882965 13.42985168 63.26277161 13.43496704 C60.73832294 13.44957452 58.21393711 13.45638808 55.68945312 13.46191406 C53.93451943 13.46766641 52.17958576 13.47342413 50.4246521 13.47918701 C46.74436144 13.48969278 43.06409261 13.49553831 39.38378906 13.49902344 C34.67042423 13.50450917 29.95734813 13.52854061 25.24407387 13.55699539 C21.61865397 13.57562795 17.99330355 13.58082769 14.36783981 13.58235931 C12.63031815 13.58538466 10.89279768 13.59340925 9.15532303 13.60654449 C6.72328013 13.62361912 4.29194197 13.62172158 1.85986328 13.61523438 C1.14384445 13.62444916 0.42782562 13.63366394 -0.30989075 13.64315796 C-5.08597475 13.60329509 -8.47799462 12.69290382 -11.91210938 9.25878906 C-11.66210938 5.82128906 -11.66210938 5.82128906 -10.91210938 2.25878906 C-7.18560358 -0.22554814 -4.31221928 -0.02295237 0 0 Z " fill="#FFFFFF" transform="translate(416.912109375,481.7412109375)"/>
<path d="M0 0 C1.07585609 -0.00525696 1.07585609 -0.00525696 2.17344666 -0.01062012 C4.55070601 -0.01944171 6.92766911 -0.01358628 9.30493164 -0.00683594 C10.95398516 -0.00818262 12.6030383 -0.01012317 14.25209045 -0.01263428 C17.71139295 -0.01558624 21.17059229 -0.01128618 24.62988281 -0.00195312 C29.06654304 0.00943257 33.50296108 0.00288806 37.93961239 -0.00909805 C41.34621508 -0.01632235 44.75276029 -0.01402595 48.1593647 -0.00884247 C49.79525341 -0.00750709 51.43114731 -0.00914981 53.06702995 -0.01380157 C55.35342111 -0.0188752 57.63941938 -0.01114463 59.92578125 0 C61.22768906 0.00159119 62.52959686 0.00318237 63.87095642 0.00482178 C67.02758789 0.25878906 67.02758789 0.25878906 70.02758789 2.25878906 C71.20447862 5.36914312 71.21772868 6.77987014 69.98400879 9.88731384 C68.02758789 12.25878906 68.02758789 12.25878906 64.83972168 12.88697815 C63.52306519 12.88793991 62.20640869 12.88890167 60.84985352 12.88989258 C59.75914803 12.90062553 59.75914803 12.90062553 58.64640808 12.91157532 C56.24157987 12.92849165 53.83860838 12.90904527 51.43383789 12.88769531 C49.76379237 12.88852375 48.09374693 12.8909822 46.42370605 12.89500427 C42.92309027 12.89786425 39.42311361 12.88314233 35.92260742 12.85571289 C31.43300972 12.8216291 26.94455507 12.82764603 22.45490265 12.84637547 C19.00618953 12.85693869 15.5577429 12.84801395 12.10905457 12.83299065 C10.45363659 12.82780335 8.79819084 12.82829728 7.14277649 12.8345356 C4.82968202 12.83997992 2.51822966 12.81964109 0.20532227 12.79223633 C-1.76966248 12.78293846 -1.76966248 12.78293846 -3.7845459 12.77345276 C-6.97241211 12.25878906 -6.97241211 12.25878906 -8.93273926 10.42076111 C-10.401544 7.3664207 -9.87798982 5.46314096 -8.97241211 2.25878906 C-6.08817133 -0.62545172 -4.03833082 0.00493865 0 0 Z " fill="#FFFFFF" transform="translate(419.972412109375,443.7412109375)"/>
</svg>
