<?xml version="1.0" encoding="UTF-8"?>
<svg version="1.1" xmlns="http://www.w3.org/2000/svg" width="901" height="901">
<path d="M0 0 C0.97857468 -0.00979385 1.95714935 -0.01958771 2.96537781 -0.02967834 C26.76805331 -0.21833969 50.02067518 0.41438691 73.53515625 4.23828125 C74.20724121 4.34718689 74.87932617 4.45609253 75.57177734 4.56829834 C110.47531977 10.29355415 143.88366933 20.62061385 176.10839844 35.16162109 C178.21929181 36.09814421 180.33793268 36.99063221 182.48046875 37.8515625 C191.25083247 41.39766628 199.12822829 45.95119105 207.19238281 50.84130859 C209.72203998 52.34971817 212.2762138 53.80793631 214.83984375 55.2578125 C215.71616455 55.75514893 216.59248535 56.25248535 217.49536133 56.76489258 C219.20839898 57.73479428 220.92432259 58.69961926 222.64331055 59.65893555 C223.41328369 60.09761963 224.18325684 60.53630371 224.9765625 60.98828125 C226.00825562 61.56835938 226.00825562 61.56835938 227.06079102 62.16015625 C227.54733154 62.5159375 228.03387207 62.87171875 228.53515625 63.23828125 C228.53515625 63.89828125 228.53515625 64.55828125 228.53515625 65.23828125 C229.07398438 65.48707031 229.6128125 65.73585938 230.16796875 65.9921875 C258.20116149 80.74893417 283.70926537 106.90805247 304.53515625 130.23828125 C305.0058252 130.76421875 305.47649414 131.29015625 305.96142578 131.83203125 C314.79713796 141.78847875 322.66158283 152.51691923 330.53515625 163.23828125 C331.04852539 163.92696289 331.56189453 164.61564453 332.09082031 165.32519531 C335.53515625 170.00881445 335.53515625 170.00881445 335.53515625 172.23828125 C336.19515625 172.23828125 336.85515625 172.23828125 337.53515625 172.23828125 C338.14605103 173.30187866 338.14605103 173.30187866 338.76928711 174.38696289 C340.32257388 177.08971254 341.87707716 179.79175784 343.43243408 182.49331665 C344.12535595 183.69732074 344.81786159 184.90156448 345.50994873 186.10604858 C349.11359703 192.37637121 352.73395483 198.62746492 356.5546875 204.76904297 C360.07983862 210.45070217 362.87432873 216.07639126 365.11328125 222.39453125 C366.1993633 225.42637358 367.42984269 228.3756963 368.70703125 231.33203125 C381.78307371 261.60737976 391.02451688 292.68470862 396.34765625 325.23828125 C396.54270752 326.4286499 396.73775879 327.61901855 396.9387207 328.84545898 C399.86778632 347.79329631 400.91264838 366.57692215 400.84765625 385.73828125 C400.84616577 386.83090271 400.84467529 387.92352417 400.84313965 389.04925537 C400.80093035 406.31128289 400.06143422 423.14260911 397.53515625 440.23828125 C397.40125488 441.22618652 397.26735352 442.2140918 397.12939453 443.23193359 C392.10941226 480.06339141 380.54320263 515.34561617 365.53515625 549.23828125 C365.16551758 550.0777832 364.79587891 550.91728516 364.41503906 551.78222656 C359.63814367 562.59640009 354.12062178 572.81773127 348.06640625 582.9609375 C346.42290688 585.71904415 344.81749606 588.49270011 343.25390625 591.296875 C342.89925293 591.93125488 342.54459961 592.56563477 342.17919922 593.21923828 C341.22296556 594.93789302 340.27335633 596.66022876 339.32421875 598.3828125 C337.60458833 601.1274628 335.83772951 602.9881385 333.53515625 605.23828125 C331.97569171 607.34536524 330.46234371 609.4585494 328.97265625 611.61328125 C321.80777384 621.79318915 314.25322057 631.61045571 305.80078125 640.76171875 C304.55233847 642.12639585 303.31178507 643.49899563 302.10839844 644.90356445 C297.2492512 650.57426181 292.06324915 655.89635219 286.78466797 661.17407227 C285.29622388 662.6646974 283.81598348 664.16315142 282.3359375 665.66210938 C276.7914344 671.23868722 271.09291872 676.40581057 264.93798828 681.3190918 C263.02101866 682.85021334 261.15625832 684.40548705 259.3203125 686.03125 C250.64181282 693.66384728 241.28315666 700.18081546 231.73242188 706.67358398 C230.15909509 707.79396747 228.63138509 708.9795043 227.13793945 710.2043457 C224.36532716 712.37099358 221.53729342 714.0993656 218.484375 715.84765625 C217.91348145 716.17553131 217.34258789 716.50340637 216.75439453 716.84121704 C214.91351648 717.89566575 213.06861823 718.94276109 211.22265625 719.98828125 C210.59034088 720.347547 209.95802551 720.70681274 209.30654907 721.07696533 C199.8613858 726.43807741 190.4141886 731.7124984 180.53515625 736.23828125 C179.71370117 736.6161377 178.89224609 736.99399414 178.04589844 737.38330078 C117.84027339 764.83541455 55.15899157 773.93271337 -10.46484375 773.23828125 C-10.46484375 757.06828125 -10.46484375 740.89828125 -10.46484375 724.23828125 C-3.47296875 723.97015625 3.51890625 723.70203125 10.72265625 723.42578125 C63.04832436 721.23234641 111.83293231 712.78357815 159.53515625 690.23828125 C158.19059927 686.69393698 156.62287281 683.43028932 154.76953125 680.125 C154.216604 679.13701416 153.66367676 678.14902832 153.09399414 677.13110352 C152.49707764 676.07334717 151.90016113 675.01559082 151.28515625 673.92578125 C150.66181396 672.81710693 150.03847168 671.70843262 149.39624023 670.56616211 C144.0592735 661.10392595 138.60017832 651.71509985 133.10546875 642.34375 C128.72840428 634.87422061 124.41418252 627.36863134 120.10571289 619.859375 C117.01047843 614.47763331 113.87883993 609.12383606 110.6640625 603.8125 C110.05312744 602.79881348 109.44219238 601.78512695 108.81274414 600.74072266 C107.6527852 598.82227388 106.48436628 596.90890753 105.30639648 595.00146484 C104.79407471 594.15277832 104.28175293 593.3040918 103.75390625 592.4296875 C103.29951172 591.68920166 102.84511719 590.94871582 102.37695312 590.18579102 C101.53515625 588.23828125 101.53515625 588.23828125 102.53515625 585.23828125 C104.81323242 583.64770508 104.81323242 583.64770508 107.828125 581.9453125 C108.92761475 581.31818359 110.02710449 580.69105469 111.15991211 580.04492188 C112.34727147 579.37981182 113.53485679 578.71510503 114.72265625 578.05078125 C115.91781203 577.37507883 117.11255521 576.6986461 118.30688477 576.02148438 C120.07998321 575.01682412 121.85363297 574.01324262 123.62962341 573.01370239 C126.86585313 571.19181769 130.08064436 569.34098284 133.26953125 567.4375 C133.9138208 567.05553467 134.55811035 566.67356934 135.22192383 566.2800293 C136.84848478 565.31216769 138.47127844 564.33798256 140.09375 563.36328125 C142.53515625 562.23828125 142.53515625 562.23828125 145.53515625 563.23828125 C147.01464844 565.32592773 147.01464844 565.32592773 148.58203125 568.109375 C149.17177734 569.14513672 149.76152344 570.18089844 150.36914062 571.24804688 C151.00142578 572.37919922 151.63371094 573.51035156 152.28515625 574.67578125 C152.95411191 575.85666766 153.62404965 577.03699823 154.29492188 578.21679688 C155.68937518 580.67087081 157.07954938 583.12729529 158.46679688 585.58544922 C161.61682724 591.15907512 164.82884508 596.6969115 168.03515625 602.23828125 C169.28288684 604.39954636 170.53028131 606.56100555 171.77734375 608.72265625 C172.39577148 609.79451172 173.01419922 610.86636719 173.65136719 611.97070312 C175.55475572 615.27227806 177.455423 618.57540659 179.35546875 621.87890625 C182.46192603 627.27905717 185.57956006 632.67263999 188.70214844 638.06347656 C190.56534923 641.29057607 192.41366705 644.52592522 194.26171875 647.76171875 C195.43562891 649.79590139 196.61008343 651.82977001 197.78515625 653.86328125 C198.32221191 654.81235352 198.85926758 655.76142578 199.41259766 656.73925781 C199.91194824 657.59745117 200.41129883 658.45564453 200.92578125 659.33984375 C201.57595215 660.47413818 201.57595215 660.47413818 202.23925781 661.63134766 C202.6669043 662.16163574 203.09455078 662.69192383 203.53515625 663.23828125 C206.94510612 663.23828125 207.48709249 662.79395775 210.08984375 660.78125 C211.12612915 659.98605957 211.12612915 659.98605957 212.18334961 659.17480469 C212.9181958 658.59762695 213.65304199 658.02044922 214.41015625 657.42578125 C215.1688501 656.83700195 215.92754395 656.24822266 216.70922852 655.64160156 C223.47791416 650.35532284 230.06177734 644.88061828 236.53515625 639.23828125 C237.3240625 638.56152344 238.11296875 637.88476562 238.92578125 637.1875 C251.4304237 626.23530465 263.35406956 614.38491638 273.53515625 601.23828125 C274.41045786 600.18319707 275.28961674 599.13130524 276.171875 598.08203125 C289.9442803 581.56169872 301.62411042 563.30607284 311.53515625 544.23828125 C311.87417969 543.59584473 312.21320312 542.9534082 312.5625 542.29150391 C314.99912852 537.65882838 317.30177617 532.97205348 319.53515625 528.23828125 C320.1070166 527.03220215 320.1070166 527.03220215 320.69042969 525.80175781 C337.80411359 489.27142047 345.55512887 451.07850028 350.53515625 411.23828125 C311.26515625 411.23828125 271.99515625 411.23828125 231.53515625 411.23828125 C230.87515625 397.37828125 230.21515625 383.51828125 229.53515625 369.23828125 C227.29965847 345.76555453 222.25687386 324.11998696 213.53515625 302.23828125 C210.04369416 302.23828125 208.87277874 303.00616229 205.90625 304.7734375 C204.9673291 305.32765381 204.0284082 305.88187012 203.06103516 306.45288086 C202.04187012 307.06268799 201.02270508 307.67249512 199.97265625 308.30078125 C197.78165382 309.59573558 195.59023348 310.88998303 193.3984375 312.18359375 C192.2635791 312.85551758 191.1287207 313.52744141 189.95947266 314.21972656 C184.54813523 317.40958382 179.10469965 320.54304929 173.66015625 323.67578125 C171.48045377 324.93226568 169.30076636 326.18877626 167.12109375 327.4453125 C162.71061872 329.9860869 158.29889825 332.52468692 153.88671875 335.0625 C152.79294922 335.6922876 151.69917969 336.3220752 150.57226562 336.97094727 C148.39989905 338.22154243 146.22673536 339.47075408 144.05273438 340.71850586 C138.71594354 343.78993168 133.41178845 346.9031521 128.15234375 350.10546875 C126.63688965 351.02271729 126.63688965 351.02271729 125.09082031 351.95849609 C123.18257412 353.11736936 121.28049653 354.28648172 119.38574219 355.46728516 C118.54043945 355.97952637 117.69513672 356.49176758 116.82421875 357.01953125 C116.08896973 357.47392578 115.3537207 357.92832031 114.59619141 358.39648438 C112.53515625 359.23828125 112.53515625 359.23828125 110.4128418 359.09130859 C108.05956525 358.02222157 107.44975366 357.05519648 106.203125 354.80859375 C105.80101807 354.1012207 105.39891113 353.39384766 104.98461914 352.66503906 C104.56817139 351.90545898 104.15172363 351.14587891 103.72265625 350.36328125 C102.83056699 348.79752707 101.93733735 347.23242207 101.04296875 345.66796875 C100.61145508 344.90452148 100.17994141 344.14107422 99.73535156 343.35449219 C85.74889138 318.69325604 66.04625057 301.81894011 38.5234375 294.20703125 C13.05351513 287.74479186 -12.92849029 291.97892772 -35.46484375 305.23828125 C-51.44045994 315.02416347 -61.87420071 328.06652784 -71.0546875 344.07421875 C-74.02059286 349.24063453 -77.21033793 354.24875743 -80.46484375 359.23828125 C-85.29572169 358.69016241 -88.9060253 356.41757847 -92.96484375 353.92578125 C-94.46269352 353.02463042 -95.96143645 352.12496294 -97.4609375 351.2265625 C-98.25999512 350.74654785 -99.05905273 350.2665332 -99.88232422 349.77197266 C-104.5627785 346.99237219 -109.29662412 344.30613383 -114.02734375 341.61328125 C-115.42919922 340.81410278 -115.42919922 340.81410278 -116.859375 339.9987793 C-119.06064059 338.74429682 -121.26244457 337.49077214 -123.46484375 336.23828125 C-121.53788642 329.94542683 -118.45048634 324.82044845 -115.02734375 319.23828125 C-114.40061768 318.21387939 -113.7738916 317.18947754 -113.12817383 316.1340332 C-105.69365287 304.15698121 -97.14134333 293.49298994 -87.46484375 283.23828125 C-86.34916016 282.02591797 -86.34916016 282.02591797 -85.2109375 280.7890625 C-65.04070857 259.6219524 -39.56365082 249.25945419 -11.46484375 243.23828125 C-11.13484375 219.47828125 -10.80484375 195.71828125 -10.46484375 171.23828125 C-13.43484375 171.89828125 -16.40484375 172.55828125 -19.46484375 173.23828125 C-21.15226947 173.58106533 -22.84084443 173.9183202 -24.53125 174.24609375 C-77.65587424 184.89327076 -126.22285405 213.17032999 -158.46484375 257.23828125 C-159.20863281 258.23730469 -159.95242188 259.23632812 -160.71875 260.265625 C-193.30123295 305.55469343 -207.16586835 362.03236144 -199.46484375 417.23828125 C-196.59277297 434.58181115 -192.57683683 451.92314597 -185.3828125 468.015625 C-184.46484375 470.23828125 -184.46484375 470.23828125 -184.46484375 472.23828125 C-167.51747933 462.57187889 -150.59277353 452.8678835 -133.70019531 443.10595703 C-130.41260446 441.208125 -127.12265519 439.31444254 -123.83203125 437.421875 C-122.18787231 436.47550171 -122.18787231 436.47550171 -120.51049805 435.51000977 C-118.33544443 434.25821396 -116.15983705 433.00737978 -113.98364258 431.75756836 C-108.63916202 428.6799481 -103.32312719 425.56446604 -98.046875 422.37109375 C-96.52465332 421.45384521 -96.52465332 421.45384521 -94.97167969 420.51806641 C-93.05154654 419.3573889 -91.13654196 418.18817153 -89.22753906 417.00927734 C-88.37901367 416.49703613 -87.53048828 415.98479492 -86.65625 415.45703125 C-85.54552124 414.77543945 -85.54552124 414.77543945 -84.41235352 414.08007812 C-82.46484375 413.23828125 -82.46484375 413.23828125 -79.46484375 414.23828125 C-78.07373047 416.27270508 -78.07373047 416.27270508 -76.64453125 418.9453125 C-75.84776978 420.40650513 -75.84776978 420.40650513 -75.03491211 421.8972168 C-74.47553955 422.93789307 -73.91616699 423.97856934 -73.33984375 425.05078125 C-65.58635256 439.16478773 -65.58635256 439.16478773 -55.21875 451.4140625 C-53.46484375 453.23828125 -53.46484375 453.23828125 -53.46484375 455.23828125 C-52.87445313 455.50382812 -52.2840625 455.769375 -51.67578125 456.04296875 C-49.40768323 457.26918429 -47.93132277 458.57179713 -46.08984375 460.36328125 C-26.94043746 477.38890866 -1.2350817 482.5591439 23.63916016 481.4453125 C47.02309219 479.77362355 67.10117582 468.44144735 83.53515625 452.23828125 C84.6334375 451.15933594 84.6334375 451.15933594 85.75390625 450.05859375 C91.38692802 444.13497958 95.30525339 437.31780705 99.35449219 430.27587891 C101.3925979 426.75850291 103.49901426 423.28224936 105.59765625 419.80078125 C106.35967259 418.5314286 107.12141978 417.26191431 107.8828125 415.9921875 C108.70072266 414.62900391 108.70072266 414.62900391 109.53515625 413.23828125 C113.34477689 414.66248725 116.77919593 416.41737008 120.3046875 418.44140625 C121.4282666 419.084729 122.5518457 419.72805176 123.70947266 420.39086914 C124.92227346 421.08987997 126.13499944 421.78902064 127.34765625 422.48828125 C128.60975603 423.21299605 129.87196456 423.93752149 131.13427734 424.66186523 C139.97791988 429.74202688 148.79383592 434.86953728 157.59741211 440.01879883 C168.12260373 446.17451766 178.68737606 452.26107018 189.25292969 458.34716797 C194.68175565 461.47508272 200.10836294 464.60684171 205.53515625 467.73828125 C211.61231789 471.24472608 217.68956098 474.75102826 223.76800537 478.25524902 C225.51856866 479.26447229 227.26906036 480.27381961 229.01953125 481.28320312 C231.1990779 482.53995785 233.37875457 483.79648711 235.55859375 485.05273438 C242.56376908 489.09244567 249.55374132 493.15764965 256.53515625 497.23828125 C255.72533385 502.05906995 253.75359231 505.61571064 251.22265625 509.73828125 C250.32150542 511.23613102 249.42183794 512.73487395 248.5234375 514.234375 C248.04342285 515.03343262 247.5634082 515.83249023 247.06884766 516.65576172 C244.28924719 521.336216 241.60300883 526.07006162 238.91015625 530.80078125 C238.11097778 532.20263672 238.11097778 532.20263672 237.2956543 533.6328125 C236.04117182 535.83407809 234.78764714 538.03588207 233.53515625 540.23828125 C229.36930179 539.64261588 226.39496123 538.2355862 222.765625 536.1328125 C221.6420459 535.48626709 220.5184668 534.83972168 219.36083984 534.17358398 C218.14801579 533.46614796 216.93529041 532.75854274 215.72265625 532.05078125 C214.46078372 531.32111717 213.19857196 530.59203948 211.93603516 529.86352539 C208.13027757 527.66445575 204.33229979 525.4521803 200.53515625 523.23828125 C199.46571777 522.61598633 198.3962793 521.99369141 197.29443359 521.35253906 C192.36855973 518.48579641 187.44665882 515.61235549 182.52734375 512.734375 C176.21139254 509.04330229 169.87443167 505.38910876 163.53515625 501.73828125 C151.17421356 494.61860232 138.84880163 487.43943001 126.53515625 480.23828125 C126.09872803 480.69565674 125.6622998 481.15303223 125.21264648 481.62426758 C103.09158452 504.6584916 75.81133817 523.94901659 43.53515625 529.23828125 C41.88515625 529.23828125 40.23515625 529.23828125 38.53515625 529.23828125 C38.53515625 569.82828125 38.53515625 610.41828125 38.53515625 652.23828125 C22.36515625 652.23828125 6.19515625 652.23828125 -10.46484375 652.23828125 C-10.46484375 611.64828125 -10.46484375 571.05828125 -10.46484375 529.23828125 C-13.43484375 528.90828125 -16.40484375 528.57828125 -19.46484375 528.23828125 C-22.12672244 527.55507448 -24.67694068 526.8440853 -27.27734375 525.98828125 C-27.96965088 525.76430664 -28.66195801 525.54033203 -29.37524414 525.30957031 C-55.13523672 516.82112446 -75.86158632 502.94474615 -94.23828125 483.01171875 C-94.97304688 482.42648437 -95.7078125 481.84125 -96.46484375 481.23828125 C-100.81715599 481.86596542 -104.4440123 484.29127015 -108.21484375 486.42578125 C-109.00068848 486.86647949 -109.7865332 487.30717773 -110.59619141 487.76123047 C-118.06963333 491.97274333 -125.47300819 496.30424815 -132.87402344 500.64135742 C-140.7071231 505.22785957 -148.57773325 509.74565598 -156.46484375 514.23828125 C-167.52299258 520.5383992 -178.53269709 526.91711718 -189.515625 533.34765625 C-190.79493896 534.09305664 -190.79493896 534.09305664 -192.10009766 534.85351562 C-193.59770513 535.73049576 -195.09028004 536.61617614 -196.57568359 537.51367188 C-201.1433409 540.23828125 -201.1433409 540.23828125 -204.46484375 540.23828125 C-204.91287354 539.45291992 -205.36090332 538.66755859 -205.82250977 537.85839844 C-207.51996939 534.88352778 -209.21795017 531.90895576 -210.91625977 528.93457031 C-211.64465178 527.65864389 -212.37284886 526.38260616 -213.10083008 525.10644531 C-214.1604289 523.24903951 -215.22079624 521.39207404 -216.28125 519.53515625 C-216.63140167 518.92095322 -216.98155334 518.30675018 -217.34231567 517.67393494 C-219.63203441 513.66604926 -221.97596625 509.69364397 -224.3359375 505.7265625 C-226.63473509 501.79167192 -228.55729119 498.02897808 -229.96484375 493.67578125 C-230.35800781 492.49886719 -230.75117188 491.32195312 -231.15625 490.109375 C-231.36266113 489.48659668 -231.56907227 488.86381836 -231.78173828 488.22216797 C-232.51430442 486.09463672 -233.30747243 483.99778432 -234.1171875 481.8984375 C-242.14764983 461.03343688 -247.71044848 439.47130053 -250.0078125 417.1953125 C-250.21070284 413.46186523 -250.21070284 413.46186523 -251.46484375 411.23828125 C-251.56475145 409.72395501 -251.60316173 408.20534661 -251.61010742 406.68774414 C-251.61648727 405.74238297 -251.62286713 404.79702179 -251.62944031 403.82301331 C-251.63055313 402.79602829 -251.63166595 401.76904327 -251.6328125 400.7109375 C-251.6361409 399.6522496 -251.6394693 398.59356171 -251.64289856 397.50279236 C-251.64797139 395.25406326 -251.65030678 393.00532661 -251.65014648 390.7565918 C-251.65231496 387.34606106 -251.67041678 383.9358633 -251.68945312 380.52539062 C-251.69239072 378.33724068 -251.69437306 376.14908921 -251.6953125 373.9609375 C-251.70249802 372.95217056 -251.70968353 371.94340363 -251.71708679 370.90406799 C-251.69570345 364.13639681 -250.81595175 357.85754976 -249.46484375 351.23828125 C-249.16999204 349.46231063 -248.88250728 347.68508637 -248.60546875 345.90625 C-245.3015567 325.34298464 -239.82164584 305.71263472 -232.46484375 286.23828125 C-232.17947754 285.46983887 -231.89411133 284.70139648 -231.60009766 283.90966797 C-226.53424774 270.44930759 -219.59756381 258.26976752 -212.13183594 246.00341797 C-211.0009732 244.1275903 -209.89285832 242.2378959 -208.80566406 240.33642578 C-208.28327148 239.42876465 -207.76087891 238.52110352 -207.22265625 237.5859375 C-206.76262207 236.77261963 -206.30258789 235.95930176 -205.82861328 235.12133789 C-204.46484375 233.23828125 -204.46484375 233.23828125 -201.46484375 232.23828125 C-200.75719206 230.92624035 -200.10035227 229.58674376 -199.46484375 228.23828125 C-184.26869625 206.82687968 -164.66385572 186.450336 -142.75390625 171.94140625 C-140.34732309 170.25345921 -140.34732309 170.25345921 -138.18359375 167.82421875 C-134.85806226 164.66114139 -131.37505324 162.74336418 -127.33984375 160.61328125 C-125.72675299 159.74424767 -124.11481074 158.87307954 -122.50390625 158 C-121.25915527 157.32590088 -121.25915527 157.32590088 -119.98925781 156.63818359 C-117.47871213 155.2459719 -115.01201787 153.7977428 -112.55078125 152.3203125 C-103.38742676 146.82027027 -94.69777731 142.47600309 -84.46484375 139.23828125 C-82.95074715 138.6993426 -81.43917035 138.15329151 -79.9296875 137.6015625 C-48.83294316 126.26028713 -18.45086393 120.78293249 14.59765625 120.73828125 C15.61671051 120.73378967 16.63576477 120.7292981 17.68569946 120.72467041 C36.28997901 120.69129951 54.85284388 122.18534171 72.97265625 126.61328125 C74.32254639 126.93244507 74.32254639 126.93244507 75.69970703 127.25805664 C83.77758576 129.21108458 91.6757135 131.54455375 99.53515625 134.23828125 C100.69660156 134.61984375 101.85804688 135.00140625 103.0546875 135.39453125 C122.03538593 142.02463677 140.25646781 151.6398948 157.78515625 161.42578125 C159.24900757 162.23607788 159.24900757 162.23607788 160.74243164 163.06274414 C161.62793701 163.56797607 162.51344238 164.07320801 163.42578125 164.59375 C164.19954102 165.03356201 164.97330078 165.47337402 165.77050781 165.92651367 C167.53515625 167.23828125 167.53515625 167.23828125 168.53515625 170.23828125 C167.41455078 172.72753906 167.41455078 172.72753906 165.66796875 175.69140625 C165.03318604 176.77953613 164.39840332 177.86766602 163.74438477 178.98876953 C163.049915 180.15543603 162.35516731 181.32193713 161.66015625 182.48828125 C160.96653335 183.66861885 160.27374427 184.84944683 159.58178711 186.03076172 C157.57971602 189.44137072 155.55917712 192.84065172 153.53515625 196.23828125 C153.00776855 197.12612305 152.48038086 198.01396484 151.93701172 198.92871094 C149.48991158 203.04432708 147.02539266 207.1486247 144.53515625 211.23828125 C141.13588376 209.94063054 137.97571474 208.466926 134.796875 206.69921875 C133.45568604 205.95816895 133.45568604 205.95816895 132.08740234 205.20214844 C130.66935303 204.41565918 130.66935303 204.41565918 129.22265625 203.61328125 C99.59559964 187.36133436 72.29963449 177.37727729 38.53515625 171.23828125 C38.53515625 194.99828125 38.53515625 218.75828125 38.53515625 243.23828125 C43.48515625 244.22828125 48.43515625 245.21828125 53.53515625 246.23828125 C80.39359966 253.39547474 108.49452942 269.90918403 125.53515625 292.23828125 C129.07950052 290.89372427 132.34314818 289.32599781 135.6484375 287.47265625 C136.63642334 286.919729 137.62440918 286.36680176 138.64233398 285.79711914 C140.22896851 284.90174438 140.22896851 284.90174438 141.84765625 283.98828125 C142.95633057 283.36493896 144.06500488 282.74159668 145.20727539 282.09936523 C154.67456502 276.7595482 164.0681559 271.297051 173.4453125 265.80078125 C179.7508604 262.10614817 186.07809711 258.44974839 192.41015625 254.80078125 C193.47145752 254.18912109 194.53275879 253.57746094 195.6262207 252.94726562 C197.79695098 251.69646396 199.96776905 250.44581466 202.13867188 249.1953125 C207.55962117 246.0717983 212.97852491 242.94474009 218.39752197 239.81784058 C221.18550384 238.20914443 223.9736164 236.60067483 226.76171875 234.9921875 C227.68549316 234.45924072 228.60926758 233.92629395 229.56103516 233.37719727 C230.5382251 232.81343384 230.5382251 232.81343384 231.53515625 232.23828125 C234.06074344 234.63942593 236.08023722 236.82537785 237.7265625 239.8984375 C238.10852783 240.60000977 238.49049316 241.30158203 238.8840332 242.02441406 C239.28452881 242.77561523 239.68502441 243.52681641 240.09765625 244.30078125 C242.80551056 249.30256988 245.52957458 254.27877974 248.45703125 259.15625 C253.2362321 267.12318986 257.51785588 274.7194552 260.3671875 283.6171875 C261.23270375 286.30057735 262.15073799 288.89275003 263.171875 291.515625 C271.90469376 313.99538988 276.87560251 337.3022976 279.53515625 361.23828125 C302.96515625 361.56828125 326.39515625 361.89828125 350.53515625 362.23828125 C343.14066891 303.08238252 329.26904285 246.6596399 294.53515625 197.23828125 C293.75763728 196.10949567 292.98030148 194.98058391 292.203125 193.8515625 C287.21472909 186.67323597 281.89033331 179.91410121 276.16796875 173.30859375 C273.80636633 170.58027233 271.57608304 167.76427165 269.34765625 164.92578125 C265.33517216 159.99346777 260.96470789 155.48550152 256.47265625 150.98828125 C255.81177002 150.32658936 255.15088379 149.66489746 254.4699707 148.9831543 C249.98106423 144.54431619 245.33343865 140.33926611 240.53515625 136.23828125 C239.90794678 135.69896973 239.2807373 135.1596582 238.63452148 134.60400391 C223.01043095 121.2590552 206.39669908 109.40072648 188.53515625 99.23828125 C187.84776367 98.84189453 187.16037109 98.44550781 186.45214844 98.03710938 C145.53059536 74.48011294 100.37051284 59.30196661 53.53515625 53.23828125 C52.54727112 53.10747665 52.54727112 53.10747665 51.53942871 52.97402954 C37.86548046 51.20576611 24.31147314 50.87733898 10.53515625 50.92578125 C9.4573288 50.92760406 8.37950134 50.92942688 7.26901245 50.93130493 C-9.15961061 50.97802255 -25.23012502 51.51344308 -41.46484375 54.23828125 C-42.52493652 54.4098877 -43.5850293 54.58149414 -44.67724609 54.75830078 C-75.23320482 59.81855205 -104.50980645 68.97008593 -132.46484375 82.23828125 C-133.26857422 82.61291504 -134.07230469 82.98754883 -134.90039062 83.37353516 C-155.91293045 93.20676038 -175.50031469 105.56423766 -193.46484375 120.23828125 C-194.05297852 120.71749023 -194.64111328 121.19669922 -195.24707031 121.69042969 C-210.62694022 134.30244525 -225.88375182 147.8278528 -238.2421875 163.4609375 C-240.19817662 165.9050645 -242.2252439 168.26349615 -244.29150391 170.61425781 C-258.51732075 186.93796154 -269.67616459 205.54212315 -280.46484375 224.23828125 C-280.88491699 224.96354004 -281.30499023 225.68879883 -281.73779297 226.43603516 C-324.66918065 301.32257757 -331.76245563 393.00597538 -310.47412109 475.52636719 C-304.24647401 498.43036966 -295.38332288 520.35197151 -284.42675781 541.38378906 C-283.48443834 543.20050448 -282.56333914 545.02677343 -281.64453125 546.85546875 C-269.55357426 570.58921383 -253.37644718 592.58822848 -235.46484375 612.23828125 C-234.52560059 613.27009521 -234.52560059 613.27009521 -233.56738281 614.32275391 C-231.60425631 616.46934563 -229.63120563 618.60619164 -227.65234375 620.73828125 C-227.05429932 621.38498779 -226.45625488 622.03169434 -225.84008789 622.69799805 C-222.18502332 626.58903589 -218.3657326 630.16740075 -214.31518555 633.64404297 C-211.90961141 635.71666457 -209.59859328 637.88452771 -207.27734375 640.05078125 C-197.37539943 649.06496505 -186.53498783 656.73739803 -175.46484375 664.23828125 C-168.09522763 652.60700214 -161.30764177 640.63627744 -154.45263672 628.69775391 C-151.29761756 623.20688907 -148.13093778 617.72276511 -144.96484375 612.23828125 C-141.44820662 606.14484586 -137.93208035 600.0511235 -134.42208862 593.95385742 C-133.40537177 592.18782603 -132.38828717 590.42200694 -131.37109375 588.65625 C-130.10083502 586.4509397 -128.83125357 584.24523909 -127.5625 582.0390625 C-126.41637639 580.0499013 -125.26664329 578.06281416 -124.11279297 576.078125 C-122.999593 574.15979284 -121.89729702 572.23509773 -120.80517578 570.3046875 C-120.01989502 568.94150391 -120.01989502 568.94150391 -119.21875 567.55078125 C-118.75927979 566.74253906 -118.29980957 565.93429687 -117.82641602 565.1015625 C-116.46484375 563.23828125 -116.46484375 563.23828125 -113.46484375 562.23828125 C-111.28271484 563.15942383 -111.28271484 563.15942383 -108.73828125 564.6328125 C-107.7961377 565.17188232 -106.85399414 565.71095215 -105.88330078 566.26635742 C-104.87895996 566.85521729 -103.87461914 567.44407715 -102.83984375 568.05078125 C-101.81616699 568.64157471 -100.79249023 569.23236816 -99.73779297 569.84106445 C-97.64736311 571.04986407 -95.55963062 572.26334026 -93.47460938 573.48144531 C-90.72316995 575.08749318 -87.96328662 576.67753975 -85.19921875 578.26171875 C-83.66228713 579.14892019 -82.1257982 580.03688917 -80.58984375 580.92578125 C-79.87747559 581.33481689 -79.16510742 581.74385254 -78.43115234 582.1652832 C-73.58074558 585.00647759 -73.58074558 585.00647759 -72.46484375 587.23828125 C-73.4777832 589.49047852 -73.4777832 589.49047852 -75.078125 592.3046875 C-75.66134521 593.33843506 -76.24456543 594.37218262 -76.84545898 595.43725586 C-77.48298096 596.54721924 -78.12050293 597.65718262 -78.77734375 598.80078125 C-79.42453369 599.9410376 -80.07172363 601.08129395 -80.73852539 602.25610352 C-85.02107398 609.7807055 -89.37665689 617.26036833 -93.79296875 624.70703125 C-97.12486283 630.3369598 -100.38632048 636.00747295 -103.65234375 641.67578125 C-104.60935181 643.33661743 -104.60935181 643.33661743 -105.58569336 645.03100586 C-106.89373852 647.30165193 -108.20159823 649.57240483 -109.50927734 651.84326172 C-112.65816429 657.30998105 -115.81167639 662.77403012 -118.96484375 668.23828125 C-120.21486725 670.40493436 -121.46486722 672.57160104 -122.71484375 674.73828125 C-133.96484375 694.23828125 -145.21484375 713.73828125 -156.46484375 733.23828125 C-160.00100029 732.55743219 -162.7382233 731.11793142 -165.8671875 729.359375 C-166.91592041 728.7720459 -167.96465332 728.1847168 -169.04516602 727.57958984 C-170.15303467 726.95133301 -171.26090332 726.32307617 -172.40234375 725.67578125 C-173.53663818 725.03463379 -174.67093262 724.39348633 -175.83959961 723.73291016 C-179.05294593 721.90983644 -182.26052428 720.07716609 -185.46484375 718.23828125 C-186.18575195 717.82562012 -186.90666016 717.41295898 -187.64941406 716.98779297 C-196.47772506 711.89046572 -204.5196982 705.85824676 -212.59277344 699.66503906 C-214.28083098 698.3785226 -215.98060103 697.11148938 -217.69140625 695.85546875 C-225.2343758 690.30272864 -232.42561738 684.41417928 -239.46484375 678.23828125 C-240.18502686 677.60712402 -240.90520996 676.9759668 -241.6472168 676.32568359 C-248.11366711 670.58595397 -254.29473773 664.59461385 -260.40600586 658.48242188 C-262.02374567 656.86687445 -263.64935011 655.25953091 -265.27539062 653.65234375 C-271.80363693 647.15875719 -277.74036425 640.4599784 -283.46484375 633.23828125 C-284.33952425 632.19864233 -285.2196326 631.16349697 -286.109375 630.13671875 C-291.07337834 624.35879774 -295.62506514 618.38929433 -300.02734375 612.17578125 C-300.81492065 611.06759033 -300.81492065 611.06759033 -301.6184082 609.93701172 C-302.34870239 608.89311279 -302.34870239 608.89311279 -303.09375 607.828125 C-303.5276001 607.20800537 -303.9614502 606.58788574 -304.40844727 605.94897461 C-305.46484375 604.23828125 -305.46484375 604.23828125 -306.46484375 601.23828125 C-307.12484375 601.23828125 -307.78484375 601.23828125 -308.46484375 601.23828125 C-311.66796875 595.6328125 -314.87109375 590.02734375 -318.07421875 584.421875 C-318.42147507 583.81444962 -318.76873138 583.20702423 -319.12651062 582.58119202 C-319.83726814 581.33680977 -320.54706091 580.09187603 -321.25593567 578.84642029 C-322.99605941 575.7918272 -324.7494755 572.74723111 -326.54174805 569.72290039 C-331.45920781 561.3788091 -335.53963132 552.85682439 -339.27734375 543.92578125 C-339.72098267 542.87404221 -339.72098267 542.87404221 -340.17358398 541.80105591 C-353.65509727 509.71856415 -362.96051278 476.607765 -368.46484375 442.23828125 C-368.71476074 440.73587891 -368.71476074 440.73587891 -368.96972656 439.203125 C-374.48780636 404.51805196 -374.20916005 365.87230538 -368.46484375 331.23828125 C-368.2932373 330.15482422 -368.12163086 329.07136719 -367.94482422 327.95507812 C-361.98957494 291.02082434 -351.35586299 255.67524217 -335.62255859 221.76123047 C-334.56634194 219.45947111 -333.56531121 217.14114243 -332.5703125 214.8125 C-329.99586981 209.00272256 -326.84117591 203.51456262 -323.71484375 197.98828125 C-323.09448242 196.88814697 -322.47412109 195.7880127 -321.83496094 194.65454102 C-311.3580135 176.15028228 -311.3580135 176.15028228 -308.46484375 172.23828125 C-307.80484375 172.23828125 -307.14484375 172.23828125 -306.46484375 172.23828125 C-306.19406006 171.49964844 -305.92327637 170.76101562 -305.64428711 170 C-304.51777627 167.36222508 -303.28848363 165.35179835 -301.59375 163.05078125 C-300.74043091 161.88857056 -300.74043091 161.88857056 -299.86987305 160.70288086 C-298.95782104 159.48290405 -298.95782104 159.48290405 -298.02734375 158.23828125 C-297.40061768 157.39467041 -296.7738916 156.55105957 -296.12817383 155.68188477 C-288.78774777 145.88252325 -280.87112877 136.67985735 -272.6328125 127.625 C-271.18699099 126.03329379 -269.75203624 124.43164899 -268.328125 122.8203125 C-259.9514862 113.36087659 -251.10826737 104.4098139 -241.46484375 96.23828125 C-240.45075256 95.35017905 -239.43783585 94.46073485 -238.42578125 93.5703125 C-229.76964776 85.99401107 -220.76649771 79.00243598 -211.46484375 72.23828125 C-210.42070312 71.47644531 -209.3765625 70.71460938 -208.30078125 69.9296875 C-201.74980351 65.23828125 -201.74980351 65.23828125 -199.46484375 65.23828125 C-199.46484375 64.57828125 -199.46484375 63.91828125 -199.46484375 63.23828125 C-196.01862354 61.24813378 -192.57215664 59.2584142 -189.12548828 57.26904297 C-187.39603705 56.27071878 -185.6667655 55.27208336 -183.9375 54.2734375 C-182.21500256 53.27931041 -180.49247276 52.28523449 -178.76805115 51.29444885 C-175.82804237 49.60517369 -172.89555421 47.90523006 -169.97680664 46.17944336 C-161.94811127 41.46161114 -153.72729451 37.44115798 -145.15234375 33.80078125 C-144.18532028 33.38682602 -144.18532028 33.38682602 -143.19876099 32.96450806 C-103.82779158 16.13807624 -63.04981992 5.63228814 -20.46484375 1.23828125 C-19.74607559 1.15650131 -19.02730743 1.07472137 -18.28675842 0.99046326 C-12.17973829 0.32495969 -6.14100305 0.05119232 0 0 Z M-65.46484375 18.23828125 C-66.44662598 18.44791504 -67.4284082 18.65754883 -68.43994141 18.87353516 C-95.73143028 24.86705063 -122.24824311 34.26743902 -147.46484375 46.23828125 C-148.57303467 46.75720947 -148.57303467 46.75720947 -149.70361328 47.28662109 C-165.31670295 54.63680623 -181.32991621 62.80308755 -195.015625 73.359375 C-197.86165693 75.54269455 -200.80769852 77.53908609 -203.77734375 79.55078125 C-218.73021974 89.81481823 -233.16235999 101.49999352 -245.7734375 114.546875 C-247.45108142 116.22451892 -249.19723906 117.72995321 -251.02734375 119.23828125 C-254.13570136 121.85291763 -256.71806482 124.70888158 -259.33984375 127.8046875 C-260.97154823 129.67334906 -262.62553395 131.47525936 -264.33984375 133.265625 C-272.77533851 142.09196349 -280.23260485 151.40946918 -287.46484375 161.23828125 C-288.02768066 161.99753906 -288.59051758 162.75679687 -289.17041016 163.5390625 C-296.06891943 172.85978465 -302.59205006 182.23278089 -308.46484375 192.23828125 C-309.28806395 193.58524621 -310.11235021 194.93155999 -310.9375 196.27734375 C-361.66496426 280.11534993 -374.18561364 383.55176288 -351.33984375 478.05078125 C-345.1103243 502.62644408 -336.27757031 526.3235523 -325.46484375 549.23828125 C-325.11357422 549.98916016 -324.76230469 550.74003906 -324.40039062 551.51367188 C-316.00543671 569.32165563 -305.98668378 586.28641437 -294.46484375 602.23828125 C-293.65660156 603.37112549 -293.65660156 603.37112549 -292.83203125 604.52685547 C-284.91314952 615.61193392 -276.58642843 626.12269681 -267.46484375 636.23828125 C-266.57785569 637.23673999 -265.6911247 638.23542718 -264.8046875 639.234375 C-259.3035924 645.34946865 -253.57945827 651.22225919 -247.77734375 657.05078125 C-247.07641602 657.75638184 -246.37548828 658.46198242 -245.65332031 659.18896484 C-226.23138773 678.55148916 -203.69543045 694.77938813 -180.46484375 709.23828125 C-179.69591797 709.72055176 -178.92699219 710.20282227 -178.13476562 710.69970703 C-175.81675668 712.1453624 -173.48732207 713.57023047 -171.15234375 714.98828125 C-170.44070068 715.43131592 -169.72905762 715.87435059 -168.99584961 716.33081055 C-165.46106828 718.55381555 -165.46106828 718.55381555 -161.43920898 719.15527344 C-158.57097188 717.82312325 -157.84941783 716.03474718 -156.36328125 713.26953125 C-155.79617432 712.23256104 -155.22906738 711.19559082 -154.64477539 710.12719727 C-154.04914795 709.00885498 -153.45352051 707.8905127 -152.83984375 706.73828125 C-151.57692286 704.42371361 -150.31259718 702.10991194 -149.046875 699.796875 C-148.43150879 698.66491699 -147.81614258 697.53295898 -147.18212891 696.36669922 C-145.03989664 692.4641453 -142.80844373 688.62330919 -140.52734375 684.80078125 C-136.38992288 677.83163276 -132.32361694 670.82324312 -128.27734375 663.80078125 C-127.32033569 662.13994507 -127.32033569 662.13994507 -126.34399414 660.44555664 C-125.03594898 658.17491057 -123.72808927 655.90415767 -122.42041016 653.63330078 C-119.27152321 648.16658144 -116.11799995 642.70253883 -112.96484375 637.23828125 C-111.72914792 635.09636498 -110.49347092 632.95443785 -109.2578125 630.8125 C-106.96234917 626.83365693 -104.66660961 622.85497352 -102.37051392 618.87649536 C-101.33810897 617.08761207 -100.30576419 615.29869408 -99.2734375 613.50976562 C-97.97798427 611.26490489 -96.68241805 609.02010935 -95.38671875 606.77539062 C-94.24294295 604.79326488 -93.10042552 602.81041218 -91.95947266 600.82666016 C-91.03191263 599.22032376 -90.09789301 597.61767666 -89.15380859 596.02099609 C-87.12697649 592.84544821 -87.12697649 592.84544821 -86.46484375 589.23828125 C-90.22975466 587.06119802 -94.00269555 584.8984309 -97.77734375 582.73828125 C-98.84919922 582.11824219 -99.92105469 581.49820313 -101.02539062 580.859375 C-102.05341797 580.27285156 -103.08144531 579.68632813 -104.140625 579.08203125 C-105.08848877 578.53740234 -106.03635254 577.99277344 -107.01293945 577.43164062 C-109.45994022 576.01946817 -109.45994022 576.01946817 -112.46484375 576.23828125 C-113.08190186 577.32206055 -113.08190186 577.32206055 -113.71142578 578.42773438 C-121.49250626 592.08723024 -129.30361091 605.72642045 -137.24267578 619.29492188 C-141.51138328 626.59338527 -145.74521548 633.91134354 -149.96484375 641.23828125 C-157.08452268 653.59922394 -164.26369499 665.92463587 -171.46484375 678.23828125 C-174.77851944 677.01193772 -177.54194871 675.6613861 -180.3984375 673.5859375 C-181.12281006 673.06233643 -181.84718262 672.53873535 -182.59350586 671.99926758 C-183.73638062 671.15851685 -183.73638062 671.15851685 -184.90234375 670.30078125 C-186.09452515 669.43005981 -186.09452515 669.43005981 -187.31079102 668.54174805 C-197.63262471 660.96412517 -207.64007435 653.21088684 -217.02734375 644.4921875 C-219.09328561 642.58185344 -221.19434954 640.74498155 -223.33984375 638.92578125 C-231.98672157 631.40210612 -240.16546209 623.07202272 -247.46484375 614.23828125 C-247.90731445 613.70960449 -248.34978516 613.18092773 -248.80566406 612.63623047 C-293.12141492 559.59769607 -319.6899336 497.53570544 -329.46484375 429.23828125 C-329.6661792 427.85334473 -329.6661792 427.85334473 -329.87158203 426.44042969 C-341.62729103 341.02553141 -315.63307241 247.93143057 -264.02734375 179.36328125 C-262.19328964 176.97203857 -260.33440209 174.601808 -258.46484375 172.23828125 C-257.77261719 171.34625 -257.08039063 170.45421875 -256.3671875 169.53515625 C-254.43347658 167.07334769 -252.45659106 164.65332211 -250.46484375 162.23828125 C-249.71332031 161.30113281 -248.96179688 160.36398438 -248.1875 159.3984375 C-241.25972363 150.92646254 -233.61610206 143.17386012 -225.90234375 135.42578125 C-225.3719046 134.89016571 -224.84146545 134.35455017 -224.29495239 133.80270386 C-217.3562544 126.81072703 -210.2211205 120.33403685 -202.46484375 114.23828125 C-201.40456421 113.38068251 -200.34458871 112.52270746 -199.28515625 111.6640625 C-151.1152159 73.89603681 -93.91832036 51.38290592 -33.46484375 43.23828125 C-32.63178711 43.1196875 -31.79873047 43.00109375 -30.94042969 42.87890625 C-0.85396832 38.74770436 31.57106774 39.77638561 61.53515625 44.23828125 C62.67194824 44.40457031 63.80874023 44.57085937 64.97998047 44.7421875 C102.12150756 50.35630216 137.85492235 61.64933497 171.53515625 78.23828125 C172.4487793 78.68816406 173.36240234 79.13804687 174.30371094 79.6015625 C197.59328198 91.19206971 219.70353361 105.37132789 239.53515625 122.23828125 C240.51613281 123.03492188 241.49710938 123.8315625 242.5078125 124.65234375 C250.55238726 131.25575192 257.97648359 138.46531077 265.34765625 145.80078125 C265.83552612 146.28347473 266.323396 146.76616821 266.8260498 147.26348877 C273.52588539 153.90721513 279.6802576 160.83693871 285.53515625 168.23828125 C286.68438967 169.65145344 287.83409163 171.06424481 288.984375 172.4765625 C321.65946073 213.29436891 343.0442689 262.16926898 353.53515625 313.23828125 C353.72658203 314.14529785 353.91800781 315.05231445 354.11523438 315.98681641 C357.84372078 334.00242101 358.90714417 351.78747765 360.53515625 370.23828125 C330.50515625 370.56828125 300.47515625 370.89828125 269.53515625 371.23828125 C269.53515625 367.60828125 269.53515625 363.97828125 269.53515625 360.23828125 C269.21303163 356.18454713 268.60180747 352.19276496 267.97265625 348.17578125 C267.79774658 347.05743896 267.62283691 345.93909668 267.44262695 344.78686523 C261.60654658 309.59084915 248.04688061 276.60180592 229.53515625 246.23828125 C223.35349338 247.86667231 218.22424991 251.1807522 212.78515625 254.42578125 C210.62148076 255.70247903 208.45740459 256.97849796 206.29296875 258.25390625 C205.17696289 258.91326172 204.06095703 259.57261719 202.91113281 260.25195312 C197.51389186 263.42753545 192.08746323 266.55195303 186.66015625 269.67578125 C185.58443359 270.29590088 184.50871094 270.91602051 183.40039062 271.55493164 C177.897544 274.72709821 172.39260152 277.89560679 166.88671875 281.0625 C164.68607057 282.32920587 162.48554865 283.59613112 160.28515625 284.86328125 C159.21918213 285.47695557 158.15320801 286.09062988 157.05493164 286.72290039 C148.76021574 291.50809405 140.51139451 296.36824839 132.29785156 301.29150391 C131.02506348 302.05019775 131.02506348 302.05019775 129.7265625 302.82421875 C128.98607666 303.26813965 128.24559082 303.71206055 127.48266602 304.16943359 C125.53515625 305.23828125 125.53515625 305.23828125 122.53515625 306.23828125 C122.31214844 305.69816406 122.08914063 305.15804688 121.859375 304.6015625 C120.10986529 301.47928116 117.78344026 299.01614699 115.34765625 296.42578125 C114.59693848 295.6224939 114.59693848 295.6224939 113.83105469 294.80297852 C112.83904134 293.74475613 111.84480408 292.68861327 110.84814453 291.63476562 C109.81116946 290.5318468 108.79271824 289.41151287 107.78125 288.28515625 C89.42659826 268.5407267 60.85379401 256.25478018 34.53515625 252.23828125 C32.88515625 252.23828125 31.23515625 252.23828125 29.53515625 252.23828125 C29.86515625 222.20828125 30.19515625 192.17828125 30.53515625 161.23828125 C59.66533806 164.73390307 59.66533806 164.73390307 68.41015625 166.98828125 C69.44076172 167.24722168 70.47136719 167.50616211 71.53320312 167.77294922 C94.2257111 173.65710387 116.21595248 183.47066026 135.9609375 196.10546875 C138.41382797 197.53041108 138.41382797 197.53041108 140.53930664 196.56079102 C142.88925792 195.00364287 143.72526876 193.68899605 145.04296875 191.2109375 C145.47222656 190.41880859 145.90148437 189.62667969 146.34375 188.81054688 C146.77816406 187.98232422 147.21257812 187.15410156 147.66015625 186.30078125 C148.53687823 184.66619319 149.41444881 183.03205993 150.29296875 181.3984375 C150.67598145 180.67277588 151.05899414 179.94711426 151.45361328 179.19946289 C152.39372849 177.4947348 153.4552824 175.85809203 154.53515625 174.23828125 C154.53515625 173.24828125 154.53515625 172.25828125 154.53515625 171.23828125 C122.6902822 153.63560374 90.76756469 139.05377464 54.53515625 133.23828125 C53.60719238 133.08875 52.67922852 132.93921875 51.72314453 132.78515625 C-5.87459463 123.89004859 -64.41561698 136.62578196 -114.96484375 164.98828125 C-116.35195557 165.76582764 -116.35195557 165.76582764 -117.76708984 166.55908203 C-123.74025817 170.00560343 -129.1042366 173.91219997 -134.46484375 178.23828125 C-135.53787191 179.05966869 -136.61429745 179.87665278 -137.6953125 180.6875 C-154.98397845 193.77390104 -171.17489971 208.01221401 -184.46484375 225.23828125 C-185.5285715 226.59641239 -186.59237964 227.95448057 -187.65625 229.3125 C-193.68349922 237.05233005 -199.42274548 244.81191748 -204.46484375 253.23828125 C-205.21487142 254.41747822 -205.9662753 255.59580053 -206.71875 256.7734375 C-240.70104307 310.98843129 -249.59424376 381.36749522 -235.77880859 443.28271484 C-229.34247949 469.98139257 -219.29336705 507.40975795 -199.46484375 527.23828125 C-188.51810497 521.23968954 -177.68330582 515.07039565 -166.91162109 508.76293945 C-156.24371671 502.51641343 -145.53394133 496.34355906 -134.82177734 490.17333984 C-131.33291672 488.16223371 -127.84589547 486.1479713 -124.359375 484.1328125 C-123.18279163 483.45302339 -122.0061967 482.7732543 -120.82958984 482.09350586 C-118.61215997 480.81229959 -116.39501816 479.53059458 -114.17822266 478.24829102 C-112.19191303 477.10114889 -110.20404551 475.95669849 -108.21435547 474.81542969 C-106.41536776 473.78351168 -104.61995141 472.7453361 -102.82861328 471.70019531 C-101.62954346 471.01135254 -101.62954346 471.01135254 -100.40625 470.30859375 C-99.36706421 469.7055542 -99.36706421 469.7055542 -98.30688477 469.09033203 C-96.46484375 468.23828125 -96.46484375 468.23828125 -93.46484375 468.23828125 C-91.51953125 470.328125 -91.51953125 470.328125 -89.33984375 473.17578125 C-72.32060989 494.57295308 -48.87320702 509.13663882 -22.83984375 517.05078125 C-22.20836426 517.24575195 -21.57688477 517.44072266 -20.92626953 517.64160156 C-14.1085832 519.58951194 -7.66536834 520.20963488 -0.46484375 521.23828125 C-0.46484375 561.16828125 -0.46484375 601.09828125 -0.46484375 642.23828125 C9.43515625 642.23828125 19.33515625 642.23828125 29.53515625 642.23828125 C29.53515625 602.30828125 29.53515625 562.37828125 29.53515625 521.23828125 C34.15515625 520.57828125 38.77515625 519.91828125 43.53515625 519.23828125 C73.82981205 512.38212231 105.00591327 494.53214572 122.53515625 468.23828125 C126.70101071 468.83394662 129.67535127 470.2409763 133.3046875 472.34375 C134.4282666 472.99029541 135.5518457 473.63684082 136.70947266 474.30297852 C137.92229671 475.01041454 139.13502209 475.71801976 140.34765625 476.42578125 C141.60952878 477.15544533 142.87174054 477.88452302 144.13427734 478.61303711 C147.94003493 480.81210675 151.73801271 483.0243822 155.53515625 485.23828125 C156.60459473 485.86057617 157.6740332 486.48287109 158.77587891 487.12402344 C163.69924355 489.98930578 168.61855855 492.86140554 173.53515625 495.73828125 C179.89370762 499.45442671 186.27656921 503.12786487 192.66015625 506.80078125 C204.3388362 513.52322045 215.95228005 520.35225959 227.53515625 527.23828125 C230.5048022 524.4703471 232.56736636 521.78955889 234.55078125 518.25390625 C235.07929687 517.31933594 235.6078125 516.38476562 236.15234375 515.421875 C236.96058594 513.96974609 236.96058594 513.96974609 237.78515625 512.48828125 C238.61660156 511.01294922 238.61660156 511.01294922 239.46484375 509.5078125 C240.82752717 507.08787471 242.18404324 504.66469211 243.53515625 502.23828125 C240.3024865 499.54746645 237.10738428 497.29943317 233.421875 495.27734375 C231.94013794 494.4577417 231.94013794 494.4577417 230.4284668 493.62158203 C229.37054932 493.04134277 228.31263184 492.46110352 227.22265625 491.86328125 C218.66608826 487.12267307 210.15847591 482.31568122 201.72265625 477.36328125 C193.02681353 472.26212287 184.29485401 467.22862277 175.53515625 462.23828125 C166.72091117 457.21429875 157.9242425 452.16197114 149.16015625 447.05078125 C148.1949707 446.49003906 147.22978516 445.92929687 146.23535156 445.3515625 C141.21753355 442.42718155 136.2374319 439.45320415 131.29296875 436.40625 C130.28411621 435.79096436 129.27526367 435.17567871 128.23583984 434.54174805 C126.31114399 433.36536808 124.39432458 432.17597387 122.48681641 430.97192383 C121.6313623 430.45138428 120.7759082 429.93084473 119.89453125 429.39453125 C119.14655273 428.92853516 118.39857422 428.46253906 117.62792969 427.98242188 C115.54084547 427.00752849 115.54084547 427.00752849 113.40844727 427.87866211 C111.33235464 429.38547298 110.43129823 430.59655804 109.203125 432.8359375 C108.5997229 433.90799438 108.5997229 433.90799438 107.98413086 435.00170898 C107.56784424 435.76040283 107.15155762 436.51909668 106.72265625 437.30078125 C103.07956674 443.70336268 99.36415535 449.64737341 94.53515625 455.23828125 C93.87257813 456.04394531 93.21 456.84960938 92.52734375 457.6796875 C75.96389317 477.12244759 50.84801949 488.97755003 25.53515625 491.23828125 C-3.88593176 493.0836211 -32.46525036 486.12073796 -55.015625 466.38916016 C-63.74237544 458.48191298 -70.27536834 449.93419826 -76.39501953 439.97216797 C-78.07491323 437.24952875 -79.80353378 434.55825176 -81.52734375 431.86328125 C-82.50685259 430.32183196 -83.48616196 428.78025577 -84.46484375 427.23828125 C-88.25003107 428.65433185 -91.66233696 430.3924919 -95.1640625 432.40625 C-96.2773291 433.0444165 -97.3905957 433.68258301 -98.53759766 434.34008789 C-99.74256057 435.03523659 -100.94747465 435.73046995 -102.15234375 436.42578125 C-103.40919174 437.14796743 -104.66619287 437.86988715 -105.92333984 438.59155273 C-109.15121523 440.44571192 -112.37673724 442.30392078 -115.60137939 444.16369629 C-118.46009579 445.81220308 -121.32002829 447.45859813 -124.1796875 449.10546875 C-129.52459297 452.18548773 -134.86634442 455.27093981 -140.20751953 458.35742188 C-143.56144938 460.29406372 -146.91719405 462.22752698 -150.2734375 464.16015625 C-152.52477966 465.45696167 -154.77608229 466.75383573 -157.02734375 468.05078125 C-158.64612427 468.98313599 -158.64612427 468.98313599 -160.29760742 469.93432617 C-167.38913405 474.02456387 -174.4582316 478.15076321 -181.48071289 482.35864258 C-184.12683293 483.93220562 -186.53315101 485.26105034 -189.46484375 486.23828125 C-189.83609375 485.06265625 -190.20734375 483.88703125 -190.58984375 482.67578125 C-191.97632626 478.49029649 -193.59522195 474.43834272 -195.27734375 470.36328125 C-215.73276004 419.78389358 -217.06190512 362.60210908 -198.46484375 311.23828125 C-198.03413574 310.04307861 -198.03413574 310.04307861 -197.59472656 308.82373047 C-188.7366097 284.65783004 -176.20331473 261.86375456 -159.46484375 242.23828125 C-158.49461878 241.08347856 -157.5245813 239.92851835 -156.5546875 238.7734375 C-116.93030058 191.82930515 -61.83376903 167.59290496 -1.46484375 161.23828125 C-1.13484375 191.26828125 -0.80484375 221.29828125 -0.46484375 252.23828125 C-4.09484375 252.56828125 -7.72484375 252.89828125 -11.46484375 253.23828125 C-14.56420951 253.87069821 -17.54827646 254.53614529 -20.58984375 255.36328125 C-21.40042236 255.58282471 -22.21100098 255.80236816 -23.04614258 256.02856445 C-61.57498842 266.86913801 -88.45342706 294.19771901 -108.48828125 327.953125 C-109.80293253 330.33000186 -109.80293253 330.33000186 -108.46484375 333.23828125 C-106.76636334 334.52514359 -106.76636334 334.52514359 -104.640625 335.61328125 C-103.85880859 336.04125 -103.07699219 336.46921875 -102.27148438 336.91015625 C-101.44841797 337.3484375 -100.62535156 337.78671875 -99.77734375 338.23828125 C-98.97361328 338.6765625 -98.16988281 339.11484375 -97.34179688 339.56640625 C-93.08977031 341.87494725 -88.80754667 344.105516 -84.46484375 346.23828125 C-84.14845947 345.69002686 -83.8320752 345.14177246 -83.50610352 344.5769043 C-71.57878056 324.01634811 -71.57878056 324.01634811 -63.46484375 315.23828125 C-62.69914062 314.39265625 -61.9334375 313.54703125 -61.14453125 312.67578125 C-43.67798576 294.25447282 -18.30343359 282.77327709 7.1015625 281.90234375 C39.1721224 281.49074541 66.53738395 290.09341922 90.22265625 312.48828125 C98.26089548 320.86512763 104.53158115 330.70098173 110.02368164 340.88354492 C111.67211674 344.14093049 111.67211674 344.14093049 114.53515625 346.23828125 C116.8729657 345.19227866 116.8729657 345.19227866 119.50390625 343.58203125 C120.53644531 342.97939453 121.56898438 342.37675781 122.6328125 341.75585938 C123.75558594 341.09005859 124.87835937 340.42425781 126.03515625 339.73828125 C127.21044059 339.04928188 128.38622994 338.3611433 129.5625 337.67382812 C132.00979267 336.24292732 134.45485272 334.80831675 136.8984375 333.37109375 C142.42387026 330.12532348 147.98095284 326.93447208 153.53515625 323.73828125 C155.69935977 322.48982775 157.86342172 321.24112883 160.02734375 319.9921875 C164.38581013 317.47758689 168.74527816 314.96473464 173.10546875 312.453125 C187.61006848 304.09569226 202.08473759 295.68903741 216.53515625 287.23828125 C239.51148919 315.73256868 239.43030212 368.09265741 240.53515625 401.23828125 C280.46515625 401.23828125 320.39515625 401.23828125 361.53515625 401.23828125 C361.20515625 401.89828125 360.87515625 402.55828125 360.53515625 403.23828125 C360.36074853 404.74434747 360.23746747 406.25649621 360.140625 407.76953125 C360.04152832 409.18274658 360.04152832 409.18274658 359.94042969 410.62451172 C359.86856445 411.65205566 359.79669922 412.67959961 359.72265625 413.73828125 C356.32560069 457.29010747 345.22695342 500.17019463 325.53515625 539.23828125 C325.05578613 540.20507812 324.57641602 541.171875 324.08251953 542.16796875 C314.54263184 561.34210503 303.53784134 579.22791925 290.53515625 596.23828125 C290.08817383 596.82947754 289.64119141 597.42067383 289.18066406 598.02978516 C283.25669774 605.849506 276.98444418 613.1925738 270.2578125 620.33203125 C268.0221497 622.71844893 265.85369835 625.13421661 263.72265625 627.61328125 C258.14054469 634.04484457 251.98795822 639.69831468 245.53515625 645.23828125 C244.51509617 646.13351237 243.49560817 647.02939559 242.4765625 647.92578125 C229.60502348 659.18627775 216.07777981 669.24003293 201.53515625 678.23828125 C198.71731588 675.72993005 197.07791902 672.93905187 195.234375 669.6640625 C194.5942749 668.53403809 193.9541748 667.40401367 193.29467773 666.23974609 C192.95733612 665.63910339 192.61999451 665.03846069 192.27243042 664.4196167 C190.47922151 661.22729927 188.66990191 658.04411479 186.86328125 654.859375 C186.31407265 653.8895871 186.31407265 653.8895871 185.75376892 652.90020752 C182.37658467 646.94196492 178.93472324 641.02258564 175.47265625 635.11328125 C170.60591672 626.79892125 165.77723412 618.46371394 160.97265625 610.11328125 C154.25021705 598.4346013 147.42117791 586.82115745 140.53515625 575.23828125 C139.65214844 575.74617187 138.76914062 576.2540625 137.859375 576.77734375 C130.46554159 581.02130072 123.04099765 585.19431772 115.53515625 589.23828125 C116.21201654 592.72444279 117.605032 595.41577136 119.34375 598.5 C120.20891235 600.04095337 120.20891235 600.04095337 121.09155273 601.61303711 C121.71231689 602.70624268 122.33308105 603.79944824 122.97265625 604.92578125 C123.61082275 606.05701416 124.24898926 607.18824707 124.90649414 608.35375977 C128.75590124 615.15836507 132.65748495 621.92913522 136.64550781 628.65332031 C141.69782517 637.17378815 146.62392506 645.76708893 151.56640625 654.3515625 C153.92211745 658.44303009 156.28277283 662.53149684 158.65214539 666.61506653 C159.68132763 668.38887932 160.70956449 670.1632369 161.73754883 671.93774414 C163.02723297 674.16324631 164.31864009 676.38775121 165.61206055 678.61108398 C168.77531379 684.07567453 171.7877751 689.55263391 174.53515625 695.23828125 C173.74753906 695.47417969 172.95992187 695.71007812 172.1484375 695.953125 C168.45403177 697.26713526 164.99848003 698.84073342 161.45654297 700.51269531 C148.44420383 706.64353129 135.16234772 711.6563122 121.53515625 716.23828125 C120.26454346 716.67116455 120.26454346 716.67116455 118.96826172 717.11279297 C85.37460263 728.41068075 49.82854083 731.81330079 14.59765625 732.80078125 C13.12434147 732.84414748 11.65103411 732.88776621 10.17773438 732.93164062 C6.63029084 733.03720745 3.08275681 733.13765528 -0.46484375 733.23828125 C-0.46484375 743.13828125 -0.46484375 753.03828125 -0.46484375 763.23828125 C46.28022339 763.81538084 92.1460944 758.29178179 136.53515625 743.23828125 C137.53466309 742.89958008 138.53416992 742.56087891 139.56396484 742.21191406 C160.09096815 735.13549092 179.5558288 725.74292721 198.53515625 715.23828125 C199.87188457 714.51467974 201.20907393 713.79192879 202.546875 713.0703125 C225.06905756 700.77264798 246.04032509 684.86402883 264.953125 667.57421875 C267.05624856 665.67154418 269.18506876 663.81328567 271.33203125 661.9609375 C275.5929814 658.23989715 279.61031709 654.3113251 283.59765625 650.30078125 C284.26603516 649.63626953 284.93441406 648.97175781 285.62304688 648.28710938 C290.13229978 643.76909213 294.37905743 639.08122271 298.53515625 634.23828125 C299.39238281 633.26246094 300.24960937 632.28664063 301.1328125 631.28125 C360.80247962 562.15521725 393.48801374 470.03212953 391.03125 363.265625 C389.65951399 345.42118623 387.0578739 327.78549945 383.53515625 310.23828125 C383.22868164 308.70059082 383.22868164 308.70059082 382.91601562 307.13183594 C377.04464639 278.54851934 367.09128325 250.53813983 354.53515625 224.23828125 C354.1906543 223.50383789 353.84615234 222.76939453 353.49121094 222.01269531 C346.19642894 206.51405514 338.08562046 190.51158565 327.6015625 176.94140625 C325.96029933 174.79442305 324.40624167 172.6344749 322.875 170.41015625 C309.61175485 151.14851444 294.35973729 134.03255847 277.92333984 117.45223999 C276.51807947 116.03412014 275.11640013 114.61245451 273.71484375 113.19067383 C267.63335357 107.10207399 261.27542761 101.582452 254.53515625 96.23828125 C253.28076609 95.21311897 252.02792326 94.18605739 250.77734375 93.15625 C238.3271184 83.02188245 225.31312975 73.49821064 211.53515625 65.23828125 C210.50938477 64.62098145 210.50938477 64.62098145 209.46289062 63.99121094 C160.5388725 34.74808469 107.05855909 17.65852443 50.53515625 11.23828125 C49.19795532 11.08141846 49.19795532 11.08141846 47.83374023 10.92138672 C37.13146277 9.84295984 26.34257863 9.99437394 15.59765625 9.98828125 C14.52891266 9.98760651 13.46016907 9.98693176 12.35903931 9.98623657 C-14.12190267 10.01274402 -39.53002201 12.69706184 -65.46484375 18.23828125 Z " fill="#FFFFFF" transform="translate(436.46484375,63.76171875)"/>
</svg>
