<svg width="120" height="120" viewBox="0 0 120 120" fill="none" xmlns="http://www.w3.org/2000/svg">
<g clip-path="url(#clip0_308_316)">
<path fill-rule="evenodd" clip-rule="evenodd" d="M98.885 22.1499C100.121 21.6299 101.473 21.4505 102.801 21.6305C104.13 21.8105 105.386 22.3433 106.438 23.1734C107.491 24.0035 108.302 25.1005 108.787 26.3504C109.272 27.6002 109.413 28.9571 109.195 30.2799L97.855 99.0649C96.755 105.7 89.475 109.505 83.39 106.2C78.3 103.435 70.74 99.1749 63.94 94.7299C60.54 92.5049 50.125 85.38 51.405 80.31C52.505 75.975 70.005 59.6849 80.005 49.9999C83.93 46.1949 82.14 43.9999 77.505 47.4999C65.995 56.1899 47.515 69.405 41.405 73.125C36.015 76.405 33.205 76.965 29.845 76.405C23.715 75.385 18.03 73.805 13.39 71.88C7.11998 69.28 7.42498 60.6599 13.385 58.1499L98.885 22.1499Z" fill="white"/>
</g>
<defs>
<clipPath id="clip0_308_316">
<rect width="120" height="120" fill="white"/>
</clipPath>
</defs>
</svg>
